%TF.GenerationSoftware,KiCad,Pcbnew,9.0.1*%
%TF.CreationDate,2025-05-09T16:55:24+02:00*%
%TF.ProjectId,SIGURD,53494755-5244-42e6-9b69-6361645f7063,rev?*%
%TF.SameCoordinates,Original*%
%TF.FileFunction,Drillmap*%
%TF.FilePolarity,Positive*%
%FSLAX45Y45*%
G04 Gerber Fmt 4.5, Leading zero omitted, Abs format (unit mm)*
G04 Created by KiCad (PCBNEW 9.0.1) date 2025-05-09 16:55:24*
%MOMM*%
%LPD*%
G01*
G04 APERTURE LIST*
%ADD10C,0.050000*%
%ADD11C,0.200000*%
%ADD12C,0.102000*%
%ADD13C,0.120000*%
%ADD14C,0.145000*%
G04 APERTURE END LIST*
D10*
X13500000Y-7000000D02*
G75*
G02*
X14000000Y-7500000I0J-500000D01*
G01*
X7000000Y-7500000D02*
G75*
G02*
X7500000Y-7000000I500000J0D01*
G01*
X14000000Y-8000000D02*
X14000000Y-7500000D01*
X14000000Y-13500000D02*
G75*
G02*
X13500000Y-14000000I-500000J0D01*
G01*
X13500000Y-7000000D02*
X7500000Y-7000000D01*
X7500000Y-14000000D02*
X13500000Y-14000000D01*
X7500000Y-14000000D02*
G75*
G02*
X7000000Y-13500000I0J500000D01*
G01*
X7000000Y-7500000D02*
X7000000Y-13500000D01*
X14000000Y-13500000D02*
X14000000Y-8000000D01*
D11*
D12*
X7332452Y-8928000D02*
X7434452Y-9030000D01*
X7434452Y-8928000D02*
X7332452Y-9030000D01*
X7332452Y-10128000D02*
X7434452Y-10230000D01*
X7434452Y-10128000D02*
X7332452Y-10230000D01*
D13*
X13318077Y-8903875D02*
G75*
G02*
X13198077Y-8903875I-60000J0D01*
G01*
X13198077Y-8903875D02*
G75*
G02*
X13318077Y-8903875I60000J0D01*
G01*
X13318077Y-9969125D02*
G75*
G02*
X13198077Y-9969125I-60000J0D01*
G01*
X13198077Y-9969125D02*
G75*
G02*
X13318077Y-9969125I60000J0D01*
G01*
D14*
X8434250Y-7192500D02*
X8434250Y-7337500D01*
X8361750Y-7265000D02*
X8506750Y-7265000D01*
D11*
X7258277Y-14313984D02*
X7258277Y-14113984D01*
X7258277Y-14113984D02*
X7305896Y-14113984D01*
X7305896Y-14113984D02*
X7334467Y-14123508D01*
X7334467Y-14123508D02*
X7353515Y-14142555D01*
X7353515Y-14142555D02*
X7363039Y-14161603D01*
X7363039Y-14161603D02*
X7372562Y-14199698D01*
X7372562Y-14199698D02*
X7372562Y-14228269D01*
X7372562Y-14228269D02*
X7363039Y-14266365D01*
X7363039Y-14266365D02*
X7353515Y-14285412D01*
X7353515Y-14285412D02*
X7334467Y-14304460D01*
X7334467Y-14304460D02*
X7305896Y-14313984D01*
X7305896Y-14313984D02*
X7258277Y-14313984D01*
X7458277Y-14313984D02*
X7458277Y-14180650D01*
X7458277Y-14218746D02*
X7467801Y-14199698D01*
X7467801Y-14199698D02*
X7477324Y-14190174D01*
X7477324Y-14190174D02*
X7496372Y-14180650D01*
X7496372Y-14180650D02*
X7515420Y-14180650D01*
X7582086Y-14313984D02*
X7582086Y-14180650D01*
X7582086Y-14113984D02*
X7572562Y-14123508D01*
X7572562Y-14123508D02*
X7582086Y-14133031D01*
X7582086Y-14133031D02*
X7591610Y-14123508D01*
X7591610Y-14123508D02*
X7582086Y-14113984D01*
X7582086Y-14113984D02*
X7582086Y-14133031D01*
X7705896Y-14313984D02*
X7686848Y-14304460D01*
X7686848Y-14304460D02*
X7677324Y-14285412D01*
X7677324Y-14285412D02*
X7677324Y-14113984D01*
X7810658Y-14313984D02*
X7791610Y-14304460D01*
X7791610Y-14304460D02*
X7782086Y-14285412D01*
X7782086Y-14285412D02*
X7782086Y-14113984D01*
X8039229Y-14313984D02*
X8039229Y-14113984D01*
X8039229Y-14113984D02*
X8105896Y-14256841D01*
X8105896Y-14256841D02*
X8172562Y-14113984D01*
X8172562Y-14113984D02*
X8172562Y-14313984D01*
X8353515Y-14313984D02*
X8353515Y-14209222D01*
X8353515Y-14209222D02*
X8343991Y-14190174D01*
X8343991Y-14190174D02*
X8324943Y-14180650D01*
X8324943Y-14180650D02*
X8286848Y-14180650D01*
X8286848Y-14180650D02*
X8267801Y-14190174D01*
X8353515Y-14304460D02*
X8334467Y-14313984D01*
X8334467Y-14313984D02*
X8286848Y-14313984D01*
X8286848Y-14313984D02*
X8267801Y-14304460D01*
X8267801Y-14304460D02*
X8258277Y-14285412D01*
X8258277Y-14285412D02*
X8258277Y-14266365D01*
X8258277Y-14266365D02*
X8267801Y-14247317D01*
X8267801Y-14247317D02*
X8286848Y-14237793D01*
X8286848Y-14237793D02*
X8334467Y-14237793D01*
X8334467Y-14237793D02*
X8353515Y-14228269D01*
X8448753Y-14180650D02*
X8448753Y-14380650D01*
X8448753Y-14190174D02*
X8467801Y-14180650D01*
X8467801Y-14180650D02*
X8505896Y-14180650D01*
X8505896Y-14180650D02*
X8524944Y-14190174D01*
X8524944Y-14190174D02*
X8534467Y-14199698D01*
X8534467Y-14199698D02*
X8543991Y-14218746D01*
X8543991Y-14218746D02*
X8543991Y-14275888D01*
X8543991Y-14275888D02*
X8534467Y-14294936D01*
X8534467Y-14294936D02*
X8524944Y-14304460D01*
X8524944Y-14304460D02*
X8505896Y-14313984D01*
X8505896Y-14313984D02*
X8467801Y-14313984D01*
X8467801Y-14313984D02*
X8448753Y-14304460D01*
X8629705Y-14294936D02*
X8639229Y-14304460D01*
X8639229Y-14304460D02*
X8629705Y-14313984D01*
X8629705Y-14313984D02*
X8620182Y-14304460D01*
X8620182Y-14304460D02*
X8629705Y-14294936D01*
X8629705Y-14294936D02*
X8629705Y-14313984D01*
X8629705Y-14190174D02*
X8639229Y-14199698D01*
X8639229Y-14199698D02*
X8629705Y-14209222D01*
X8629705Y-14209222D02*
X8620182Y-14199698D01*
X8620182Y-14199698D02*
X8629705Y-14190174D01*
X8629705Y-14190174D02*
X8629705Y-14209222D01*
D12*
X6895500Y-14591500D02*
X6997500Y-14693500D01*
X6997500Y-14591500D02*
X6895500Y-14693500D01*
D11*
X7363039Y-14733984D02*
X7248753Y-14733984D01*
X7305896Y-14733984D02*
X7305896Y-14533984D01*
X7305896Y-14533984D02*
X7286848Y-14562555D01*
X7286848Y-14562555D02*
X7267801Y-14581603D01*
X7267801Y-14581603D02*
X7248753Y-14591127D01*
X7448753Y-14714936D02*
X7458277Y-14724460D01*
X7458277Y-14724460D02*
X7448753Y-14733984D01*
X7448753Y-14733984D02*
X7439229Y-14724460D01*
X7439229Y-14724460D02*
X7448753Y-14714936D01*
X7448753Y-14714936D02*
X7448753Y-14733984D01*
X7582086Y-14533984D02*
X7601134Y-14533984D01*
X7601134Y-14533984D02*
X7620182Y-14543508D01*
X7620182Y-14543508D02*
X7629705Y-14553031D01*
X7629705Y-14553031D02*
X7639229Y-14572079D01*
X7639229Y-14572079D02*
X7648753Y-14610174D01*
X7648753Y-14610174D02*
X7648753Y-14657793D01*
X7648753Y-14657793D02*
X7639229Y-14695888D01*
X7639229Y-14695888D02*
X7629705Y-14714936D01*
X7629705Y-14714936D02*
X7620182Y-14724460D01*
X7620182Y-14724460D02*
X7601134Y-14733984D01*
X7601134Y-14733984D02*
X7582086Y-14733984D01*
X7582086Y-14733984D02*
X7563039Y-14724460D01*
X7563039Y-14724460D02*
X7553515Y-14714936D01*
X7553515Y-14714936D02*
X7543991Y-14695888D01*
X7543991Y-14695888D02*
X7534467Y-14657793D01*
X7534467Y-14657793D02*
X7534467Y-14610174D01*
X7534467Y-14610174D02*
X7543991Y-14572079D01*
X7543991Y-14572079D02*
X7553515Y-14553031D01*
X7553515Y-14553031D02*
X7563039Y-14543508D01*
X7563039Y-14543508D02*
X7582086Y-14533984D01*
X7724943Y-14553031D02*
X7734467Y-14543508D01*
X7734467Y-14543508D02*
X7753515Y-14533984D01*
X7753515Y-14533984D02*
X7801134Y-14533984D01*
X7801134Y-14533984D02*
X7820182Y-14543508D01*
X7820182Y-14543508D02*
X7829705Y-14553031D01*
X7829705Y-14553031D02*
X7839229Y-14572079D01*
X7839229Y-14572079D02*
X7839229Y-14591127D01*
X7839229Y-14591127D02*
X7829705Y-14619698D01*
X7829705Y-14619698D02*
X7715420Y-14733984D01*
X7715420Y-14733984D02*
X7839229Y-14733984D01*
X7963039Y-14533984D02*
X7982086Y-14533984D01*
X7982086Y-14533984D02*
X8001134Y-14543508D01*
X8001134Y-14543508D02*
X8010658Y-14553031D01*
X8010658Y-14553031D02*
X8020182Y-14572079D01*
X8020182Y-14572079D02*
X8029705Y-14610174D01*
X8029705Y-14610174D02*
X8029705Y-14657793D01*
X8029705Y-14657793D02*
X8020182Y-14695888D01*
X8020182Y-14695888D02*
X8010658Y-14714936D01*
X8010658Y-14714936D02*
X8001134Y-14724460D01*
X8001134Y-14724460D02*
X7982086Y-14733984D01*
X7982086Y-14733984D02*
X7963039Y-14733984D01*
X7963039Y-14733984D02*
X7943991Y-14724460D01*
X7943991Y-14724460D02*
X7934467Y-14714936D01*
X7934467Y-14714936D02*
X7924943Y-14695888D01*
X7924943Y-14695888D02*
X7915420Y-14657793D01*
X7915420Y-14657793D02*
X7915420Y-14610174D01*
X7915420Y-14610174D02*
X7924943Y-14572079D01*
X7924943Y-14572079D02*
X7934467Y-14553031D01*
X7934467Y-14553031D02*
X7943991Y-14543508D01*
X7943991Y-14543508D02*
X7963039Y-14533984D01*
X8115420Y-14733984D02*
X8115420Y-14600650D01*
X8115420Y-14619698D02*
X8124943Y-14610174D01*
X8124943Y-14610174D02*
X8143991Y-14600650D01*
X8143991Y-14600650D02*
X8172563Y-14600650D01*
X8172563Y-14600650D02*
X8191610Y-14610174D01*
X8191610Y-14610174D02*
X8201134Y-14629222D01*
X8201134Y-14629222D02*
X8201134Y-14733984D01*
X8201134Y-14629222D02*
X8210658Y-14610174D01*
X8210658Y-14610174D02*
X8229705Y-14600650D01*
X8229705Y-14600650D02*
X8258277Y-14600650D01*
X8258277Y-14600650D02*
X8277324Y-14610174D01*
X8277324Y-14610174D02*
X8286848Y-14629222D01*
X8286848Y-14629222D02*
X8286848Y-14733984D01*
X8382086Y-14733984D02*
X8382086Y-14600650D01*
X8382086Y-14619698D02*
X8391610Y-14610174D01*
X8391610Y-14610174D02*
X8410658Y-14600650D01*
X8410658Y-14600650D02*
X8439229Y-14600650D01*
X8439229Y-14600650D02*
X8458277Y-14610174D01*
X8458277Y-14610174D02*
X8467801Y-14629222D01*
X8467801Y-14629222D02*
X8467801Y-14733984D01*
X8467801Y-14629222D02*
X8477325Y-14610174D01*
X8477325Y-14610174D02*
X8496372Y-14600650D01*
X8496372Y-14600650D02*
X8524944Y-14600650D01*
X8524944Y-14600650D02*
X8543991Y-14610174D01*
X8543991Y-14610174D02*
X8553515Y-14629222D01*
X8553515Y-14629222D02*
X8553515Y-14733984D01*
X8943991Y-14524460D02*
X8772563Y-14781603D01*
X9201134Y-14533984D02*
X9220182Y-14533984D01*
X9220182Y-14533984D02*
X9239229Y-14543508D01*
X9239229Y-14543508D02*
X9248753Y-14553031D01*
X9248753Y-14553031D02*
X9258277Y-14572079D01*
X9258277Y-14572079D02*
X9267801Y-14610174D01*
X9267801Y-14610174D02*
X9267801Y-14657793D01*
X9267801Y-14657793D02*
X9258277Y-14695888D01*
X9258277Y-14695888D02*
X9248753Y-14714936D01*
X9248753Y-14714936D02*
X9239229Y-14724460D01*
X9239229Y-14724460D02*
X9220182Y-14733984D01*
X9220182Y-14733984D02*
X9201134Y-14733984D01*
X9201134Y-14733984D02*
X9182087Y-14724460D01*
X9182087Y-14724460D02*
X9172563Y-14714936D01*
X9172563Y-14714936D02*
X9163039Y-14695888D01*
X9163039Y-14695888D02*
X9153515Y-14657793D01*
X9153515Y-14657793D02*
X9153515Y-14610174D01*
X9153515Y-14610174D02*
X9163039Y-14572079D01*
X9163039Y-14572079D02*
X9172563Y-14553031D01*
X9172563Y-14553031D02*
X9182087Y-14543508D01*
X9182087Y-14543508D02*
X9201134Y-14533984D01*
X9353515Y-14714936D02*
X9363039Y-14724460D01*
X9363039Y-14724460D02*
X9353515Y-14733984D01*
X9353515Y-14733984D02*
X9343991Y-14724460D01*
X9343991Y-14724460D02*
X9353515Y-14714936D01*
X9353515Y-14714936D02*
X9353515Y-14733984D01*
X9486848Y-14533984D02*
X9505896Y-14533984D01*
X9505896Y-14533984D02*
X9524944Y-14543508D01*
X9524944Y-14543508D02*
X9534468Y-14553031D01*
X9534468Y-14553031D02*
X9543991Y-14572079D01*
X9543991Y-14572079D02*
X9553515Y-14610174D01*
X9553515Y-14610174D02*
X9553515Y-14657793D01*
X9553515Y-14657793D02*
X9543991Y-14695888D01*
X9543991Y-14695888D02*
X9534468Y-14714936D01*
X9534468Y-14714936D02*
X9524944Y-14724460D01*
X9524944Y-14724460D02*
X9505896Y-14733984D01*
X9505896Y-14733984D02*
X9486848Y-14733984D01*
X9486848Y-14733984D02*
X9467801Y-14724460D01*
X9467801Y-14724460D02*
X9458277Y-14714936D01*
X9458277Y-14714936D02*
X9448753Y-14695888D01*
X9448753Y-14695888D02*
X9439229Y-14657793D01*
X9439229Y-14657793D02*
X9439229Y-14610174D01*
X9439229Y-14610174D02*
X9448753Y-14572079D01*
X9448753Y-14572079D02*
X9458277Y-14553031D01*
X9458277Y-14553031D02*
X9467801Y-14543508D01*
X9467801Y-14543508D02*
X9486848Y-14533984D01*
X9724944Y-14600650D02*
X9724944Y-14733984D01*
X9677325Y-14524460D02*
X9629706Y-14667317D01*
X9629706Y-14667317D02*
X9753515Y-14667317D01*
X9867801Y-14533984D02*
X9886849Y-14533984D01*
X9886849Y-14533984D02*
X9905896Y-14543508D01*
X9905896Y-14543508D02*
X9915420Y-14553031D01*
X9915420Y-14553031D02*
X9924944Y-14572079D01*
X9924944Y-14572079D02*
X9934468Y-14610174D01*
X9934468Y-14610174D02*
X9934468Y-14657793D01*
X9934468Y-14657793D02*
X9924944Y-14695888D01*
X9924944Y-14695888D02*
X9915420Y-14714936D01*
X9915420Y-14714936D02*
X9905896Y-14724460D01*
X9905896Y-14724460D02*
X9886849Y-14733984D01*
X9886849Y-14733984D02*
X9867801Y-14733984D01*
X9867801Y-14733984D02*
X9848753Y-14724460D01*
X9848753Y-14724460D02*
X9839229Y-14714936D01*
X9839229Y-14714936D02*
X9829706Y-14695888D01*
X9829706Y-14695888D02*
X9820182Y-14657793D01*
X9820182Y-14657793D02*
X9820182Y-14610174D01*
X9820182Y-14610174D02*
X9829706Y-14572079D01*
X9829706Y-14572079D02*
X9839229Y-14553031D01*
X9839229Y-14553031D02*
X9848753Y-14543508D01*
X9848753Y-14543508D02*
X9867801Y-14533984D01*
X10010658Y-14553031D02*
X10020182Y-14543508D01*
X10020182Y-14543508D02*
X10039229Y-14533984D01*
X10039229Y-14533984D02*
X10086849Y-14533984D01*
X10086849Y-14533984D02*
X10105896Y-14543508D01*
X10105896Y-14543508D02*
X10115420Y-14553031D01*
X10115420Y-14553031D02*
X10124944Y-14572079D01*
X10124944Y-14572079D02*
X10124944Y-14591127D01*
X10124944Y-14591127D02*
X10115420Y-14619698D01*
X10115420Y-14619698D02*
X10001134Y-14733984D01*
X10001134Y-14733984D02*
X10124944Y-14733984D01*
X10201134Y-14533984D02*
X10201134Y-14572079D01*
X10277325Y-14533984D02*
X10277325Y-14572079D01*
X10572563Y-14810174D02*
X10563039Y-14800650D01*
X10563039Y-14800650D02*
X10543991Y-14772079D01*
X10543991Y-14772079D02*
X10534468Y-14753031D01*
X10534468Y-14753031D02*
X10524944Y-14724460D01*
X10524944Y-14724460D02*
X10515420Y-14676841D01*
X10515420Y-14676841D02*
X10515420Y-14638746D01*
X10515420Y-14638746D02*
X10524944Y-14591127D01*
X10524944Y-14591127D02*
X10534468Y-14562555D01*
X10534468Y-14562555D02*
X10543991Y-14543508D01*
X10543991Y-14543508D02*
X10563039Y-14514936D01*
X10563039Y-14514936D02*
X10572563Y-14505412D01*
X10639230Y-14553031D02*
X10648753Y-14543508D01*
X10648753Y-14543508D02*
X10667801Y-14533984D01*
X10667801Y-14533984D02*
X10715420Y-14533984D01*
X10715420Y-14533984D02*
X10734468Y-14543508D01*
X10734468Y-14543508D02*
X10743991Y-14553031D01*
X10743991Y-14553031D02*
X10753515Y-14572079D01*
X10753515Y-14572079D02*
X10753515Y-14591127D01*
X10753515Y-14591127D02*
X10743991Y-14619698D01*
X10743991Y-14619698D02*
X10629706Y-14733984D01*
X10629706Y-14733984D02*
X10753515Y-14733984D01*
X10991611Y-14733984D02*
X10991611Y-14533984D01*
X11077325Y-14733984D02*
X11077325Y-14629222D01*
X11077325Y-14629222D02*
X11067801Y-14610174D01*
X11067801Y-14610174D02*
X11048753Y-14600650D01*
X11048753Y-14600650D02*
X11020182Y-14600650D01*
X11020182Y-14600650D02*
X11001134Y-14610174D01*
X11001134Y-14610174D02*
X10991611Y-14619698D01*
X11201134Y-14733984D02*
X11182087Y-14724460D01*
X11182087Y-14724460D02*
X11172563Y-14714936D01*
X11172563Y-14714936D02*
X11163039Y-14695888D01*
X11163039Y-14695888D02*
X11163039Y-14638746D01*
X11163039Y-14638746D02*
X11172563Y-14619698D01*
X11172563Y-14619698D02*
X11182087Y-14610174D01*
X11182087Y-14610174D02*
X11201134Y-14600650D01*
X11201134Y-14600650D02*
X11229706Y-14600650D01*
X11229706Y-14600650D02*
X11248753Y-14610174D01*
X11248753Y-14610174D02*
X11258277Y-14619698D01*
X11258277Y-14619698D02*
X11267801Y-14638746D01*
X11267801Y-14638746D02*
X11267801Y-14695888D01*
X11267801Y-14695888D02*
X11258277Y-14714936D01*
X11258277Y-14714936D02*
X11248753Y-14724460D01*
X11248753Y-14724460D02*
X11229706Y-14733984D01*
X11229706Y-14733984D02*
X11201134Y-14733984D01*
X11382087Y-14733984D02*
X11363039Y-14724460D01*
X11363039Y-14724460D02*
X11353515Y-14705412D01*
X11353515Y-14705412D02*
X11353515Y-14533984D01*
X11534468Y-14724460D02*
X11515420Y-14733984D01*
X11515420Y-14733984D02*
X11477325Y-14733984D01*
X11477325Y-14733984D02*
X11458277Y-14724460D01*
X11458277Y-14724460D02*
X11448753Y-14705412D01*
X11448753Y-14705412D02*
X11448753Y-14629222D01*
X11448753Y-14629222D02*
X11458277Y-14610174D01*
X11458277Y-14610174D02*
X11477325Y-14600650D01*
X11477325Y-14600650D02*
X11515420Y-14600650D01*
X11515420Y-14600650D02*
X11534468Y-14610174D01*
X11534468Y-14610174D02*
X11543991Y-14629222D01*
X11543991Y-14629222D02*
X11543991Y-14648269D01*
X11543991Y-14648269D02*
X11448753Y-14667317D01*
X11620182Y-14724460D02*
X11639230Y-14733984D01*
X11639230Y-14733984D02*
X11677325Y-14733984D01*
X11677325Y-14733984D02*
X11696372Y-14724460D01*
X11696372Y-14724460D02*
X11705896Y-14705412D01*
X11705896Y-14705412D02*
X11705896Y-14695888D01*
X11705896Y-14695888D02*
X11696372Y-14676841D01*
X11696372Y-14676841D02*
X11677325Y-14667317D01*
X11677325Y-14667317D02*
X11648753Y-14667317D01*
X11648753Y-14667317D02*
X11629706Y-14657793D01*
X11629706Y-14657793D02*
X11620182Y-14638746D01*
X11620182Y-14638746D02*
X11620182Y-14629222D01*
X11620182Y-14629222D02*
X11629706Y-14610174D01*
X11629706Y-14610174D02*
X11648753Y-14600650D01*
X11648753Y-14600650D02*
X11677325Y-14600650D01*
X11677325Y-14600650D02*
X11696372Y-14610174D01*
X11772563Y-14810174D02*
X11782087Y-14800650D01*
X11782087Y-14800650D02*
X11801134Y-14772079D01*
X11801134Y-14772079D02*
X11810658Y-14753031D01*
X11810658Y-14753031D02*
X11820182Y-14724460D01*
X11820182Y-14724460D02*
X11829706Y-14676841D01*
X11829706Y-14676841D02*
X11829706Y-14638746D01*
X11829706Y-14638746D02*
X11820182Y-14591127D01*
X11820182Y-14591127D02*
X11810658Y-14562555D01*
X11810658Y-14562555D02*
X11801134Y-14543508D01*
X11801134Y-14543508D02*
X11782087Y-14514936D01*
X11782087Y-14514936D02*
X11772563Y-14505412D01*
X12134468Y-14810174D02*
X12124944Y-14800650D01*
X12124944Y-14800650D02*
X12105896Y-14772079D01*
X12105896Y-14772079D02*
X12096372Y-14753031D01*
X12096372Y-14753031D02*
X12086849Y-14724460D01*
X12086849Y-14724460D02*
X12077325Y-14676841D01*
X12077325Y-14676841D02*
X12077325Y-14638746D01*
X12077325Y-14638746D02*
X12086849Y-14591127D01*
X12086849Y-14591127D02*
X12096372Y-14562555D01*
X12096372Y-14562555D02*
X12105896Y-14543508D01*
X12105896Y-14543508D02*
X12124944Y-14514936D01*
X12124944Y-14514936D02*
X12134468Y-14505412D01*
X12210658Y-14600650D02*
X12210658Y-14733984D01*
X12210658Y-14619698D02*
X12220182Y-14610174D01*
X12220182Y-14610174D02*
X12239230Y-14600650D01*
X12239230Y-14600650D02*
X12267801Y-14600650D01*
X12267801Y-14600650D02*
X12286849Y-14610174D01*
X12286849Y-14610174D02*
X12296372Y-14629222D01*
X12296372Y-14629222D02*
X12296372Y-14733984D01*
X12420182Y-14733984D02*
X12401134Y-14724460D01*
X12401134Y-14724460D02*
X12391611Y-14714936D01*
X12391611Y-14714936D02*
X12382087Y-14695888D01*
X12382087Y-14695888D02*
X12382087Y-14638746D01*
X12382087Y-14638746D02*
X12391611Y-14619698D01*
X12391611Y-14619698D02*
X12401134Y-14610174D01*
X12401134Y-14610174D02*
X12420182Y-14600650D01*
X12420182Y-14600650D02*
X12448753Y-14600650D01*
X12448753Y-14600650D02*
X12467801Y-14610174D01*
X12467801Y-14610174D02*
X12477325Y-14619698D01*
X12477325Y-14619698D02*
X12486849Y-14638746D01*
X12486849Y-14638746D02*
X12486849Y-14695888D01*
X12486849Y-14695888D02*
X12477325Y-14714936D01*
X12477325Y-14714936D02*
X12467801Y-14724460D01*
X12467801Y-14724460D02*
X12448753Y-14733984D01*
X12448753Y-14733984D02*
X12420182Y-14733984D01*
X12543992Y-14600650D02*
X12620182Y-14600650D01*
X12572563Y-14533984D02*
X12572563Y-14705412D01*
X12572563Y-14705412D02*
X12582087Y-14724460D01*
X12582087Y-14724460D02*
X12601134Y-14733984D01*
X12601134Y-14733984D02*
X12620182Y-14733984D01*
X12839230Y-14600650D02*
X12839230Y-14800650D01*
X12839230Y-14610174D02*
X12858277Y-14600650D01*
X12858277Y-14600650D02*
X12896373Y-14600650D01*
X12896373Y-14600650D02*
X12915420Y-14610174D01*
X12915420Y-14610174D02*
X12924944Y-14619698D01*
X12924944Y-14619698D02*
X12934468Y-14638746D01*
X12934468Y-14638746D02*
X12934468Y-14695888D01*
X12934468Y-14695888D02*
X12924944Y-14714936D01*
X12924944Y-14714936D02*
X12915420Y-14724460D01*
X12915420Y-14724460D02*
X12896373Y-14733984D01*
X12896373Y-14733984D02*
X12858277Y-14733984D01*
X12858277Y-14733984D02*
X12839230Y-14724460D01*
X13048753Y-14733984D02*
X13029706Y-14724460D01*
X13029706Y-14724460D02*
X13020182Y-14705412D01*
X13020182Y-14705412D02*
X13020182Y-14533984D01*
X13210658Y-14733984D02*
X13210658Y-14629222D01*
X13210658Y-14629222D02*
X13201134Y-14610174D01*
X13201134Y-14610174D02*
X13182087Y-14600650D01*
X13182087Y-14600650D02*
X13143992Y-14600650D01*
X13143992Y-14600650D02*
X13124944Y-14610174D01*
X13210658Y-14724460D02*
X13191611Y-14733984D01*
X13191611Y-14733984D02*
X13143992Y-14733984D01*
X13143992Y-14733984D02*
X13124944Y-14724460D01*
X13124944Y-14724460D02*
X13115420Y-14705412D01*
X13115420Y-14705412D02*
X13115420Y-14686365D01*
X13115420Y-14686365D02*
X13124944Y-14667317D01*
X13124944Y-14667317D02*
X13143992Y-14657793D01*
X13143992Y-14657793D02*
X13191611Y-14657793D01*
X13191611Y-14657793D02*
X13210658Y-14648269D01*
X13277325Y-14600650D02*
X13353515Y-14600650D01*
X13305896Y-14533984D02*
X13305896Y-14705412D01*
X13305896Y-14705412D02*
X13315420Y-14724460D01*
X13315420Y-14724460D02*
X13334468Y-14733984D01*
X13334468Y-14733984D02*
X13353515Y-14733984D01*
X13496373Y-14724460D02*
X13477325Y-14733984D01*
X13477325Y-14733984D02*
X13439230Y-14733984D01*
X13439230Y-14733984D02*
X13420182Y-14724460D01*
X13420182Y-14724460D02*
X13410658Y-14705412D01*
X13410658Y-14705412D02*
X13410658Y-14629222D01*
X13410658Y-14629222D02*
X13420182Y-14610174D01*
X13420182Y-14610174D02*
X13439230Y-14600650D01*
X13439230Y-14600650D02*
X13477325Y-14600650D01*
X13477325Y-14600650D02*
X13496373Y-14610174D01*
X13496373Y-14610174D02*
X13505896Y-14629222D01*
X13505896Y-14629222D02*
X13505896Y-14648269D01*
X13505896Y-14648269D02*
X13410658Y-14667317D01*
X13677325Y-14733984D02*
X13677325Y-14533984D01*
X13677325Y-14724460D02*
X13658277Y-14733984D01*
X13658277Y-14733984D02*
X13620182Y-14733984D01*
X13620182Y-14733984D02*
X13601134Y-14724460D01*
X13601134Y-14724460D02*
X13591611Y-14714936D01*
X13591611Y-14714936D02*
X13582087Y-14695888D01*
X13582087Y-14695888D02*
X13582087Y-14638746D01*
X13582087Y-14638746D02*
X13591611Y-14619698D01*
X13591611Y-14619698D02*
X13601134Y-14610174D01*
X13601134Y-14610174D02*
X13620182Y-14600650D01*
X13620182Y-14600650D02*
X13658277Y-14600650D01*
X13658277Y-14600650D02*
X13677325Y-14610174D01*
X13753515Y-14810174D02*
X13763039Y-14800650D01*
X13763039Y-14800650D02*
X13782087Y-14772079D01*
X13782087Y-14772079D02*
X13791611Y-14753031D01*
X13791611Y-14753031D02*
X13801134Y-14724460D01*
X13801134Y-14724460D02*
X13810658Y-14676841D01*
X13810658Y-14676841D02*
X13810658Y-14638746D01*
X13810658Y-14638746D02*
X13801134Y-14591127D01*
X13801134Y-14591127D02*
X13791611Y-14562555D01*
X13791611Y-14562555D02*
X13782087Y-14543508D01*
X13782087Y-14543508D02*
X13763039Y-14514936D01*
X13763039Y-14514936D02*
X13753515Y-14505412D01*
D13*
X6997500Y-14906500D02*
G75*
G02*
X6877500Y-14906500I-60000J0D01*
G01*
X6877500Y-14906500D02*
G75*
G02*
X6997500Y-14906500I60000J0D01*
G01*
D11*
X7363039Y-14997984D02*
X7248753Y-14997984D01*
X7305896Y-14997984D02*
X7305896Y-14797984D01*
X7305896Y-14797984D02*
X7286848Y-14826555D01*
X7286848Y-14826555D02*
X7267801Y-14845603D01*
X7267801Y-14845603D02*
X7248753Y-14855127D01*
X7448753Y-14978936D02*
X7458277Y-14988460D01*
X7458277Y-14988460D02*
X7448753Y-14997984D01*
X7448753Y-14997984D02*
X7439229Y-14988460D01*
X7439229Y-14988460D02*
X7448753Y-14978936D01*
X7448753Y-14978936D02*
X7448753Y-14997984D01*
X7534467Y-14817031D02*
X7543991Y-14807508D01*
X7543991Y-14807508D02*
X7563039Y-14797984D01*
X7563039Y-14797984D02*
X7610658Y-14797984D01*
X7610658Y-14797984D02*
X7629705Y-14807508D01*
X7629705Y-14807508D02*
X7639229Y-14817031D01*
X7639229Y-14817031D02*
X7648753Y-14836079D01*
X7648753Y-14836079D02*
X7648753Y-14855127D01*
X7648753Y-14855127D02*
X7639229Y-14883698D01*
X7639229Y-14883698D02*
X7524943Y-14997984D01*
X7524943Y-14997984D02*
X7648753Y-14997984D01*
X7772562Y-14797984D02*
X7791610Y-14797984D01*
X7791610Y-14797984D02*
X7810658Y-14807508D01*
X7810658Y-14807508D02*
X7820182Y-14817031D01*
X7820182Y-14817031D02*
X7829705Y-14836079D01*
X7829705Y-14836079D02*
X7839229Y-14874174D01*
X7839229Y-14874174D02*
X7839229Y-14921793D01*
X7839229Y-14921793D02*
X7829705Y-14959888D01*
X7829705Y-14959888D02*
X7820182Y-14978936D01*
X7820182Y-14978936D02*
X7810658Y-14988460D01*
X7810658Y-14988460D02*
X7791610Y-14997984D01*
X7791610Y-14997984D02*
X7772562Y-14997984D01*
X7772562Y-14997984D02*
X7753515Y-14988460D01*
X7753515Y-14988460D02*
X7743991Y-14978936D01*
X7743991Y-14978936D02*
X7734467Y-14959888D01*
X7734467Y-14959888D02*
X7724943Y-14921793D01*
X7724943Y-14921793D02*
X7724943Y-14874174D01*
X7724943Y-14874174D02*
X7734467Y-14836079D01*
X7734467Y-14836079D02*
X7743991Y-14817031D01*
X7743991Y-14817031D02*
X7753515Y-14807508D01*
X7753515Y-14807508D02*
X7772562Y-14797984D01*
X7963039Y-14797984D02*
X7982086Y-14797984D01*
X7982086Y-14797984D02*
X8001134Y-14807508D01*
X8001134Y-14807508D02*
X8010658Y-14817031D01*
X8010658Y-14817031D02*
X8020182Y-14836079D01*
X8020182Y-14836079D02*
X8029705Y-14874174D01*
X8029705Y-14874174D02*
X8029705Y-14921793D01*
X8029705Y-14921793D02*
X8020182Y-14959888D01*
X8020182Y-14959888D02*
X8010658Y-14978936D01*
X8010658Y-14978936D02*
X8001134Y-14988460D01*
X8001134Y-14988460D02*
X7982086Y-14997984D01*
X7982086Y-14997984D02*
X7963039Y-14997984D01*
X7963039Y-14997984D02*
X7943991Y-14988460D01*
X7943991Y-14988460D02*
X7934467Y-14978936D01*
X7934467Y-14978936D02*
X7924943Y-14959888D01*
X7924943Y-14959888D02*
X7915420Y-14921793D01*
X7915420Y-14921793D02*
X7915420Y-14874174D01*
X7915420Y-14874174D02*
X7924943Y-14836079D01*
X7924943Y-14836079D02*
X7934467Y-14817031D01*
X7934467Y-14817031D02*
X7943991Y-14807508D01*
X7943991Y-14807508D02*
X7963039Y-14797984D01*
X8115420Y-14997984D02*
X8115420Y-14864650D01*
X8115420Y-14883698D02*
X8124943Y-14874174D01*
X8124943Y-14874174D02*
X8143991Y-14864650D01*
X8143991Y-14864650D02*
X8172563Y-14864650D01*
X8172563Y-14864650D02*
X8191610Y-14874174D01*
X8191610Y-14874174D02*
X8201134Y-14893222D01*
X8201134Y-14893222D02*
X8201134Y-14997984D01*
X8201134Y-14893222D02*
X8210658Y-14874174D01*
X8210658Y-14874174D02*
X8229705Y-14864650D01*
X8229705Y-14864650D02*
X8258277Y-14864650D01*
X8258277Y-14864650D02*
X8277324Y-14874174D01*
X8277324Y-14874174D02*
X8286848Y-14893222D01*
X8286848Y-14893222D02*
X8286848Y-14997984D01*
X8382086Y-14997984D02*
X8382086Y-14864650D01*
X8382086Y-14883698D02*
X8391610Y-14874174D01*
X8391610Y-14874174D02*
X8410658Y-14864650D01*
X8410658Y-14864650D02*
X8439229Y-14864650D01*
X8439229Y-14864650D02*
X8458277Y-14874174D01*
X8458277Y-14874174D02*
X8467801Y-14893222D01*
X8467801Y-14893222D02*
X8467801Y-14997984D01*
X8467801Y-14893222D02*
X8477325Y-14874174D01*
X8477325Y-14874174D02*
X8496372Y-14864650D01*
X8496372Y-14864650D02*
X8524944Y-14864650D01*
X8524944Y-14864650D02*
X8543991Y-14874174D01*
X8543991Y-14874174D02*
X8553515Y-14893222D01*
X8553515Y-14893222D02*
X8553515Y-14997984D01*
X8943991Y-14788460D02*
X8772563Y-15045603D01*
X9201134Y-14797984D02*
X9220182Y-14797984D01*
X9220182Y-14797984D02*
X9239229Y-14807508D01*
X9239229Y-14807508D02*
X9248753Y-14817031D01*
X9248753Y-14817031D02*
X9258277Y-14836079D01*
X9258277Y-14836079D02*
X9267801Y-14874174D01*
X9267801Y-14874174D02*
X9267801Y-14921793D01*
X9267801Y-14921793D02*
X9258277Y-14959888D01*
X9258277Y-14959888D02*
X9248753Y-14978936D01*
X9248753Y-14978936D02*
X9239229Y-14988460D01*
X9239229Y-14988460D02*
X9220182Y-14997984D01*
X9220182Y-14997984D02*
X9201134Y-14997984D01*
X9201134Y-14997984D02*
X9182087Y-14988460D01*
X9182087Y-14988460D02*
X9172563Y-14978936D01*
X9172563Y-14978936D02*
X9163039Y-14959888D01*
X9163039Y-14959888D02*
X9153515Y-14921793D01*
X9153515Y-14921793D02*
X9153515Y-14874174D01*
X9153515Y-14874174D02*
X9163039Y-14836079D01*
X9163039Y-14836079D02*
X9172563Y-14817031D01*
X9172563Y-14817031D02*
X9182087Y-14807508D01*
X9182087Y-14807508D02*
X9201134Y-14797984D01*
X9353515Y-14978936D02*
X9363039Y-14988460D01*
X9363039Y-14988460D02*
X9353515Y-14997984D01*
X9353515Y-14997984D02*
X9343991Y-14988460D01*
X9343991Y-14988460D02*
X9353515Y-14978936D01*
X9353515Y-14978936D02*
X9353515Y-14997984D01*
X9486848Y-14797984D02*
X9505896Y-14797984D01*
X9505896Y-14797984D02*
X9524944Y-14807508D01*
X9524944Y-14807508D02*
X9534468Y-14817031D01*
X9534468Y-14817031D02*
X9543991Y-14836079D01*
X9543991Y-14836079D02*
X9553515Y-14874174D01*
X9553515Y-14874174D02*
X9553515Y-14921793D01*
X9553515Y-14921793D02*
X9543991Y-14959888D01*
X9543991Y-14959888D02*
X9534468Y-14978936D01*
X9534468Y-14978936D02*
X9524944Y-14988460D01*
X9524944Y-14988460D02*
X9505896Y-14997984D01*
X9505896Y-14997984D02*
X9486848Y-14997984D01*
X9486848Y-14997984D02*
X9467801Y-14988460D01*
X9467801Y-14988460D02*
X9458277Y-14978936D01*
X9458277Y-14978936D02*
X9448753Y-14959888D01*
X9448753Y-14959888D02*
X9439229Y-14921793D01*
X9439229Y-14921793D02*
X9439229Y-14874174D01*
X9439229Y-14874174D02*
X9448753Y-14836079D01*
X9448753Y-14836079D02*
X9458277Y-14817031D01*
X9458277Y-14817031D02*
X9467801Y-14807508D01*
X9467801Y-14807508D02*
X9486848Y-14797984D01*
X9724944Y-14864650D02*
X9724944Y-14997984D01*
X9677325Y-14788460D02*
X9629706Y-14931317D01*
X9629706Y-14931317D02*
X9753515Y-14931317D01*
X9810658Y-14797984D02*
X9943991Y-14797984D01*
X9943991Y-14797984D02*
X9858277Y-14997984D01*
X10010658Y-14817031D02*
X10020182Y-14807508D01*
X10020182Y-14807508D02*
X10039229Y-14797984D01*
X10039229Y-14797984D02*
X10086849Y-14797984D01*
X10086849Y-14797984D02*
X10105896Y-14807508D01*
X10105896Y-14807508D02*
X10115420Y-14817031D01*
X10115420Y-14817031D02*
X10124944Y-14836079D01*
X10124944Y-14836079D02*
X10124944Y-14855127D01*
X10124944Y-14855127D02*
X10115420Y-14883698D01*
X10115420Y-14883698D02*
X10001134Y-14997984D01*
X10001134Y-14997984D02*
X10124944Y-14997984D01*
X10201134Y-14797984D02*
X10201134Y-14836079D01*
X10277325Y-14797984D02*
X10277325Y-14836079D01*
X10572563Y-15074174D02*
X10563039Y-15064650D01*
X10563039Y-15064650D02*
X10543991Y-15036079D01*
X10543991Y-15036079D02*
X10534468Y-15017031D01*
X10534468Y-15017031D02*
X10524944Y-14988460D01*
X10524944Y-14988460D02*
X10515420Y-14940841D01*
X10515420Y-14940841D02*
X10515420Y-14902746D01*
X10515420Y-14902746D02*
X10524944Y-14855127D01*
X10524944Y-14855127D02*
X10534468Y-14826555D01*
X10534468Y-14826555D02*
X10543991Y-14807508D01*
X10543991Y-14807508D02*
X10563039Y-14778936D01*
X10563039Y-14778936D02*
X10572563Y-14769412D01*
X10639230Y-14817031D02*
X10648753Y-14807508D01*
X10648753Y-14807508D02*
X10667801Y-14797984D01*
X10667801Y-14797984D02*
X10715420Y-14797984D01*
X10715420Y-14797984D02*
X10734468Y-14807508D01*
X10734468Y-14807508D02*
X10743991Y-14817031D01*
X10743991Y-14817031D02*
X10753515Y-14836079D01*
X10753515Y-14836079D02*
X10753515Y-14855127D01*
X10753515Y-14855127D02*
X10743991Y-14883698D01*
X10743991Y-14883698D02*
X10629706Y-14997984D01*
X10629706Y-14997984D02*
X10753515Y-14997984D01*
X10991611Y-14997984D02*
X10991611Y-14797984D01*
X11077325Y-14997984D02*
X11077325Y-14893222D01*
X11077325Y-14893222D02*
X11067801Y-14874174D01*
X11067801Y-14874174D02*
X11048753Y-14864650D01*
X11048753Y-14864650D02*
X11020182Y-14864650D01*
X11020182Y-14864650D02*
X11001134Y-14874174D01*
X11001134Y-14874174D02*
X10991611Y-14883698D01*
X11201134Y-14997984D02*
X11182087Y-14988460D01*
X11182087Y-14988460D02*
X11172563Y-14978936D01*
X11172563Y-14978936D02*
X11163039Y-14959888D01*
X11163039Y-14959888D02*
X11163039Y-14902746D01*
X11163039Y-14902746D02*
X11172563Y-14883698D01*
X11172563Y-14883698D02*
X11182087Y-14874174D01*
X11182087Y-14874174D02*
X11201134Y-14864650D01*
X11201134Y-14864650D02*
X11229706Y-14864650D01*
X11229706Y-14864650D02*
X11248753Y-14874174D01*
X11248753Y-14874174D02*
X11258277Y-14883698D01*
X11258277Y-14883698D02*
X11267801Y-14902746D01*
X11267801Y-14902746D02*
X11267801Y-14959888D01*
X11267801Y-14959888D02*
X11258277Y-14978936D01*
X11258277Y-14978936D02*
X11248753Y-14988460D01*
X11248753Y-14988460D02*
X11229706Y-14997984D01*
X11229706Y-14997984D02*
X11201134Y-14997984D01*
X11382087Y-14997984D02*
X11363039Y-14988460D01*
X11363039Y-14988460D02*
X11353515Y-14969412D01*
X11353515Y-14969412D02*
X11353515Y-14797984D01*
X11534468Y-14988460D02*
X11515420Y-14997984D01*
X11515420Y-14997984D02*
X11477325Y-14997984D01*
X11477325Y-14997984D02*
X11458277Y-14988460D01*
X11458277Y-14988460D02*
X11448753Y-14969412D01*
X11448753Y-14969412D02*
X11448753Y-14893222D01*
X11448753Y-14893222D02*
X11458277Y-14874174D01*
X11458277Y-14874174D02*
X11477325Y-14864650D01*
X11477325Y-14864650D02*
X11515420Y-14864650D01*
X11515420Y-14864650D02*
X11534468Y-14874174D01*
X11534468Y-14874174D02*
X11543991Y-14893222D01*
X11543991Y-14893222D02*
X11543991Y-14912269D01*
X11543991Y-14912269D02*
X11448753Y-14931317D01*
X11620182Y-14988460D02*
X11639230Y-14997984D01*
X11639230Y-14997984D02*
X11677325Y-14997984D01*
X11677325Y-14997984D02*
X11696372Y-14988460D01*
X11696372Y-14988460D02*
X11705896Y-14969412D01*
X11705896Y-14969412D02*
X11705896Y-14959888D01*
X11705896Y-14959888D02*
X11696372Y-14940841D01*
X11696372Y-14940841D02*
X11677325Y-14931317D01*
X11677325Y-14931317D02*
X11648753Y-14931317D01*
X11648753Y-14931317D02*
X11629706Y-14921793D01*
X11629706Y-14921793D02*
X11620182Y-14902746D01*
X11620182Y-14902746D02*
X11620182Y-14893222D01*
X11620182Y-14893222D02*
X11629706Y-14874174D01*
X11629706Y-14874174D02*
X11648753Y-14864650D01*
X11648753Y-14864650D02*
X11677325Y-14864650D01*
X11677325Y-14864650D02*
X11696372Y-14874174D01*
X11772563Y-15074174D02*
X11782087Y-15064650D01*
X11782087Y-15064650D02*
X11801134Y-15036079D01*
X11801134Y-15036079D02*
X11810658Y-15017031D01*
X11810658Y-15017031D02*
X11820182Y-14988460D01*
X11820182Y-14988460D02*
X11829706Y-14940841D01*
X11829706Y-14940841D02*
X11829706Y-14902746D01*
X11829706Y-14902746D02*
X11820182Y-14855127D01*
X11820182Y-14855127D02*
X11810658Y-14826555D01*
X11810658Y-14826555D02*
X11801134Y-14807508D01*
X11801134Y-14807508D02*
X11782087Y-14778936D01*
X11782087Y-14778936D02*
X11772563Y-14769412D01*
X12134468Y-15074174D02*
X12124944Y-15064650D01*
X12124944Y-15064650D02*
X12105896Y-15036079D01*
X12105896Y-15036079D02*
X12096372Y-15017031D01*
X12096372Y-15017031D02*
X12086849Y-14988460D01*
X12086849Y-14988460D02*
X12077325Y-14940841D01*
X12077325Y-14940841D02*
X12077325Y-14902746D01*
X12077325Y-14902746D02*
X12086849Y-14855127D01*
X12086849Y-14855127D02*
X12096372Y-14826555D01*
X12096372Y-14826555D02*
X12105896Y-14807508D01*
X12105896Y-14807508D02*
X12124944Y-14778936D01*
X12124944Y-14778936D02*
X12134468Y-14769412D01*
X12210658Y-14864650D02*
X12210658Y-14997984D01*
X12210658Y-14883698D02*
X12220182Y-14874174D01*
X12220182Y-14874174D02*
X12239230Y-14864650D01*
X12239230Y-14864650D02*
X12267801Y-14864650D01*
X12267801Y-14864650D02*
X12286849Y-14874174D01*
X12286849Y-14874174D02*
X12296372Y-14893222D01*
X12296372Y-14893222D02*
X12296372Y-14997984D01*
X12420182Y-14997984D02*
X12401134Y-14988460D01*
X12401134Y-14988460D02*
X12391611Y-14978936D01*
X12391611Y-14978936D02*
X12382087Y-14959888D01*
X12382087Y-14959888D02*
X12382087Y-14902746D01*
X12382087Y-14902746D02*
X12391611Y-14883698D01*
X12391611Y-14883698D02*
X12401134Y-14874174D01*
X12401134Y-14874174D02*
X12420182Y-14864650D01*
X12420182Y-14864650D02*
X12448753Y-14864650D01*
X12448753Y-14864650D02*
X12467801Y-14874174D01*
X12467801Y-14874174D02*
X12477325Y-14883698D01*
X12477325Y-14883698D02*
X12486849Y-14902746D01*
X12486849Y-14902746D02*
X12486849Y-14959888D01*
X12486849Y-14959888D02*
X12477325Y-14978936D01*
X12477325Y-14978936D02*
X12467801Y-14988460D01*
X12467801Y-14988460D02*
X12448753Y-14997984D01*
X12448753Y-14997984D02*
X12420182Y-14997984D01*
X12543992Y-14864650D02*
X12620182Y-14864650D01*
X12572563Y-14797984D02*
X12572563Y-14969412D01*
X12572563Y-14969412D02*
X12582087Y-14988460D01*
X12582087Y-14988460D02*
X12601134Y-14997984D01*
X12601134Y-14997984D02*
X12620182Y-14997984D01*
X12839230Y-14864650D02*
X12839230Y-15064650D01*
X12839230Y-14874174D02*
X12858277Y-14864650D01*
X12858277Y-14864650D02*
X12896373Y-14864650D01*
X12896373Y-14864650D02*
X12915420Y-14874174D01*
X12915420Y-14874174D02*
X12924944Y-14883698D01*
X12924944Y-14883698D02*
X12934468Y-14902746D01*
X12934468Y-14902746D02*
X12934468Y-14959888D01*
X12934468Y-14959888D02*
X12924944Y-14978936D01*
X12924944Y-14978936D02*
X12915420Y-14988460D01*
X12915420Y-14988460D02*
X12896373Y-14997984D01*
X12896373Y-14997984D02*
X12858277Y-14997984D01*
X12858277Y-14997984D02*
X12839230Y-14988460D01*
X13048753Y-14997984D02*
X13029706Y-14988460D01*
X13029706Y-14988460D02*
X13020182Y-14969412D01*
X13020182Y-14969412D02*
X13020182Y-14797984D01*
X13210658Y-14997984D02*
X13210658Y-14893222D01*
X13210658Y-14893222D02*
X13201134Y-14874174D01*
X13201134Y-14874174D02*
X13182087Y-14864650D01*
X13182087Y-14864650D02*
X13143992Y-14864650D01*
X13143992Y-14864650D02*
X13124944Y-14874174D01*
X13210658Y-14988460D02*
X13191611Y-14997984D01*
X13191611Y-14997984D02*
X13143992Y-14997984D01*
X13143992Y-14997984D02*
X13124944Y-14988460D01*
X13124944Y-14988460D02*
X13115420Y-14969412D01*
X13115420Y-14969412D02*
X13115420Y-14950365D01*
X13115420Y-14950365D02*
X13124944Y-14931317D01*
X13124944Y-14931317D02*
X13143992Y-14921793D01*
X13143992Y-14921793D02*
X13191611Y-14921793D01*
X13191611Y-14921793D02*
X13210658Y-14912269D01*
X13277325Y-14864650D02*
X13353515Y-14864650D01*
X13305896Y-14797984D02*
X13305896Y-14969412D01*
X13305896Y-14969412D02*
X13315420Y-14988460D01*
X13315420Y-14988460D02*
X13334468Y-14997984D01*
X13334468Y-14997984D02*
X13353515Y-14997984D01*
X13496373Y-14988460D02*
X13477325Y-14997984D01*
X13477325Y-14997984D02*
X13439230Y-14997984D01*
X13439230Y-14997984D02*
X13420182Y-14988460D01*
X13420182Y-14988460D02*
X13410658Y-14969412D01*
X13410658Y-14969412D02*
X13410658Y-14893222D01*
X13410658Y-14893222D02*
X13420182Y-14874174D01*
X13420182Y-14874174D02*
X13439230Y-14864650D01*
X13439230Y-14864650D02*
X13477325Y-14864650D01*
X13477325Y-14864650D02*
X13496373Y-14874174D01*
X13496373Y-14874174D02*
X13505896Y-14893222D01*
X13505896Y-14893222D02*
X13505896Y-14912269D01*
X13505896Y-14912269D02*
X13410658Y-14931317D01*
X13677325Y-14997984D02*
X13677325Y-14797984D01*
X13677325Y-14988460D02*
X13658277Y-14997984D01*
X13658277Y-14997984D02*
X13620182Y-14997984D01*
X13620182Y-14997984D02*
X13601134Y-14988460D01*
X13601134Y-14988460D02*
X13591611Y-14978936D01*
X13591611Y-14978936D02*
X13582087Y-14959888D01*
X13582087Y-14959888D02*
X13582087Y-14902746D01*
X13582087Y-14902746D02*
X13591611Y-14883698D01*
X13591611Y-14883698D02*
X13601134Y-14874174D01*
X13601134Y-14874174D02*
X13620182Y-14864650D01*
X13620182Y-14864650D02*
X13658277Y-14864650D01*
X13658277Y-14864650D02*
X13677325Y-14874174D01*
X13753515Y-15074174D02*
X13763039Y-15064650D01*
X13763039Y-15064650D02*
X13782087Y-15036079D01*
X13782087Y-15036079D02*
X13791611Y-15017031D01*
X13791611Y-15017031D02*
X13801134Y-14988460D01*
X13801134Y-14988460D02*
X13810658Y-14940841D01*
X13810658Y-14940841D02*
X13810658Y-14902746D01*
X13810658Y-14902746D02*
X13801134Y-14855127D01*
X13801134Y-14855127D02*
X13791611Y-14826555D01*
X13791611Y-14826555D02*
X13782087Y-14807508D01*
X13782087Y-14807508D02*
X13763039Y-14778936D01*
X13763039Y-14778936D02*
X13753515Y-14769412D01*
D14*
X6925000Y-15098000D02*
X6925000Y-15243000D01*
X6852500Y-15170500D02*
X6997500Y-15170500D01*
D11*
X7363039Y-15261984D02*
X7248753Y-15261984D01*
X7305896Y-15261984D02*
X7305896Y-15061984D01*
X7305896Y-15061984D02*
X7286848Y-15090555D01*
X7286848Y-15090555D02*
X7267801Y-15109603D01*
X7267801Y-15109603D02*
X7248753Y-15119127D01*
X7448753Y-15242936D02*
X7458277Y-15252460D01*
X7458277Y-15252460D02*
X7448753Y-15261984D01*
X7448753Y-15261984D02*
X7439229Y-15252460D01*
X7439229Y-15252460D02*
X7448753Y-15242936D01*
X7448753Y-15242936D02*
X7448753Y-15261984D01*
X7629705Y-15128650D02*
X7629705Y-15261984D01*
X7582086Y-15052460D02*
X7534467Y-15195317D01*
X7534467Y-15195317D02*
X7658277Y-15195317D01*
X7829705Y-15061984D02*
X7734467Y-15061984D01*
X7734467Y-15061984D02*
X7724943Y-15157222D01*
X7724943Y-15157222D02*
X7734467Y-15147698D01*
X7734467Y-15147698D02*
X7753515Y-15138174D01*
X7753515Y-15138174D02*
X7801134Y-15138174D01*
X7801134Y-15138174D02*
X7820182Y-15147698D01*
X7820182Y-15147698D02*
X7829705Y-15157222D01*
X7829705Y-15157222D02*
X7839229Y-15176269D01*
X7839229Y-15176269D02*
X7839229Y-15223888D01*
X7839229Y-15223888D02*
X7829705Y-15242936D01*
X7829705Y-15242936D02*
X7820182Y-15252460D01*
X7820182Y-15252460D02*
X7801134Y-15261984D01*
X7801134Y-15261984D02*
X7753515Y-15261984D01*
X7753515Y-15261984D02*
X7734467Y-15252460D01*
X7734467Y-15252460D02*
X7724943Y-15242936D01*
X7963039Y-15061984D02*
X7982086Y-15061984D01*
X7982086Y-15061984D02*
X8001134Y-15071508D01*
X8001134Y-15071508D02*
X8010658Y-15081031D01*
X8010658Y-15081031D02*
X8020182Y-15100079D01*
X8020182Y-15100079D02*
X8029705Y-15138174D01*
X8029705Y-15138174D02*
X8029705Y-15185793D01*
X8029705Y-15185793D02*
X8020182Y-15223888D01*
X8020182Y-15223888D02*
X8010658Y-15242936D01*
X8010658Y-15242936D02*
X8001134Y-15252460D01*
X8001134Y-15252460D02*
X7982086Y-15261984D01*
X7982086Y-15261984D02*
X7963039Y-15261984D01*
X7963039Y-15261984D02*
X7943991Y-15252460D01*
X7943991Y-15252460D02*
X7934467Y-15242936D01*
X7934467Y-15242936D02*
X7924943Y-15223888D01*
X7924943Y-15223888D02*
X7915420Y-15185793D01*
X7915420Y-15185793D02*
X7915420Y-15138174D01*
X7915420Y-15138174D02*
X7924943Y-15100079D01*
X7924943Y-15100079D02*
X7934467Y-15081031D01*
X7934467Y-15081031D02*
X7943991Y-15071508D01*
X7943991Y-15071508D02*
X7963039Y-15061984D01*
X8115420Y-15261984D02*
X8115420Y-15128650D01*
X8115420Y-15147698D02*
X8124943Y-15138174D01*
X8124943Y-15138174D02*
X8143991Y-15128650D01*
X8143991Y-15128650D02*
X8172563Y-15128650D01*
X8172563Y-15128650D02*
X8191610Y-15138174D01*
X8191610Y-15138174D02*
X8201134Y-15157222D01*
X8201134Y-15157222D02*
X8201134Y-15261984D01*
X8201134Y-15157222D02*
X8210658Y-15138174D01*
X8210658Y-15138174D02*
X8229705Y-15128650D01*
X8229705Y-15128650D02*
X8258277Y-15128650D01*
X8258277Y-15128650D02*
X8277324Y-15138174D01*
X8277324Y-15138174D02*
X8286848Y-15157222D01*
X8286848Y-15157222D02*
X8286848Y-15261984D01*
X8382086Y-15261984D02*
X8382086Y-15128650D01*
X8382086Y-15147698D02*
X8391610Y-15138174D01*
X8391610Y-15138174D02*
X8410658Y-15128650D01*
X8410658Y-15128650D02*
X8439229Y-15128650D01*
X8439229Y-15128650D02*
X8458277Y-15138174D01*
X8458277Y-15138174D02*
X8467801Y-15157222D01*
X8467801Y-15157222D02*
X8467801Y-15261984D01*
X8467801Y-15157222D02*
X8477325Y-15138174D01*
X8477325Y-15138174D02*
X8496372Y-15128650D01*
X8496372Y-15128650D02*
X8524944Y-15128650D01*
X8524944Y-15128650D02*
X8543991Y-15138174D01*
X8543991Y-15138174D02*
X8553515Y-15157222D01*
X8553515Y-15157222D02*
X8553515Y-15261984D01*
X8943991Y-15052460D02*
X8772563Y-15309603D01*
X9201134Y-15061984D02*
X9220182Y-15061984D01*
X9220182Y-15061984D02*
X9239229Y-15071508D01*
X9239229Y-15071508D02*
X9248753Y-15081031D01*
X9248753Y-15081031D02*
X9258277Y-15100079D01*
X9258277Y-15100079D02*
X9267801Y-15138174D01*
X9267801Y-15138174D02*
X9267801Y-15185793D01*
X9267801Y-15185793D02*
X9258277Y-15223888D01*
X9258277Y-15223888D02*
X9248753Y-15242936D01*
X9248753Y-15242936D02*
X9239229Y-15252460D01*
X9239229Y-15252460D02*
X9220182Y-15261984D01*
X9220182Y-15261984D02*
X9201134Y-15261984D01*
X9201134Y-15261984D02*
X9182087Y-15252460D01*
X9182087Y-15252460D02*
X9172563Y-15242936D01*
X9172563Y-15242936D02*
X9163039Y-15223888D01*
X9163039Y-15223888D02*
X9153515Y-15185793D01*
X9153515Y-15185793D02*
X9153515Y-15138174D01*
X9153515Y-15138174D02*
X9163039Y-15100079D01*
X9163039Y-15100079D02*
X9172563Y-15081031D01*
X9172563Y-15081031D02*
X9182087Y-15071508D01*
X9182087Y-15071508D02*
X9201134Y-15061984D01*
X9353515Y-15242936D02*
X9363039Y-15252460D01*
X9363039Y-15252460D02*
X9353515Y-15261984D01*
X9353515Y-15261984D02*
X9343991Y-15252460D01*
X9343991Y-15252460D02*
X9353515Y-15242936D01*
X9353515Y-15242936D02*
X9353515Y-15261984D01*
X9486848Y-15061984D02*
X9505896Y-15061984D01*
X9505896Y-15061984D02*
X9524944Y-15071508D01*
X9524944Y-15071508D02*
X9534468Y-15081031D01*
X9534468Y-15081031D02*
X9543991Y-15100079D01*
X9543991Y-15100079D02*
X9553515Y-15138174D01*
X9553515Y-15138174D02*
X9553515Y-15185793D01*
X9553515Y-15185793D02*
X9543991Y-15223888D01*
X9543991Y-15223888D02*
X9534468Y-15242936D01*
X9534468Y-15242936D02*
X9524944Y-15252460D01*
X9524944Y-15252460D02*
X9505896Y-15261984D01*
X9505896Y-15261984D02*
X9486848Y-15261984D01*
X9486848Y-15261984D02*
X9467801Y-15252460D01*
X9467801Y-15252460D02*
X9458277Y-15242936D01*
X9458277Y-15242936D02*
X9448753Y-15223888D01*
X9448753Y-15223888D02*
X9439229Y-15185793D01*
X9439229Y-15185793D02*
X9439229Y-15138174D01*
X9439229Y-15138174D02*
X9448753Y-15100079D01*
X9448753Y-15100079D02*
X9458277Y-15081031D01*
X9458277Y-15081031D02*
X9467801Y-15071508D01*
X9467801Y-15071508D02*
X9486848Y-15061984D01*
X9734468Y-15061984D02*
X9639229Y-15061984D01*
X9639229Y-15061984D02*
X9629706Y-15157222D01*
X9629706Y-15157222D02*
X9639229Y-15147698D01*
X9639229Y-15147698D02*
X9658277Y-15138174D01*
X9658277Y-15138174D02*
X9705896Y-15138174D01*
X9705896Y-15138174D02*
X9724944Y-15147698D01*
X9724944Y-15147698D02*
X9734468Y-15157222D01*
X9734468Y-15157222D02*
X9743991Y-15176269D01*
X9743991Y-15176269D02*
X9743991Y-15223888D01*
X9743991Y-15223888D02*
X9734468Y-15242936D01*
X9734468Y-15242936D02*
X9724944Y-15252460D01*
X9724944Y-15252460D02*
X9705896Y-15261984D01*
X9705896Y-15261984D02*
X9658277Y-15261984D01*
X9658277Y-15261984D02*
X9639229Y-15252460D01*
X9639229Y-15252460D02*
X9629706Y-15242936D01*
X9810658Y-15061984D02*
X9943991Y-15061984D01*
X9943991Y-15061984D02*
X9858277Y-15261984D01*
X10124944Y-15261984D02*
X10010658Y-15261984D01*
X10067801Y-15261984D02*
X10067801Y-15061984D01*
X10067801Y-15061984D02*
X10048753Y-15090555D01*
X10048753Y-15090555D02*
X10029706Y-15109603D01*
X10029706Y-15109603D02*
X10010658Y-15119127D01*
X10201134Y-15061984D02*
X10201134Y-15100079D01*
X10277325Y-15061984D02*
X10277325Y-15100079D01*
X10572563Y-15338174D02*
X10563039Y-15328650D01*
X10563039Y-15328650D02*
X10543991Y-15300079D01*
X10543991Y-15300079D02*
X10534468Y-15281031D01*
X10534468Y-15281031D02*
X10524944Y-15252460D01*
X10524944Y-15252460D02*
X10515420Y-15204841D01*
X10515420Y-15204841D02*
X10515420Y-15166746D01*
X10515420Y-15166746D02*
X10524944Y-15119127D01*
X10524944Y-15119127D02*
X10534468Y-15090555D01*
X10534468Y-15090555D02*
X10543991Y-15071508D01*
X10543991Y-15071508D02*
X10563039Y-15042936D01*
X10563039Y-15042936D02*
X10572563Y-15033412D01*
X10753515Y-15261984D02*
X10639230Y-15261984D01*
X10696372Y-15261984D02*
X10696372Y-15061984D01*
X10696372Y-15061984D02*
X10677325Y-15090555D01*
X10677325Y-15090555D02*
X10658277Y-15109603D01*
X10658277Y-15109603D02*
X10639230Y-15119127D01*
X10991611Y-15261984D02*
X10991611Y-15061984D01*
X11077325Y-15261984D02*
X11077325Y-15157222D01*
X11077325Y-15157222D02*
X11067801Y-15138174D01*
X11067801Y-15138174D02*
X11048753Y-15128650D01*
X11048753Y-15128650D02*
X11020182Y-15128650D01*
X11020182Y-15128650D02*
X11001134Y-15138174D01*
X11001134Y-15138174D02*
X10991611Y-15147698D01*
X11201134Y-15261984D02*
X11182087Y-15252460D01*
X11182087Y-15252460D02*
X11172563Y-15242936D01*
X11172563Y-15242936D02*
X11163039Y-15223888D01*
X11163039Y-15223888D02*
X11163039Y-15166746D01*
X11163039Y-15166746D02*
X11172563Y-15147698D01*
X11172563Y-15147698D02*
X11182087Y-15138174D01*
X11182087Y-15138174D02*
X11201134Y-15128650D01*
X11201134Y-15128650D02*
X11229706Y-15128650D01*
X11229706Y-15128650D02*
X11248753Y-15138174D01*
X11248753Y-15138174D02*
X11258277Y-15147698D01*
X11258277Y-15147698D02*
X11267801Y-15166746D01*
X11267801Y-15166746D02*
X11267801Y-15223888D01*
X11267801Y-15223888D02*
X11258277Y-15242936D01*
X11258277Y-15242936D02*
X11248753Y-15252460D01*
X11248753Y-15252460D02*
X11229706Y-15261984D01*
X11229706Y-15261984D02*
X11201134Y-15261984D01*
X11382087Y-15261984D02*
X11363039Y-15252460D01*
X11363039Y-15252460D02*
X11353515Y-15233412D01*
X11353515Y-15233412D02*
X11353515Y-15061984D01*
X11534468Y-15252460D02*
X11515420Y-15261984D01*
X11515420Y-15261984D02*
X11477325Y-15261984D01*
X11477325Y-15261984D02*
X11458277Y-15252460D01*
X11458277Y-15252460D02*
X11448753Y-15233412D01*
X11448753Y-15233412D02*
X11448753Y-15157222D01*
X11448753Y-15157222D02*
X11458277Y-15138174D01*
X11458277Y-15138174D02*
X11477325Y-15128650D01*
X11477325Y-15128650D02*
X11515420Y-15128650D01*
X11515420Y-15128650D02*
X11534468Y-15138174D01*
X11534468Y-15138174D02*
X11543991Y-15157222D01*
X11543991Y-15157222D02*
X11543991Y-15176269D01*
X11543991Y-15176269D02*
X11448753Y-15195317D01*
X11610658Y-15338174D02*
X11620182Y-15328650D01*
X11620182Y-15328650D02*
X11639230Y-15300079D01*
X11639230Y-15300079D02*
X11648753Y-15281031D01*
X11648753Y-15281031D02*
X11658277Y-15252460D01*
X11658277Y-15252460D02*
X11667801Y-15204841D01*
X11667801Y-15204841D02*
X11667801Y-15166746D01*
X11667801Y-15166746D02*
X11658277Y-15119127D01*
X11658277Y-15119127D02*
X11648753Y-15090555D01*
X11648753Y-15090555D02*
X11639230Y-15071508D01*
X11639230Y-15071508D02*
X11620182Y-15042936D01*
X11620182Y-15042936D02*
X11610658Y-15033412D01*
X11972563Y-15338174D02*
X11963039Y-15328650D01*
X11963039Y-15328650D02*
X11943991Y-15300079D01*
X11943991Y-15300079D02*
X11934468Y-15281031D01*
X11934468Y-15281031D02*
X11924944Y-15252460D01*
X11924944Y-15252460D02*
X11915420Y-15204841D01*
X11915420Y-15204841D02*
X11915420Y-15166746D01*
X11915420Y-15166746D02*
X11924944Y-15119127D01*
X11924944Y-15119127D02*
X11934468Y-15090555D01*
X11934468Y-15090555D02*
X11943991Y-15071508D01*
X11943991Y-15071508D02*
X11963039Y-15042936D01*
X11963039Y-15042936D02*
X11972563Y-15033412D01*
X12048753Y-15128650D02*
X12048753Y-15261984D01*
X12048753Y-15147698D02*
X12058277Y-15138174D01*
X12058277Y-15138174D02*
X12077325Y-15128650D01*
X12077325Y-15128650D02*
X12105896Y-15128650D01*
X12105896Y-15128650D02*
X12124944Y-15138174D01*
X12124944Y-15138174D02*
X12134468Y-15157222D01*
X12134468Y-15157222D02*
X12134468Y-15261984D01*
X12258277Y-15261984D02*
X12239230Y-15252460D01*
X12239230Y-15252460D02*
X12229706Y-15242936D01*
X12229706Y-15242936D02*
X12220182Y-15223888D01*
X12220182Y-15223888D02*
X12220182Y-15166746D01*
X12220182Y-15166746D02*
X12229706Y-15147698D01*
X12229706Y-15147698D02*
X12239230Y-15138174D01*
X12239230Y-15138174D02*
X12258277Y-15128650D01*
X12258277Y-15128650D02*
X12286849Y-15128650D01*
X12286849Y-15128650D02*
X12305896Y-15138174D01*
X12305896Y-15138174D02*
X12315420Y-15147698D01*
X12315420Y-15147698D02*
X12324944Y-15166746D01*
X12324944Y-15166746D02*
X12324944Y-15223888D01*
X12324944Y-15223888D02*
X12315420Y-15242936D01*
X12315420Y-15242936D02*
X12305896Y-15252460D01*
X12305896Y-15252460D02*
X12286849Y-15261984D01*
X12286849Y-15261984D02*
X12258277Y-15261984D01*
X12382087Y-15128650D02*
X12458277Y-15128650D01*
X12410658Y-15061984D02*
X12410658Y-15233412D01*
X12410658Y-15233412D02*
X12420182Y-15252460D01*
X12420182Y-15252460D02*
X12439230Y-15261984D01*
X12439230Y-15261984D02*
X12458277Y-15261984D01*
X12677325Y-15128650D02*
X12677325Y-15328650D01*
X12677325Y-15138174D02*
X12696372Y-15128650D01*
X12696372Y-15128650D02*
X12734468Y-15128650D01*
X12734468Y-15128650D02*
X12753515Y-15138174D01*
X12753515Y-15138174D02*
X12763039Y-15147698D01*
X12763039Y-15147698D02*
X12772563Y-15166746D01*
X12772563Y-15166746D02*
X12772563Y-15223888D01*
X12772563Y-15223888D02*
X12763039Y-15242936D01*
X12763039Y-15242936D02*
X12753515Y-15252460D01*
X12753515Y-15252460D02*
X12734468Y-15261984D01*
X12734468Y-15261984D02*
X12696372Y-15261984D01*
X12696372Y-15261984D02*
X12677325Y-15252460D01*
X12886849Y-15261984D02*
X12867801Y-15252460D01*
X12867801Y-15252460D02*
X12858277Y-15233412D01*
X12858277Y-15233412D02*
X12858277Y-15061984D01*
X13048753Y-15261984D02*
X13048753Y-15157222D01*
X13048753Y-15157222D02*
X13039230Y-15138174D01*
X13039230Y-15138174D02*
X13020182Y-15128650D01*
X13020182Y-15128650D02*
X12982087Y-15128650D01*
X12982087Y-15128650D02*
X12963039Y-15138174D01*
X13048753Y-15252460D02*
X13029706Y-15261984D01*
X13029706Y-15261984D02*
X12982087Y-15261984D01*
X12982087Y-15261984D02*
X12963039Y-15252460D01*
X12963039Y-15252460D02*
X12953515Y-15233412D01*
X12953515Y-15233412D02*
X12953515Y-15214365D01*
X12953515Y-15214365D02*
X12963039Y-15195317D01*
X12963039Y-15195317D02*
X12982087Y-15185793D01*
X12982087Y-15185793D02*
X13029706Y-15185793D01*
X13029706Y-15185793D02*
X13048753Y-15176269D01*
X13115420Y-15128650D02*
X13191611Y-15128650D01*
X13143992Y-15061984D02*
X13143992Y-15233412D01*
X13143992Y-15233412D02*
X13153515Y-15252460D01*
X13153515Y-15252460D02*
X13172563Y-15261984D01*
X13172563Y-15261984D02*
X13191611Y-15261984D01*
X13334468Y-15252460D02*
X13315420Y-15261984D01*
X13315420Y-15261984D02*
X13277325Y-15261984D01*
X13277325Y-15261984D02*
X13258277Y-15252460D01*
X13258277Y-15252460D02*
X13248753Y-15233412D01*
X13248753Y-15233412D02*
X13248753Y-15157222D01*
X13248753Y-15157222D02*
X13258277Y-15138174D01*
X13258277Y-15138174D02*
X13277325Y-15128650D01*
X13277325Y-15128650D02*
X13315420Y-15128650D01*
X13315420Y-15128650D02*
X13334468Y-15138174D01*
X13334468Y-15138174D02*
X13343992Y-15157222D01*
X13343992Y-15157222D02*
X13343992Y-15176269D01*
X13343992Y-15176269D02*
X13248753Y-15195317D01*
X13515420Y-15261984D02*
X13515420Y-15061984D01*
X13515420Y-15252460D02*
X13496373Y-15261984D01*
X13496373Y-15261984D02*
X13458277Y-15261984D01*
X13458277Y-15261984D02*
X13439230Y-15252460D01*
X13439230Y-15252460D02*
X13429706Y-15242936D01*
X13429706Y-15242936D02*
X13420182Y-15223888D01*
X13420182Y-15223888D02*
X13420182Y-15166746D01*
X13420182Y-15166746D02*
X13429706Y-15147698D01*
X13429706Y-15147698D02*
X13439230Y-15138174D01*
X13439230Y-15138174D02*
X13458277Y-15128650D01*
X13458277Y-15128650D02*
X13496373Y-15128650D01*
X13496373Y-15128650D02*
X13515420Y-15138174D01*
X13591611Y-15338174D02*
X13601134Y-15328650D01*
X13601134Y-15328650D02*
X13620182Y-15300079D01*
X13620182Y-15300079D02*
X13629706Y-15281031D01*
X13629706Y-15281031D02*
X13639230Y-15252460D01*
X13639230Y-15252460D02*
X13648753Y-15204841D01*
X13648753Y-15204841D02*
X13648753Y-15166746D01*
X13648753Y-15166746D02*
X13639230Y-15119127D01*
X13639230Y-15119127D02*
X13629706Y-15090555D01*
X13629706Y-15090555D02*
X13620182Y-15071508D01*
X13620182Y-15071508D02*
X13601134Y-15042936D01*
X13601134Y-15042936D02*
X13591611Y-15033412D01*
M02*
