M48
; DRILL file {KiCad 9.0.1} date 2025-05-09T16:55:24+0200
; FORMAT={-:-/ absolute / metric / decimal}
; #@! TF.CreationDate,2025-05-09T16:55:24+02:00
; #@! TF.GenerationSoftware,Kicad,Pcbnew,9.0.1
; #@! TF.FileFunction,Plated,1,4,PTH
FMAT,2
METRIC
; #@! TA.AperFunction,Plated,PTH,ViaDrill
T1C0.300
; #@! TA.AperFunction,Plated,PTH,ComponentDrill
T2C0.500
; #@! TA.AperFunction,Plated,PTH,ComponentDrill
T3C1.000
; #@! TA.AperFunction,Plated,PTH,ComponentDrill
T4C1.020
; #@! TA.AperFunction,Plated,PTH,ComponentDrill
T5C1.300
; #@! TA.AperFunction,Plated,PTH,ComponentDrill
T6C1.700
; #@! TA.AperFunction,Plated,PTH,ComponentDrill
T7C3.200
%
G90
G05
T1
X73.7Y-88.4
X75.0Y-127.1
X75.662Y-96.678
X76.25Y-128.3
X76.7Y-83.9
X76.8Y-80.0
X80.1Y-82.05
X80.291Y-100.622
X80.8Y-96.5
X81.3Y-87.1
X82.94Y-82.85
X83.0Y-111.1
X83.15Y-103.95
X84.5Y-109.9
X85.945Y-85.408
X85.972Y-83.589
X86.1Y-111.1
X86.373Y-91.147
X86.373Y-101.047
X86.775Y-108.075
X86.9Y-122.0
X88.55Y-130.7
X89.0Y-135.7
X89.388Y-106.637
X89.481Y-85.55
X91.15Y-128.1
X91.15Y-133.2
X91.4Y-124.7
X91.6Y-81.55
X91.725Y-106.775
X92.15Y-97.975
X92.5Y-73.1
X92.95Y-114.55
X93.1Y-79.9
X94.1Y-117.1
X94.5Y-71.8
X94.5Y-74.4
X94.8Y-98.2
X95.8Y-73.1
X95.85Y-98.25
X95.9Y-79.8
X96.35Y-118.55
X96.95Y-98.2
X97.31Y-84.8
X97.95Y-98.15
X98.625Y-87.0
X98.95Y-98.25
X99.1Y-112.95
X100.975Y-90.04
X101.0Y-110.503
X101.1Y-116.3
X101.2Y-122.1
X101.85Y-106.125
X102.337Y-98.687
X102.34Y-89.75
X102.435Y-109.5
X102.75Y-83.45
X103.05Y-130.8
X103.2Y-116.5
X103.5Y-112.2
X104.2Y-81.55
X104.7Y-91.0
X105.2Y-128.5
X105.2Y-133.25
X105.335Y-104.19
X105.7Y-124.75
X106.05Y-98.2
X106.535Y-106.39
X106.85Y-114.35
X107.435Y-89.9
X107.8Y-111.7
X107.95Y-93.3
X108.177Y-109.123
X108.36Y-89.935
X108.935Y-105.34
X108.985Y-103.44
X109.135Y-101.49
X110.035Y-101.49
X110.25Y-89.4
X110.4Y-118.65
X111.4Y-93.7
X111.635Y-106.09
X111.7Y-111.7
X114.035Y-107.29
X114.135Y-101.49
X114.24Y-86.51
X114.4Y-116.755
X114.65Y-112.95
X114.9Y-110.9
X115.1Y-114.9
X115.9Y-122.3
X116.25Y-85.1
X116.69Y-109.42
X116.7Y-116.4
X116.935Y-95.99
X117.4Y-131.1
X117.8Y-89.37
X118.0Y-91.48
X118.8Y-82.41
X119.55Y-95.8
X119.6Y-128.55
X119.6Y-133.25
X119.8Y-79.75
X120.03Y-124.53
X120.2Y-93.7
X120.65Y-99.9
X121.25Y-114.6
X122.1Y-80.0
X122.4Y-76.1
X122.475Y-117.825
X122.8Y-109.8
X123.1Y-79.0
X123.4Y-76.1
X123.9Y-135.7
X124.2Y-77.15
X124.225Y-103.2
X124.25Y-78.9
X124.7Y-118.85
X125.036Y-96.241
X125.036Y-97.841
X125.436Y-91.941
X125.45Y-73.85
X125.975Y-111.9
X126.1Y-105.95
X126.38Y-101.79
X127.103Y-110.503
X127.735Y-94.69
X128.362Y-133.237
X129.35Y-86.6
X129.95Y-130.4
X130.0Y-76.5
X130.236Y-95.241
X130.236Y-98.841
X130.3Y-105.2
X132.4Y-78.65
X132.6Y-84.25
X132.7Y-125.3
X132.85Y-82.583
X133.2Y-107.2
X133.236Y-96.541
X133.4Y-121.1
X134.536Y-97.241
X135.6Y-82.4
X135.7Y-79.3
X136.0Y-110.3
X136.0Y-114.6
X136.736Y-97.041
X137.0Y-80.8
T2
X72.6Y-75.0
X72.6Y-135.0
X73.303Y-73.303
X73.303Y-76.697
X73.303Y-133.303
X73.303Y-136.697
X75.0Y-72.6
X75.0Y-77.4
X75.0Y-132.6
X75.0Y-137.4
X76.697Y-73.303
X76.697Y-76.697
X76.697Y-133.303
X76.697Y-136.697
X77.4Y-75.0
X77.4Y-135.0
X132.6Y-75.0
X132.6Y-135.0
X133.303Y-73.303
X133.303Y-76.697
X133.303Y-133.303
X133.303Y-136.697
X135.0Y-72.6
X135.0Y-77.4
X135.0Y-132.6
X135.0Y-137.4
X136.697Y-73.303
X136.697Y-76.697
X136.697Y-133.303
X136.697Y-136.697
X137.4Y-75.0
X137.4Y-135.0
T3
X76.235Y-106.39
X76.235Y-108.89
X89.085Y-103.2
X91.625Y-103.2
X94.165Y-103.2
X96.705Y-103.2
X99.245Y-103.2
X134.581Y-90.639
X134.581Y-93.139
X134.581Y-101.291
X134.581Y-103.791
T4
X74.775Y-92.79
X74.775Y-95.79
X74.775Y-98.79
X77.775Y-92.79
X77.775Y-95.79
X77.775Y-98.79
T5
X77.435Y-115.21
X77.435Y-120.29
X91.145Y-130.74
X96.225Y-130.74
X98.8Y-76.2
X103.8Y-76.2
X105.19Y-130.79
X108.8Y-76.2
X110.27Y-130.79
X119.61Y-131.03
X124.69Y-131.03
T6
X85.843Y-76.05
X89.802Y-76.05
T7
X75.0Y-75.0
X75.0Y-135.0
X135.0Y-75.0
X135.0Y-135.0
M30
