G04 #@! TF.GenerationSoftware,KiCad,Pcbnew,9.0.1*
G04 #@! TF.CreationDate,2025-05-09T16:55:27+02:00*
G04 #@! TF.ProjectId,SIGURD,53494755-5244-42e6-9b69-6361645f7063,rev?*
G04 #@! TF.SameCoordinates,Original*
G04 #@! TF.FileFunction,Soldermask,Top*
G04 #@! TF.FilePolarity,Negative*
%FSLAX46Y46*%
G04 Gerber Fmt 4.6, Leading zero omitted, Abs format (unit mm)*
G04 Created by KiCad (PCBNEW 9.0.1) date 2025-05-09 16:55:27*
%MOMM*%
%LPD*%
G01*
G04 APERTURE LIST*
G04 Aperture macros list*
%AMRoundRect*
0 Rectangle with rounded corners*
0 $1 Rounding radius*
0 $2 $3 $4 $5 $6 $7 $8 $9 X,Y pos of 4 corners*
0 Add a 4 corners polygon primitive as box body*
4,1,4,$2,$3,$4,$5,$6,$7,$8,$9,$2,$3,0*
0 Add four circle primitives for the rounded corners*
1,1,$1+$1,$2,$3*
1,1,$1+$1,$4,$5*
1,1,$1+$1,$6,$7*
1,1,$1+$1,$8,$9*
0 Add four rect primitives between the rounded corners*
20,1,$1+$1,$2,$3,$4,$5,0*
20,1,$1+$1,$4,$5,$6,$7,0*
20,1,$1+$1,$6,$7,$8,$9,0*
20,1,$1+$1,$8,$9,$2,$3,0*%
%AMFreePoly0*
4,1,6,1.000000,0.000000,0.500000,-0.750000,-0.500000,-0.750000,-0.500000,0.750000,0.500000,0.750000,1.000000,0.000000,1.000000,0.000000,$1*%
%AMFreePoly1*
4,1,6,0.500000,-0.750000,-0.650000,-0.750000,-0.150000,0.000000,-0.650000,0.750000,0.500000,0.750000,0.500000,-0.750000,0.500000,-0.750000,$1*%
G04 Aperture macros list end*
%ADD10RoundRect,0.237500X-0.237500X0.250000X-0.237500X-0.250000X0.237500X-0.250000X0.237500X0.250000X0*%
%ADD11RoundRect,0.237500X0.300000X0.237500X-0.300000X0.237500X-0.300000X-0.237500X0.300000X-0.237500X0*%
%ADD12RoundRect,0.237500X-0.237500X0.300000X-0.237500X-0.300000X0.237500X-0.300000X0.237500X0.300000X0*%
%ADD13C,1.200000*%
%ADD14RoundRect,0.250000X-0.750000X0.600000X-0.750000X-0.600000X0.750000X-0.600000X0.750000X0.600000X0*%
%ADD15O,2.000000X1.700000*%
%ADD16R,1.320800X0.558800*%
%ADD17RoundRect,0.237500X0.237500X-0.300000X0.237500X0.300000X-0.237500X0.300000X-0.237500X-0.300000X0*%
%ADD18RoundRect,0.075000X-0.075000X0.662500X-0.075000X-0.662500X0.075000X-0.662500X0.075000X0.662500X0*%
%ADD19RoundRect,0.075000X-0.662500X0.075000X-0.662500X-0.075000X0.662500X-0.075000X0.662500X0.075000X0*%
%ADD20RoundRect,0.237500X0.237500X-0.287500X0.237500X0.287500X-0.237500X0.287500X-0.237500X-0.287500X0*%
%ADD21RoundRect,0.112500X-0.112500X-0.112500X0.112500X-0.112500X0.112500X0.112500X-0.112500X0.112500X0*%
%ADD22RoundRect,0.200000X0.200000X0.275000X-0.200000X0.275000X-0.200000X-0.275000X0.200000X-0.275000X0*%
%ADD23R,2.600000X2.600000*%
%ADD24C,2.600000*%
%ADD25RoundRect,0.250000X0.375000X0.625000X-0.375000X0.625000X-0.375000X-0.625000X0.375000X-0.625000X0*%
%ADD26FreePoly0,90.000000*%
%ADD27FreePoly1,90.000000*%
%ADD28RoundRect,0.237500X-0.250000X-0.237500X0.250000X-0.237500X0.250000X0.237500X-0.250000X0.237500X0*%
%ADD29C,0.800000*%
%ADD30C,6.400000*%
%ADD31RoundRect,0.200000X-0.275000X0.200000X-0.275000X-0.200000X0.275000X-0.200000X0.275000X0.200000X0*%
%ADD32R,0.533400X1.460500*%
%ADD33RoundRect,0.150000X0.150000X0.200000X-0.150000X0.200000X-0.150000X-0.200000X0.150000X-0.200000X0*%
%ADD34RoundRect,0.375000X0.625000X0.375000X-0.625000X0.375000X-0.625000X-0.375000X0.625000X-0.375000X0*%
%ADD35RoundRect,0.500000X0.500000X1.400000X-0.500000X1.400000X-0.500000X-1.400000X0.500000X-1.400000X0*%
%ADD36RoundRect,0.237500X0.250000X0.237500X-0.250000X0.237500X-0.250000X-0.237500X0.250000X-0.237500X0*%
%ADD37RoundRect,0.237500X0.287500X0.237500X-0.287500X0.237500X-0.287500X-0.237500X0.287500X-0.237500X0*%
%ADD38RoundRect,0.250000X-0.625000X0.375000X-0.625000X-0.375000X0.625000X-0.375000X0.625000X0.375000X0*%
%ADD39RoundRect,0.237500X-0.237500X0.287500X-0.237500X-0.287500X0.237500X-0.287500X0.237500X0.287500X0*%
%ADD40C,1.020000*%
%ADD41RoundRect,0.250001X-0.499999X0.499999X-0.499999X-0.499999X0.499999X-0.499999X0.499999X0.499999X0*%
%ADD42C,1.500000*%
%ADD43RoundRect,0.250000X1.450000X-0.312500X1.450000X0.312500X-1.450000X0.312500X-1.450000X-0.312500X0*%
%ADD44RoundRect,0.250000X-0.250000X0.250000X-0.250000X-0.250000X0.250000X-0.250000X0.250000X0.250000X0*%
%ADD45RoundRect,0.150000X0.625000X-0.150000X0.625000X0.150000X-0.625000X0.150000X-0.625000X-0.150000X0*%
%ADD46RoundRect,0.250000X0.650000X-0.350000X0.650000X0.350000X-0.650000X0.350000X-0.650000X-0.350000X0*%
%ADD47RoundRect,0.237500X0.237500X-0.250000X0.237500X0.250000X-0.237500X0.250000X-0.237500X-0.250000X0*%
%ADD48RoundRect,0.200000X0.275000X-0.200000X0.275000X0.200000X-0.275000X0.200000X-0.275000X-0.200000X0*%
%ADD49R,2.500000X2.500000*%
%ADD50RoundRect,0.150000X0.150000X-0.512500X0.150000X0.512500X-0.150000X0.512500X-0.150000X-0.512500X0*%
%ADD51R,0.558800X1.981200*%
%ADD52R,1.500000X1.500000*%
%ADD53FreePoly0,270.000000*%
%ADD54C,1.450000*%
%ADD55RoundRect,0.250001X-1.099999X-1.099999X1.099999X-1.099999X1.099999X1.099999X-1.099999X1.099999X0*%
%ADD56C,2.700000*%
%ADD57RoundRect,0.150000X0.587500X0.150000X-0.587500X0.150000X-0.587500X-0.150000X0.587500X-0.150000X0*%
%ADD58RoundRect,0.218750X0.218750X0.256250X-0.218750X0.256250X-0.218750X-0.256250X0.218750X-0.256250X0*%
%ADD59R,1.700000X1.700000*%
%ADD60C,1.700000*%
%ADD61RoundRect,0.237500X-0.300000X-0.237500X0.300000X-0.237500X0.300000X0.237500X-0.300000X0.237500X0*%
%ADD62R,2.700000X2.100000*%
%ADD63RoundRect,0.125000X-0.537500X-0.125000X0.537500X-0.125000X0.537500X0.125000X-0.537500X0.125000X0*%
%ADD64RoundRect,0.150000X0.150000X-0.587500X0.150000X0.587500X-0.150000X0.587500X-0.150000X-0.587500X0*%
G04 APERTURE END LIST*
D10*
X87642518Y-87041501D03*
X87642518Y-88866501D03*
D11*
X102862501Y-86450000D03*
X101137499Y-86450000D03*
D12*
X122150000Y-73187500D03*
X122150000Y-74912500D03*
D13*
X132580767Y-89038751D03*
D14*
X134580767Y-90638751D03*
D15*
X134580767Y-93138751D03*
D16*
X129051767Y-92919752D03*
X129051767Y-91019750D03*
X127019767Y-91969751D03*
D10*
X128189517Y-108677501D03*
X128189517Y-110502501D03*
D17*
X100700000Y-99992501D03*
X100700000Y-98267499D03*
D18*
X111434517Y-91790001D03*
X110934517Y-91790001D03*
X110434517Y-91790001D03*
X109934516Y-91790001D03*
X109434517Y-91790001D03*
X108934517Y-91790001D03*
X108434517Y-91790001D03*
X107934517Y-91790001D03*
X107434518Y-91790001D03*
X106934517Y-91790001D03*
X106434517Y-91790001D03*
X105934517Y-91790001D03*
D19*
X104522017Y-93202501D03*
X104522017Y-93702501D03*
X104522017Y-94202501D03*
X104522017Y-94702502D03*
X104522017Y-95202501D03*
X104522017Y-95702501D03*
X104522017Y-96202501D03*
X104522017Y-96702501D03*
X104522017Y-97202500D03*
X104522017Y-97702501D03*
X104522017Y-98202501D03*
X104522017Y-98702501D03*
D18*
X105934517Y-100115001D03*
X106434517Y-100115001D03*
X106934517Y-100115001D03*
X107434518Y-100115001D03*
X107934517Y-100115001D03*
X108434517Y-100115001D03*
X108934517Y-100115001D03*
X109434517Y-100115001D03*
X109934516Y-100115001D03*
X110434517Y-100115001D03*
X110934517Y-100115001D03*
X111434517Y-100115001D03*
D19*
X112847017Y-98702501D03*
X112847017Y-98202501D03*
X112847017Y-97702501D03*
X112847017Y-97202500D03*
X112847017Y-96702501D03*
X112847017Y-96202501D03*
X112847017Y-95702501D03*
X112847017Y-95202501D03*
X112847017Y-94702502D03*
X112847017Y-94202501D03*
X112847017Y-93702501D03*
X112847017Y-93202501D03*
D20*
X91360483Y-119930000D03*
X91360483Y-118180000D03*
D21*
X93675000Y-86175000D03*
X94525000Y-86175000D03*
X94525000Y-87025000D03*
X93675000Y-87025000D03*
D22*
X97625000Y-87000000D03*
X95975000Y-87000000D03*
D23*
X91144517Y-130740001D03*
D24*
X96224517Y-130740001D03*
D25*
X135650000Y-80750000D03*
X132850000Y-80750000D03*
D11*
X128662500Y-74670098D03*
X126937500Y-74670098D03*
D26*
X123435767Y-92766251D03*
D27*
X123435767Y-91316251D03*
D28*
X121440000Y-103190000D03*
X123265000Y-103190000D03*
D23*
X105189517Y-130790001D03*
D24*
X110269517Y-130790001D03*
D29*
X72600000Y-135000000D03*
X73302944Y-133302944D03*
X73302944Y-136697056D03*
X75000000Y-132600000D03*
D30*
X75000000Y-135000000D03*
D29*
X75000000Y-137400000D03*
X76697056Y-133302944D03*
X76697056Y-136697056D03*
X77400000Y-135000000D03*
D31*
X105700000Y-121775000D03*
X105700000Y-123425000D03*
D29*
X132600000Y-75000000D03*
X133302944Y-73302944D03*
X133302944Y-76697056D03*
X135000000Y-72600000D03*
D30*
X135000000Y-75000000D03*
D29*
X135000000Y-77400000D03*
X136697056Y-73302944D03*
X136697056Y-76697056D03*
X137400000Y-75000000D03*
D32*
X111639517Y-107560851D03*
X110369517Y-107560851D03*
X109099517Y-107560851D03*
X107829517Y-107560851D03*
X107829517Y-113009151D03*
X109099517Y-113009151D03*
X110369517Y-113009151D03*
X111639517Y-113009151D03*
D10*
X81705613Y-100558315D03*
X81705613Y-102383315D03*
D23*
X77434517Y-115210001D03*
D24*
X77434517Y-120290001D03*
D33*
X133600000Y-129300000D03*
X135000000Y-129300000D03*
D14*
X76234517Y-106390001D03*
D15*
X76234517Y-108890001D03*
D10*
X120102017Y-108965001D03*
X120102017Y-110790001D03*
D34*
X119800000Y-78300000D03*
X119800000Y-76000000D03*
D35*
X113500000Y-76000000D03*
D34*
X119800000Y-73700000D03*
D36*
X129148267Y-89241251D03*
X127323267Y-89241251D03*
D12*
X122100000Y-77237500D03*
X122100000Y-78962500D03*
D37*
X119759998Y-101570000D03*
X118010000Y-101570000D03*
D38*
X84500000Y-111250000D03*
X84500000Y-114050000D03*
D12*
X126100000Y-80870098D03*
X126100000Y-82595098D03*
D39*
X121700000Y-118585001D03*
X121700000Y-120335001D03*
D17*
X115052017Y-92731290D03*
X115052017Y-91006288D03*
D20*
X94500000Y-79875000D03*
X94500000Y-78125000D03*
D40*
X73834517Y-89790001D03*
X73834517Y-101790001D03*
D41*
X77774517Y-92790001D03*
D42*
X77774517Y-95790001D03*
X77774517Y-98790001D03*
X74774517Y-92790001D03*
X74774517Y-95790001D03*
X74774517Y-98790001D03*
D43*
X110400000Y-120075000D03*
X110400000Y-115800000D03*
D44*
X115900000Y-118642501D03*
X115900000Y-121142501D03*
D45*
X132134517Y-115090001D03*
X132134517Y-114090001D03*
X132134517Y-113090001D03*
X132134517Y-112090001D03*
X132134517Y-111090001D03*
X132134517Y-110090001D03*
D46*
X136009517Y-116390001D03*
X136009517Y-108790001D03*
D39*
X107290000Y-118390001D03*
X107290000Y-120140001D03*
D12*
X123435767Y-96178751D03*
X123435767Y-97903751D03*
D28*
X133837500Y-84250000D03*
X135662500Y-84250000D03*
D17*
X125350000Y-78912500D03*
X125350000Y-77187500D03*
D23*
X119609517Y-131030001D03*
D24*
X124689517Y-131030001D03*
D31*
X120030000Y-121875000D03*
X120030000Y-123525000D03*
D47*
X89339574Y-88866501D03*
X89339574Y-87041501D03*
D48*
X93700000Y-90225000D03*
X93700000Y-88575000D03*
D38*
X94500000Y-73100000D03*
X94500000Y-75900000D03*
D49*
X130750000Y-126500000D03*
X137750000Y-126500000D03*
X137750000Y-119500000D03*
X130750000Y-119500000D03*
D12*
X85945462Y-87091500D03*
X85945462Y-88816502D03*
X114400000Y-82837499D03*
X114400000Y-84562501D03*
D37*
X128675000Y-73170098D03*
X126925000Y-73170098D03*
D12*
X127600000Y-80870098D03*
X127600000Y-82595098D03*
D11*
X111897018Y-104487058D03*
X110172016Y-104487058D03*
D10*
X84248405Y-87041501D03*
X84248405Y-88866501D03*
D47*
X118530000Y-120405000D03*
X118530000Y-118580000D03*
D10*
X84248405Y-83364546D03*
X84248405Y-85189546D03*
D36*
X75512500Y-85700000D03*
X73687500Y-85700000D03*
D28*
X73700000Y-87190001D03*
X75525000Y-87190001D03*
D43*
X96300000Y-119875000D03*
X96300000Y-115600000D03*
D37*
X119809516Y-103190001D03*
X118059518Y-103190001D03*
D10*
X120154517Y-112587500D03*
X120154517Y-114412500D03*
D13*
X132580767Y-99691251D03*
D14*
X134580767Y-101291251D03*
D15*
X134580767Y-103791251D03*
D10*
X87642518Y-83364546D03*
X87642518Y-85189546D03*
X113450000Y-109050000D03*
X113450000Y-110875000D03*
D29*
X72600000Y-75000000D03*
X73302944Y-73302944D03*
X73302944Y-76697056D03*
X75000000Y-72600000D03*
D30*
X75000000Y-75000000D03*
D29*
X75000000Y-77400000D03*
X76697056Y-73302944D03*
X76697056Y-76697056D03*
X77400000Y-75000000D03*
D50*
X126900000Y-78775000D03*
X127850000Y-78775000D03*
X128800000Y-78775000D03*
X128800000Y-76500000D03*
X127850000Y-76500000D03*
X126900000Y-76500000D03*
D12*
X124600000Y-80870098D03*
X124600000Y-82595098D03*
D39*
X118800000Y-83650000D03*
X118800000Y-85400000D03*
D20*
X120070000Y-120360000D03*
X120070000Y-118610000D03*
D51*
X90182518Y-93399147D03*
X88912518Y-93399147D03*
X87642518Y-93399147D03*
X86372518Y-93399147D03*
X85102518Y-93399147D03*
X83832518Y-93399147D03*
X82562518Y-93399147D03*
X82562518Y-98326747D03*
X83832518Y-98326747D03*
X85102518Y-98326747D03*
X86372518Y-98326747D03*
X87642518Y-98326747D03*
X88912518Y-98326747D03*
X90182518Y-98326747D03*
D10*
X91724517Y-112287500D03*
X91724517Y-114112500D03*
D52*
X116700000Y-111700000D03*
X116700000Y-114100000D03*
D53*
X116700000Y-110900000D03*
D26*
X116700000Y-114900000D03*
D39*
X93010483Y-118225000D03*
X93010483Y-119975000D03*
D11*
X111897018Y-102790001D03*
X110172016Y-102790001D03*
D20*
X129350000Y-82607598D03*
X129350000Y-80857598D03*
D54*
X84342500Y-72650000D03*
D55*
X85842500Y-76050000D03*
D56*
X89802500Y-76050000D03*
D47*
X104234517Y-120197501D03*
X104234517Y-118372501D03*
D31*
X91400000Y-122075000D03*
X91400000Y-123725000D03*
D32*
X125964517Y-107585001D03*
X124694517Y-107585001D03*
X123424517Y-107585001D03*
X122154517Y-107585001D03*
X122154517Y-113033301D03*
X123424517Y-113033301D03*
X124694517Y-113033301D03*
X125964517Y-113033301D03*
D11*
X107362501Y-88800000D03*
X105637499Y-88800000D03*
D57*
X121435767Y-97991251D03*
X121435767Y-96091251D03*
X119560767Y-97041251D03*
D20*
X105700000Y-120200000D03*
X105700000Y-118450000D03*
D32*
X97594517Y-107515851D03*
X96324517Y-107515851D03*
X95054517Y-107515851D03*
X93784517Y-107515851D03*
X93784517Y-112964151D03*
X95054517Y-112964151D03*
X96324517Y-112964151D03*
X97594517Y-112964151D03*
D10*
X129950000Y-133237500D03*
X129950000Y-135062500D03*
D28*
X125922017Y-100090001D03*
X127747017Y-100090001D03*
D10*
X105769517Y-108677501D03*
X105769517Y-110502501D03*
D44*
X101200000Y-118430001D03*
X101200000Y-120930001D03*
D10*
X99724517Y-108632501D03*
X99724517Y-110457501D03*
X75000000Y-128325000D03*
X75000000Y-130150000D03*
D47*
X82551349Y-88866501D03*
X82551349Y-87041501D03*
D58*
X96100000Y-84800000D03*
X94525000Y-84800000D03*
D59*
X89085000Y-103200000D03*
D60*
X91625000Y-103200000D03*
X94165000Y-103200000D03*
X96705000Y-103200000D03*
X99245000Y-103200000D03*
D17*
X116749073Y-92731290D03*
X116749073Y-91006288D03*
D44*
X86900000Y-118200000D03*
X86900000Y-120700000D03*
D61*
X111502507Y-89450654D03*
X113227509Y-89450654D03*
D62*
X111800000Y-83400000D03*
X106500002Y-83400000D03*
X106500002Y-86500000D03*
X111800000Y-86500000D03*
D36*
X97762500Y-90200000D03*
X95937500Y-90200000D03*
D23*
X108800000Y-76200000D03*
D24*
X103800000Y-76200000D03*
X98800000Y-76200000D03*
D10*
X105800000Y-112187500D03*
X105800000Y-114012500D03*
D47*
X89800000Y-119967500D03*
X89800000Y-118142500D03*
D29*
X132600000Y-135000000D03*
X133302944Y-133302944D03*
X133302944Y-136697056D03*
X135000000Y-132600000D03*
D30*
X135000000Y-135000000D03*
D29*
X135000000Y-137400000D03*
X136697056Y-133302944D03*
X136697056Y-136697056D03*
X137400000Y-135000000D03*
D63*
X126598267Y-96091251D03*
X126598267Y-96741251D03*
X126598267Y-97391251D03*
X126598267Y-98041251D03*
X128873267Y-98041251D03*
X128873267Y-97391251D03*
X128873267Y-96741251D03*
X128873267Y-96091251D03*
D43*
X124700000Y-120300000D03*
X124700000Y-116025000D03*
D28*
X121409517Y-101530000D03*
X123234517Y-101530000D03*
D17*
X131100000Y-82595098D03*
X131100000Y-80870098D03*
D10*
X120400000Y-83587500D03*
X120400000Y-85412500D03*
D12*
X123650000Y-73187500D03*
X123650000Y-74912500D03*
D36*
X75562500Y-80050000D03*
X73737500Y-80050000D03*
D16*
X129001767Y-103691253D03*
X129001767Y-101791251D03*
X126969767Y-102741252D03*
D47*
X83402670Y-102383315D03*
X83402670Y-100558315D03*
X91724517Y-110545001D03*
X91724517Y-108720001D03*
D10*
X85099726Y-100558315D03*
X85099726Y-102383315D03*
D64*
X73700000Y-83937500D03*
X75600000Y-83937500D03*
X74650000Y-82062500D03*
D11*
X104062501Y-100050000D03*
X102337499Y-100050000D03*
M02*
