%TF.GenerationSoftware,KiCad,Pcbnew,9.0.1*%
%TF.CreationDate,2025-05-09T16:55:24+02:00*%
%TF.ProjectId,SIGURD,53494755-5244-42e6-9b69-6361645f7063,rev?*%
%TF.SameCoordinates,Original*%
%TF.FileFunction,Drillmap*%
%TF.FilePolarity,Positive*%
%FSLAX45Y45*%
G04 Gerber Fmt 4.5, Leading zero omitted, Abs format (unit mm)*
G04 Created by KiCad (PCBNEW 9.0.1) date 2025-05-09 16:55:24*
%MOMM*%
%LPD*%
G01*
G04 APERTURE LIST*
%ADD10C,0.050000*%
%ADD11C,0.200000*%
%ADD12C,0.100000*%
%ADD13C,0.102000*%
%ADD14C,0.130000*%
%ADD15C,0.170000*%
%ADD16C,0.320000*%
G04 APERTURE END LIST*
D10*
X13500000Y-7000000D02*
G75*
G02*
X14000000Y-7500000I0J-500000D01*
G01*
X7000000Y-7500000D02*
G75*
G02*
X7500000Y-7000000I500000J0D01*
G01*
X14000000Y-8000000D02*
X14000000Y-7500000D01*
X14000000Y-13500000D02*
G75*
G02*
X13500000Y-14000000I-500000J0D01*
G01*
X13500000Y-7000000D02*
X7500000Y-7000000D01*
X7500000Y-14000000D02*
X13500000Y-14000000D01*
X7500000Y-14000000D02*
G75*
G02*
X7000000Y-13500000I0J500000D01*
G01*
X7000000Y-7500000D02*
X7000000Y-13500000D01*
X14000000Y-13500000D02*
X14000000Y-8000000D01*
D11*
D12*
X7355000Y-8825000D02*
X7385000Y-8855000D01*
X7385000Y-8825000D02*
X7355000Y-8855000D01*
X7485000Y-12695000D02*
X7515000Y-12725000D01*
X7515000Y-12695000D02*
X7485000Y-12725000D01*
X7551226Y-9652774D02*
X7581226Y-9682774D01*
X7581226Y-9652774D02*
X7551226Y-9682774D01*
X7610000Y-12815000D02*
X7640000Y-12845000D01*
X7640000Y-12815000D02*
X7610000Y-12845000D01*
X7655000Y-8375000D02*
X7685000Y-8405000D01*
X7685000Y-8375000D02*
X7655000Y-8405000D01*
X7665000Y-7985000D02*
X7695000Y-8015000D01*
X7695000Y-7985000D02*
X7665000Y-8015000D01*
X7995000Y-8190000D02*
X8025000Y-8220000D01*
X8025000Y-8190000D02*
X7995000Y-8220000D01*
X8014140Y-10047229D02*
X8044140Y-10077229D01*
X8044140Y-10047229D02*
X8014140Y-10077229D01*
X8065000Y-9635000D02*
X8095000Y-9665000D01*
X8095000Y-9635000D02*
X8065000Y-9665000D01*
X8115000Y-8695000D02*
X8145000Y-8725000D01*
X8145000Y-8695000D02*
X8115000Y-8725000D01*
X8279000Y-8270000D02*
X8309000Y-8300000D01*
X8309000Y-8270000D02*
X8279000Y-8300000D01*
X8285000Y-11095000D02*
X8315000Y-11125000D01*
X8315000Y-11095000D02*
X8285000Y-11125000D01*
X8300000Y-10380000D02*
X8330000Y-10410000D01*
X8330000Y-10380000D02*
X8300000Y-10410000D01*
X8435000Y-10975000D02*
X8465000Y-11005000D01*
X8465000Y-10975000D02*
X8435000Y-11005000D01*
X8579546Y-8525842D02*
X8609546Y-8555842D01*
X8609546Y-8525842D02*
X8579546Y-8555842D01*
X8582239Y-8343935D02*
X8612239Y-8373935D01*
X8612239Y-8343935D02*
X8582239Y-8373935D01*
X8595000Y-11095000D02*
X8625000Y-11125000D01*
X8625000Y-11095000D02*
X8595000Y-11125000D01*
X8622252Y-9099706D02*
X8652252Y-9129706D01*
X8652252Y-9099706D02*
X8622252Y-9129706D01*
X8622252Y-10089655D02*
X8652252Y-10119655D01*
X8652252Y-10089655D02*
X8622252Y-10119655D01*
X8662500Y-10792500D02*
X8692500Y-10822500D01*
X8692500Y-10792500D02*
X8662500Y-10822500D01*
X8675000Y-12185000D02*
X8705000Y-12215000D01*
X8705000Y-12185000D02*
X8675000Y-12215000D01*
X8840000Y-13055000D02*
X8870000Y-13085000D01*
X8870000Y-13055000D02*
X8840000Y-13085000D01*
X8885000Y-13555000D02*
X8915000Y-13585000D01*
X8915000Y-13555000D02*
X8885000Y-13585000D01*
X8923750Y-10648750D02*
X8953750Y-10678750D01*
X8953750Y-10648750D02*
X8923750Y-10678750D01*
X8933100Y-8539984D02*
X8963100Y-8569984D01*
X8963100Y-8539984D02*
X8933100Y-8569984D01*
X9100000Y-12795000D02*
X9130000Y-12825000D01*
X9130000Y-12795000D02*
X9100000Y-12825000D01*
X9100000Y-13305000D02*
X9130000Y-13335000D01*
X9130000Y-13305000D02*
X9100000Y-13335000D01*
X9125000Y-12455000D02*
X9155000Y-12485000D01*
X9155000Y-12455000D02*
X9125000Y-12485000D01*
X9145000Y-8140000D02*
X9175000Y-8170000D01*
X9175000Y-8140000D02*
X9145000Y-8170000D01*
X9157452Y-10662548D02*
X9187452Y-10692548D01*
X9187452Y-10662548D02*
X9157452Y-10692548D01*
X9200000Y-9782500D02*
X9230000Y-9812500D01*
X9230000Y-9782500D02*
X9200000Y-9812500D01*
X9235000Y-7295000D02*
X9265000Y-7325000D01*
X9265000Y-7295000D02*
X9235000Y-7325000D01*
X9280000Y-11440000D02*
X9310000Y-11470000D01*
X9310000Y-11440000D02*
X9280000Y-11470000D01*
X9295000Y-7975000D02*
X9325000Y-8005000D01*
X9325000Y-7975000D02*
X9295000Y-8005000D01*
X9395000Y-11695000D02*
X9425000Y-11725000D01*
X9425000Y-11695000D02*
X9395000Y-11725000D01*
X9435000Y-7165000D02*
X9465000Y-7195000D01*
X9465000Y-7165000D02*
X9435000Y-7195000D01*
X9435000Y-7425000D02*
X9465000Y-7455000D01*
X9465000Y-7425000D02*
X9435000Y-7455000D01*
X9465000Y-9805000D02*
X9495000Y-9835000D01*
X9495000Y-9805000D02*
X9465000Y-9835000D01*
X9565000Y-7295000D02*
X9595000Y-7325000D01*
X9595000Y-7295000D02*
X9565000Y-7325000D01*
X9570000Y-9810000D02*
X9600000Y-9840000D01*
X9600000Y-9810000D02*
X9570000Y-9840000D01*
X9575000Y-7965000D02*
X9605000Y-7995000D01*
X9605000Y-7965000D02*
X9575000Y-7995000D01*
X9620000Y-11840000D02*
X9650000Y-11870000D01*
X9650000Y-11840000D02*
X9620000Y-11870000D01*
X9680000Y-9805000D02*
X9710000Y-9835000D01*
X9710000Y-9805000D02*
X9680000Y-9835000D01*
X9716000Y-8465000D02*
X9746000Y-8495000D01*
X9746000Y-8465000D02*
X9716000Y-8495000D01*
X9780000Y-9800000D02*
X9810000Y-9830000D01*
X9810000Y-9800000D02*
X9780000Y-9830000D01*
X9847500Y-8685000D02*
X9877500Y-8715000D01*
X9877500Y-8685000D02*
X9847500Y-8715000D01*
X9880000Y-9810000D02*
X9910000Y-9840000D01*
X9910000Y-9810000D02*
X9880000Y-9840000D01*
X9895000Y-11280000D02*
X9925000Y-11310000D01*
X9925000Y-11280000D02*
X9895000Y-11310000D01*
X10082500Y-8989000D02*
X10112500Y-9019000D01*
X10112500Y-8989000D02*
X10082500Y-9019000D01*
X10085000Y-11035250D02*
X10115000Y-11065250D01*
X10115000Y-11035250D02*
X10085000Y-11065250D01*
X10095000Y-11615000D02*
X10125000Y-11645000D01*
X10125000Y-11615000D02*
X10095000Y-11645000D01*
X10105000Y-12195000D02*
X10135000Y-12225000D01*
X10135000Y-12195000D02*
X10105000Y-12225000D01*
X10170000Y-10597500D02*
X10200000Y-10627500D01*
X10200000Y-10597500D02*
X10170000Y-10627500D01*
X10218750Y-9853750D02*
X10248750Y-9883750D01*
X10248750Y-9853750D02*
X10218750Y-9883750D01*
X10219000Y-8960000D02*
X10249000Y-8990000D01*
X10249000Y-8960000D02*
X10219000Y-8990000D01*
X10228452Y-10935000D02*
X10258452Y-10965000D01*
X10258452Y-10935000D02*
X10228452Y-10965000D01*
X10260000Y-8330000D02*
X10290000Y-8360000D01*
X10290000Y-8330000D02*
X10260000Y-8360000D01*
X10290000Y-13065000D02*
X10320000Y-13095000D01*
X10320000Y-13065000D02*
X10290000Y-13095000D01*
X10305000Y-11635000D02*
X10335000Y-11665000D01*
X10335000Y-11635000D02*
X10305000Y-11665000D01*
X10335000Y-11205000D02*
X10365000Y-11235000D01*
X10365000Y-11205000D02*
X10335000Y-11235000D01*
X10405000Y-8140000D02*
X10435000Y-8170000D01*
X10435000Y-8140000D02*
X10405000Y-8170000D01*
X10455000Y-9085000D02*
X10485000Y-9115000D01*
X10485000Y-9085000D02*
X10455000Y-9115000D01*
X10505000Y-12835000D02*
X10535000Y-12865000D01*
X10535000Y-12835000D02*
X10505000Y-12865000D01*
X10505000Y-13310000D02*
X10535000Y-13340000D01*
X10535000Y-13310000D02*
X10505000Y-13340000D01*
X10518452Y-10404000D02*
X10548452Y-10434000D01*
X10548452Y-10404000D02*
X10518452Y-10434000D01*
X10555000Y-12460000D02*
X10585000Y-12490000D01*
X10585000Y-12460000D02*
X10555000Y-12490000D01*
X10590000Y-9805000D02*
X10620000Y-9835000D01*
X10620000Y-9805000D02*
X10590000Y-9835000D01*
X10638452Y-10624000D02*
X10668452Y-10654000D01*
X10668452Y-10624000D02*
X10638452Y-10654000D01*
X10670000Y-11420000D02*
X10700000Y-11450000D01*
X10700000Y-11420000D02*
X10670000Y-11450000D01*
X10728452Y-8975000D02*
X10758452Y-9005000D01*
X10758452Y-8975000D02*
X10728452Y-9005000D01*
X10765000Y-11155000D02*
X10795000Y-11185000D01*
X10795000Y-11155000D02*
X10765000Y-11185000D01*
X10780000Y-9315000D02*
X10810000Y-9345000D01*
X10810000Y-9315000D02*
X10780000Y-9345000D01*
X10802730Y-10897270D02*
X10832730Y-10927270D01*
X10832730Y-10897270D02*
X10802730Y-10927270D01*
X10820952Y-8978452D02*
X10850952Y-9008452D01*
X10850952Y-8978452D02*
X10820952Y-9008452D01*
X10878452Y-10519000D02*
X10908452Y-10549000D01*
X10908452Y-10519000D02*
X10878452Y-10549000D01*
X10883452Y-10329000D02*
X10913452Y-10359000D01*
X10913452Y-10329000D02*
X10883452Y-10359000D01*
X10898452Y-10134000D02*
X10928452Y-10164000D01*
X10928452Y-10134000D02*
X10898452Y-10164000D01*
X10988452Y-10134000D02*
X11018452Y-10164000D01*
X11018452Y-10134000D02*
X10988452Y-10164000D01*
X11010000Y-8925000D02*
X11040000Y-8955000D01*
X11040000Y-8925000D02*
X11010000Y-8955000D01*
X11025000Y-11850000D02*
X11055000Y-11880000D01*
X11055000Y-11850000D02*
X11025000Y-11880000D01*
X11125000Y-9355000D02*
X11155000Y-9385000D01*
X11155000Y-9355000D02*
X11125000Y-9385000D01*
X11148452Y-10594000D02*
X11178452Y-10624000D01*
X11178452Y-10594000D02*
X11148452Y-10624000D01*
X11155000Y-11155000D02*
X11185000Y-11185000D01*
X11185000Y-11155000D02*
X11155000Y-11185000D01*
X11388452Y-10714000D02*
X11418452Y-10744000D01*
X11418452Y-10714000D02*
X11388452Y-10744000D01*
X11398452Y-10134000D02*
X11428452Y-10164000D01*
X11428452Y-10134000D02*
X11398452Y-10164000D01*
X11409000Y-8636000D02*
X11439000Y-8666000D01*
X11439000Y-8636000D02*
X11409000Y-8666000D01*
X11425000Y-11660548D02*
X11455000Y-11690548D01*
X11455000Y-11660548D02*
X11425000Y-11690548D01*
X11450000Y-11280000D02*
X11480000Y-11310000D01*
X11480000Y-11280000D02*
X11450000Y-11310000D01*
X11475000Y-11075000D02*
X11505000Y-11105000D01*
X11505000Y-11075000D02*
X11475000Y-11105000D01*
X11495000Y-11475000D02*
X11525000Y-11505000D01*
X11525000Y-11475000D02*
X11495000Y-11505000D01*
X11575000Y-12215000D02*
X11605000Y-12245000D01*
X11605000Y-12215000D02*
X11575000Y-12245000D01*
X11610000Y-8495000D02*
X11640000Y-8525000D01*
X11640000Y-8495000D02*
X11610000Y-8525000D01*
X11654000Y-10927000D02*
X11684000Y-10957000D01*
X11684000Y-10927000D02*
X11654000Y-10957000D01*
X11655000Y-11625000D02*
X11685000Y-11655000D01*
X11685000Y-11625000D02*
X11655000Y-11655000D01*
X11678452Y-9584000D02*
X11708452Y-9614000D01*
X11708452Y-9584000D02*
X11678452Y-9614000D01*
X11725000Y-13095000D02*
X11755000Y-13125000D01*
X11755000Y-13095000D02*
X11725000Y-13125000D01*
X11765000Y-8922000D02*
X11795000Y-8952000D01*
X11795000Y-8922000D02*
X11765000Y-8952000D01*
X11785000Y-9133036D02*
X11815000Y-9163036D01*
X11815000Y-9133036D02*
X11785000Y-9163036D01*
X11865000Y-8226000D02*
X11895000Y-8256000D01*
X11895000Y-8226000D02*
X11865000Y-8256000D01*
X11940000Y-9565000D02*
X11970000Y-9595000D01*
X11970000Y-9565000D02*
X11940000Y-9595000D01*
X11945000Y-12840000D02*
X11975000Y-12870000D01*
X11975000Y-12840000D02*
X11945000Y-12870000D01*
X11945000Y-13310000D02*
X11975000Y-13340000D01*
X11975000Y-13310000D02*
X11945000Y-13340000D01*
X11965000Y-7960000D02*
X11995000Y-7990000D01*
X11995000Y-7960000D02*
X11965000Y-7990000D01*
X11988000Y-12438000D02*
X12018000Y-12468000D01*
X12018000Y-12438000D02*
X11988000Y-12468000D01*
X12005000Y-9355000D02*
X12035000Y-9385000D01*
X12035000Y-9355000D02*
X12005000Y-9385000D01*
X12050000Y-9975000D02*
X12080000Y-10005000D01*
X12080000Y-9975000D02*
X12050000Y-10005000D01*
X12110000Y-11445000D02*
X12140000Y-11475000D01*
X12140000Y-11445000D02*
X12110000Y-11475000D01*
X12195000Y-7985000D02*
X12225000Y-8015000D01*
X12225000Y-7985000D02*
X12195000Y-8015000D01*
X12225000Y-7595000D02*
X12255000Y-7625000D01*
X12255000Y-7595000D02*
X12225000Y-7625000D01*
X12232500Y-11767500D02*
X12262500Y-11797500D01*
X12262500Y-11767500D02*
X12232500Y-11797500D01*
X12265000Y-10965000D02*
X12295000Y-10995000D01*
X12295000Y-10965000D02*
X12265000Y-10995000D01*
X12295000Y-7885000D02*
X12325000Y-7915000D01*
X12325000Y-7885000D02*
X12295000Y-7915000D01*
X12325000Y-7595000D02*
X12355000Y-7625000D01*
X12355000Y-7595000D02*
X12325000Y-7625000D01*
X12375000Y-13555000D02*
X12405000Y-13585000D01*
X12405000Y-13555000D02*
X12375000Y-13585000D01*
X12405000Y-7700000D02*
X12435000Y-7730000D01*
X12435000Y-7700000D02*
X12405000Y-7730000D01*
X12407500Y-10305000D02*
X12437500Y-10335000D01*
X12437500Y-10305000D02*
X12407500Y-10335000D01*
X12410000Y-7875000D02*
X12440000Y-7905000D01*
X12440000Y-7875000D02*
X12410000Y-7905000D01*
X12455000Y-11870000D02*
X12485000Y-11900000D01*
X12485000Y-11870000D02*
X12455000Y-11900000D01*
X12488577Y-9609125D02*
X12518577Y-9639125D01*
X12518577Y-9609125D02*
X12488577Y-9639125D01*
X12488577Y-9769125D02*
X12518577Y-9799125D01*
X12518577Y-9769125D02*
X12488577Y-9799125D01*
X12528577Y-9179125D02*
X12558577Y-9209125D01*
X12558577Y-9179125D02*
X12528577Y-9209125D01*
X12530000Y-7370000D02*
X12560000Y-7400000D01*
X12560000Y-7370000D02*
X12530000Y-7400000D01*
X12582500Y-11175000D02*
X12612500Y-11205000D01*
X12612500Y-11175000D02*
X12582500Y-11205000D01*
X12595000Y-10580000D02*
X12625000Y-10610000D01*
X12625000Y-10580000D02*
X12595000Y-10610000D01*
X12623000Y-10164000D02*
X12653000Y-10194000D01*
X12653000Y-10164000D02*
X12623000Y-10194000D01*
X12695250Y-11035250D02*
X12725250Y-11065250D01*
X12725250Y-11035250D02*
X12695250Y-11065250D01*
X12758452Y-9454000D02*
X12788452Y-9484000D01*
X12788452Y-9454000D02*
X12758452Y-9484000D01*
X12821250Y-13308750D02*
X12851250Y-13338750D01*
X12851250Y-13308750D02*
X12821250Y-13338750D01*
X12920000Y-8645000D02*
X12950000Y-8675000D01*
X12950000Y-8645000D02*
X12920000Y-8675000D01*
X12980000Y-13025000D02*
X13010000Y-13055000D01*
X13010000Y-13025000D02*
X12980000Y-13055000D01*
X12985000Y-7635000D02*
X13015000Y-7665000D01*
X13015000Y-7635000D02*
X12985000Y-7665000D01*
X13008577Y-9509125D02*
X13038577Y-9539125D01*
X13038577Y-9509125D02*
X13008577Y-9539125D01*
X13008577Y-9869125D02*
X13038577Y-9899125D01*
X13038577Y-9869125D02*
X13008577Y-9899125D01*
X13015000Y-10505000D02*
X13045000Y-10535000D01*
X13045000Y-10505000D02*
X13015000Y-10535000D01*
X13225000Y-7850000D02*
X13255000Y-7880000D01*
X13255000Y-7850000D02*
X13225000Y-7880000D01*
X13245000Y-8410000D02*
X13275000Y-8440000D01*
X13275000Y-8410000D02*
X13245000Y-8440000D01*
X13255000Y-12515000D02*
X13285000Y-12545000D01*
X13285000Y-12515000D02*
X13255000Y-12545000D01*
X13270000Y-8243260D02*
X13300000Y-8273260D01*
X13300000Y-8243260D02*
X13270000Y-8273260D01*
X13305000Y-10705000D02*
X13335000Y-10735000D01*
X13335000Y-10705000D02*
X13305000Y-10735000D01*
X13308577Y-9639125D02*
X13338577Y-9669125D01*
X13338577Y-9639125D02*
X13308577Y-9669125D01*
X13325000Y-12095000D02*
X13355000Y-12125000D01*
X13355000Y-12095000D02*
X13325000Y-12125000D01*
X13438577Y-9709125D02*
X13468577Y-9739125D01*
X13468577Y-9709125D02*
X13438577Y-9739125D01*
X13545000Y-8225000D02*
X13575000Y-8255000D01*
X13575000Y-8225000D02*
X13545000Y-8255000D01*
X13555000Y-7915000D02*
X13585000Y-7945000D01*
X13585000Y-7915000D02*
X13555000Y-7945000D01*
X13585000Y-11015000D02*
X13615000Y-11045000D01*
X13615000Y-11015000D02*
X13585000Y-11045000D01*
X13585000Y-11445000D02*
X13615000Y-11475000D01*
X13615000Y-11445000D02*
X13585000Y-11475000D01*
X13658577Y-9689125D02*
X13688577Y-9719125D01*
X13688577Y-9689125D02*
X13658577Y-9719125D01*
X13685000Y-8065000D02*
X13715000Y-8095000D01*
X13715000Y-8065000D02*
X13685000Y-8095000D01*
X7285000Y-7500000D02*
G75*
G02*
X7235000Y-7500000I-25000J0D01*
G01*
X7235000Y-7500000D02*
G75*
G02*
X7285000Y-7500000I25000J0D01*
G01*
X7285000Y-13500000D02*
G75*
G02*
X7235000Y-13500000I-25000J0D01*
G01*
X7235000Y-13500000D02*
G75*
G02*
X7285000Y-13500000I25000J0D01*
G01*
X7355294Y-7330294D02*
G75*
G02*
X7305294Y-7330294I-25000J0D01*
G01*
X7305294Y-7330294D02*
G75*
G02*
X7355294Y-7330294I25000J0D01*
G01*
X7355294Y-7669706D02*
G75*
G02*
X7305294Y-7669706I-25000J0D01*
G01*
X7305294Y-7669706D02*
G75*
G02*
X7355294Y-7669706I25000J0D01*
G01*
X7355294Y-13330294D02*
G75*
G02*
X7305294Y-13330294I-25000J0D01*
G01*
X7305294Y-13330294D02*
G75*
G02*
X7355294Y-13330294I25000J0D01*
G01*
X7355294Y-13669706D02*
G75*
G02*
X7305294Y-13669706I-25000J0D01*
G01*
X7305294Y-13669706D02*
G75*
G02*
X7355294Y-13669706I25000J0D01*
G01*
X7525000Y-7260000D02*
G75*
G02*
X7475000Y-7260000I-25000J0D01*
G01*
X7475000Y-7260000D02*
G75*
G02*
X7525000Y-7260000I25000J0D01*
G01*
X7525000Y-7740000D02*
G75*
G02*
X7475000Y-7740000I-25000J0D01*
G01*
X7475000Y-7740000D02*
G75*
G02*
X7525000Y-7740000I25000J0D01*
G01*
X7525000Y-13260000D02*
G75*
G02*
X7475000Y-13260000I-25000J0D01*
G01*
X7475000Y-13260000D02*
G75*
G02*
X7525000Y-13260000I25000J0D01*
G01*
X7525000Y-13740000D02*
G75*
G02*
X7475000Y-13740000I-25000J0D01*
G01*
X7475000Y-13740000D02*
G75*
G02*
X7525000Y-13740000I25000J0D01*
G01*
X7694706Y-7330294D02*
G75*
G02*
X7644706Y-7330294I-25000J0D01*
G01*
X7644706Y-7330294D02*
G75*
G02*
X7694706Y-7330294I25000J0D01*
G01*
X7694706Y-7669706D02*
G75*
G02*
X7644706Y-7669706I-25000J0D01*
G01*
X7644706Y-7669706D02*
G75*
G02*
X7694706Y-7669706I25000J0D01*
G01*
X7694706Y-13330294D02*
G75*
G02*
X7644706Y-13330294I-25000J0D01*
G01*
X7644706Y-13330294D02*
G75*
G02*
X7694706Y-13330294I25000J0D01*
G01*
X7694706Y-13669706D02*
G75*
G02*
X7644706Y-13669706I-25000J0D01*
G01*
X7644706Y-13669706D02*
G75*
G02*
X7694706Y-13669706I25000J0D01*
G01*
X7765000Y-7500000D02*
G75*
G02*
X7715000Y-7500000I-25000J0D01*
G01*
X7715000Y-7500000D02*
G75*
G02*
X7765000Y-7500000I25000J0D01*
G01*
X7765000Y-13500000D02*
G75*
G02*
X7715000Y-13500000I-25000J0D01*
G01*
X7715000Y-13500000D02*
G75*
G02*
X7765000Y-13500000I25000J0D01*
G01*
X13285000Y-7500000D02*
G75*
G02*
X13235000Y-7500000I-25000J0D01*
G01*
X13235000Y-7500000D02*
G75*
G02*
X13285000Y-7500000I25000J0D01*
G01*
X13285000Y-13500000D02*
G75*
G02*
X13235000Y-13500000I-25000J0D01*
G01*
X13235000Y-13500000D02*
G75*
G02*
X13285000Y-13500000I25000J0D01*
G01*
X13355294Y-7330294D02*
G75*
G02*
X13305294Y-7330294I-25000J0D01*
G01*
X13305294Y-7330294D02*
G75*
G02*
X13355294Y-7330294I25000J0D01*
G01*
X13355294Y-7669706D02*
G75*
G02*
X13305294Y-7669706I-25000J0D01*
G01*
X13305294Y-7669706D02*
G75*
G02*
X13355294Y-7669706I25000J0D01*
G01*
X13355294Y-13330294D02*
G75*
G02*
X13305294Y-13330294I-25000J0D01*
G01*
X13305294Y-13330294D02*
G75*
G02*
X13355294Y-13330294I25000J0D01*
G01*
X13355294Y-13669706D02*
G75*
G02*
X13305294Y-13669706I-25000J0D01*
G01*
X13305294Y-13669706D02*
G75*
G02*
X13355294Y-13669706I25000J0D01*
G01*
X13525000Y-7260000D02*
G75*
G02*
X13475000Y-7260000I-25000J0D01*
G01*
X13475000Y-7260000D02*
G75*
G02*
X13525000Y-7260000I25000J0D01*
G01*
X13525000Y-7740000D02*
G75*
G02*
X13475000Y-7740000I-25000J0D01*
G01*
X13475000Y-7740000D02*
G75*
G02*
X13525000Y-7740000I25000J0D01*
G01*
X13525000Y-13260000D02*
G75*
G02*
X13475000Y-13260000I-25000J0D01*
G01*
X13475000Y-13260000D02*
G75*
G02*
X13525000Y-13260000I25000J0D01*
G01*
X13525000Y-13740000D02*
G75*
G02*
X13475000Y-13740000I-25000J0D01*
G01*
X13475000Y-13740000D02*
G75*
G02*
X13525000Y-13740000I25000J0D01*
G01*
X13694706Y-7330294D02*
G75*
G02*
X13644706Y-7330294I-25000J0D01*
G01*
X13644706Y-7330294D02*
G75*
G02*
X13694706Y-7330294I25000J0D01*
G01*
X13694706Y-7669706D02*
G75*
G02*
X13644706Y-7669706I-25000J0D01*
G01*
X13644706Y-7669706D02*
G75*
G02*
X13694706Y-7669706I25000J0D01*
G01*
X13694706Y-13330294D02*
G75*
G02*
X13644706Y-13330294I-25000J0D01*
G01*
X13644706Y-13330294D02*
G75*
G02*
X13694706Y-13330294I25000J0D01*
G01*
X13694706Y-13669706D02*
G75*
G02*
X13644706Y-13669706I-25000J0D01*
G01*
X13644706Y-13669706D02*
G75*
G02*
X13694706Y-13669706I25000J0D01*
G01*
X13765000Y-7500000D02*
G75*
G02*
X13715000Y-7500000I-25000J0D01*
G01*
X13715000Y-7500000D02*
G75*
G02*
X13765000Y-7500000I25000J0D01*
G01*
X13765000Y-13500000D02*
G75*
G02*
X13715000Y-13500000I-25000J0D01*
G01*
X13715000Y-13500000D02*
G75*
G02*
X13765000Y-13500000I25000J0D01*
G01*
X7623452Y-10589000D02*
X7623452Y-10689000D01*
X7573452Y-10639000D02*
X7673452Y-10639000D01*
X7623452Y-10839000D02*
X7623452Y-10939000D01*
X7573452Y-10889000D02*
X7673452Y-10889000D01*
X8908500Y-10270000D02*
X8908500Y-10370000D01*
X8858500Y-10320000D02*
X8958500Y-10320000D01*
X9162500Y-10270000D02*
X9162500Y-10370000D01*
X9112500Y-10320000D02*
X9212500Y-10320000D01*
X9416500Y-10270000D02*
X9416500Y-10370000D01*
X9366500Y-10320000D02*
X9466500Y-10320000D01*
X9670500Y-10270000D02*
X9670500Y-10370000D01*
X9620500Y-10320000D02*
X9720500Y-10320000D01*
X9924500Y-10270000D02*
X9924500Y-10370000D01*
X9874500Y-10320000D02*
X9974500Y-10320000D01*
X13458077Y-9013875D02*
X13458077Y-9113875D01*
X13408077Y-9063875D02*
X13508077Y-9063875D01*
X13458077Y-9263875D02*
X13458077Y-9363875D01*
X13408077Y-9313875D02*
X13508077Y-9313875D01*
X13458077Y-10079125D02*
X13458077Y-10179125D01*
X13408077Y-10129125D02*
X13508077Y-10129125D01*
X13458077Y-10329125D02*
X13458077Y-10429125D01*
X13408077Y-10379125D02*
X13508077Y-10379125D01*
D13*
X7513514Y-9315063D02*
X7513514Y-9242937D01*
X7441389Y-9242937D01*
X7441389Y-9315063D01*
X7513514Y-9315063D01*
X7513514Y-9615063D02*
X7513514Y-9542937D01*
X7441389Y-9542937D01*
X7441389Y-9615063D01*
X7513514Y-9615063D01*
X7513514Y-9915063D02*
X7513514Y-9842937D01*
X7441389Y-9842937D01*
X7441389Y-9915063D01*
X7513514Y-9915063D01*
X7813514Y-9315063D02*
X7813514Y-9242937D01*
X7741389Y-9242937D01*
X7741389Y-9315063D01*
X7813514Y-9315063D01*
X7813514Y-9615063D02*
X7813514Y-9542937D01*
X7741389Y-9542937D01*
X7741389Y-9615063D01*
X7813514Y-9615063D01*
X7813514Y-9915063D02*
X7813514Y-9842937D01*
X7741389Y-9842937D01*
X7741389Y-9915063D01*
X7813514Y-9915063D01*
D14*
X7743452Y-11586000D02*
X7808452Y-11521000D01*
X7743452Y-11456000D01*
X7678452Y-11521000D01*
X7743452Y-11586000D01*
X7743452Y-12094000D02*
X7808452Y-12029000D01*
X7743452Y-11964000D01*
X7678452Y-12029000D01*
X7743452Y-12094000D01*
X9114452Y-13139000D02*
X9179452Y-13074000D01*
X9114452Y-13009000D01*
X9049452Y-13074000D01*
X9114452Y-13139000D01*
X9622452Y-13139000D02*
X9687452Y-13074000D01*
X9622452Y-13009000D01*
X9557452Y-13074000D01*
X9622452Y-13139000D01*
X9880000Y-7685000D02*
X9945000Y-7620000D01*
X9880000Y-7555000D01*
X9815000Y-7620000D01*
X9880000Y-7685000D01*
X10380000Y-7685000D02*
X10445000Y-7620000D01*
X10380000Y-7555000D01*
X10315000Y-7620000D01*
X10380000Y-7685000D01*
X10518952Y-13144000D02*
X10583952Y-13079000D01*
X10518952Y-13014000D01*
X10453952Y-13079000D01*
X10518952Y-13144000D01*
X10880000Y-7685000D02*
X10945000Y-7620000D01*
X10880000Y-7555000D01*
X10815000Y-7620000D01*
X10880000Y-7685000D01*
X11026952Y-13144000D02*
X11091952Y-13079000D01*
X11026952Y-13014000D01*
X10961952Y-13079000D01*
X11026952Y-13144000D01*
X11960952Y-13168000D02*
X12025952Y-13103000D01*
X11960952Y-13038000D01*
X11895952Y-13103000D01*
X11960952Y-13168000D01*
X12468952Y-13168000D02*
X12533952Y-13103000D01*
X12468952Y-13038000D01*
X12403952Y-13103000D01*
X12468952Y-13168000D01*
D15*
X8499250Y-7520000D02*
X8669250Y-7690000D01*
X8669250Y-7520000D02*
X8499250Y-7690000D01*
X8669250Y-7605000D02*
G75*
G02*
X8499250Y-7605000I-85000J0D01*
G01*
X8499250Y-7605000D02*
G75*
G02*
X8669250Y-7605000I85000J0D01*
G01*
X8895250Y-7520000D02*
X9065250Y-7690000D01*
X9065250Y-7520000D02*
X8895250Y-7690000D01*
X9065250Y-7605000D02*
G75*
G02*
X8895250Y-7605000I-85000J0D01*
G01*
X8895250Y-7605000D02*
G75*
G02*
X9065250Y-7605000I85000J0D01*
G01*
D16*
X7340000Y-7340000D02*
X7660000Y-7660000D01*
X7660000Y-7340000D02*
X7340000Y-7660000D01*
X7500000Y-7340000D02*
X7500000Y-7660000D01*
X7340000Y-7500000D02*
X7660000Y-7500000D01*
X7340000Y-13340000D02*
X7660000Y-13660000D01*
X7660000Y-13340000D02*
X7340000Y-13660000D01*
X7500000Y-13340000D02*
X7500000Y-13660000D01*
X7340000Y-13500000D02*
X7660000Y-13500000D01*
X13340000Y-7340000D02*
X13660000Y-7660000D01*
X13660000Y-7340000D02*
X13340000Y-7660000D01*
X13500000Y-7340000D02*
X13500000Y-7660000D01*
X13340000Y-7500000D02*
X13660000Y-7500000D01*
X13340000Y-13340000D02*
X13660000Y-13660000D01*
X13660000Y-13340000D02*
X13340000Y-13660000D01*
X13500000Y-13340000D02*
X13500000Y-13660000D01*
X13340000Y-13500000D02*
X13660000Y-13500000D01*
D11*
X7258277Y-14313984D02*
X7258277Y-14113984D01*
X7258277Y-14113984D02*
X7305896Y-14113984D01*
X7305896Y-14113984D02*
X7334467Y-14123508D01*
X7334467Y-14123508D02*
X7353515Y-14142555D01*
X7353515Y-14142555D02*
X7363039Y-14161603D01*
X7363039Y-14161603D02*
X7372562Y-14199698D01*
X7372562Y-14199698D02*
X7372562Y-14228269D01*
X7372562Y-14228269D02*
X7363039Y-14266365D01*
X7363039Y-14266365D02*
X7353515Y-14285412D01*
X7353515Y-14285412D02*
X7334467Y-14304460D01*
X7334467Y-14304460D02*
X7305896Y-14313984D01*
X7305896Y-14313984D02*
X7258277Y-14313984D01*
X7458277Y-14313984D02*
X7458277Y-14180650D01*
X7458277Y-14218746D02*
X7467801Y-14199698D01*
X7467801Y-14199698D02*
X7477324Y-14190174D01*
X7477324Y-14190174D02*
X7496372Y-14180650D01*
X7496372Y-14180650D02*
X7515420Y-14180650D01*
X7582086Y-14313984D02*
X7582086Y-14180650D01*
X7582086Y-14113984D02*
X7572562Y-14123508D01*
X7572562Y-14123508D02*
X7582086Y-14133031D01*
X7582086Y-14133031D02*
X7591610Y-14123508D01*
X7591610Y-14123508D02*
X7582086Y-14113984D01*
X7582086Y-14113984D02*
X7582086Y-14133031D01*
X7705896Y-14313984D02*
X7686848Y-14304460D01*
X7686848Y-14304460D02*
X7677324Y-14285412D01*
X7677324Y-14285412D02*
X7677324Y-14113984D01*
X7810658Y-14313984D02*
X7791610Y-14304460D01*
X7791610Y-14304460D02*
X7782086Y-14285412D01*
X7782086Y-14285412D02*
X7782086Y-14113984D01*
X8039229Y-14313984D02*
X8039229Y-14113984D01*
X8039229Y-14113984D02*
X8105896Y-14256841D01*
X8105896Y-14256841D02*
X8172562Y-14113984D01*
X8172562Y-14113984D02*
X8172562Y-14313984D01*
X8353515Y-14313984D02*
X8353515Y-14209222D01*
X8353515Y-14209222D02*
X8343991Y-14190174D01*
X8343991Y-14190174D02*
X8324943Y-14180650D01*
X8324943Y-14180650D02*
X8286848Y-14180650D01*
X8286848Y-14180650D02*
X8267801Y-14190174D01*
X8353515Y-14304460D02*
X8334467Y-14313984D01*
X8334467Y-14313984D02*
X8286848Y-14313984D01*
X8286848Y-14313984D02*
X8267801Y-14304460D01*
X8267801Y-14304460D02*
X8258277Y-14285412D01*
X8258277Y-14285412D02*
X8258277Y-14266365D01*
X8258277Y-14266365D02*
X8267801Y-14247317D01*
X8267801Y-14247317D02*
X8286848Y-14237793D01*
X8286848Y-14237793D02*
X8334467Y-14237793D01*
X8334467Y-14237793D02*
X8353515Y-14228269D01*
X8448753Y-14180650D02*
X8448753Y-14380650D01*
X8448753Y-14190174D02*
X8467801Y-14180650D01*
X8467801Y-14180650D02*
X8505896Y-14180650D01*
X8505896Y-14180650D02*
X8524944Y-14190174D01*
X8524944Y-14190174D02*
X8534467Y-14199698D01*
X8534467Y-14199698D02*
X8543991Y-14218746D01*
X8543991Y-14218746D02*
X8543991Y-14275888D01*
X8543991Y-14275888D02*
X8534467Y-14294936D01*
X8534467Y-14294936D02*
X8524944Y-14304460D01*
X8524944Y-14304460D02*
X8505896Y-14313984D01*
X8505896Y-14313984D02*
X8467801Y-14313984D01*
X8467801Y-14313984D02*
X8448753Y-14304460D01*
X8629705Y-14294936D02*
X8639229Y-14304460D01*
X8639229Y-14304460D02*
X8629705Y-14313984D01*
X8629705Y-14313984D02*
X8620182Y-14304460D01*
X8620182Y-14304460D02*
X8629705Y-14294936D01*
X8629705Y-14294936D02*
X8629705Y-14313984D01*
X8629705Y-14190174D02*
X8639229Y-14199698D01*
X8639229Y-14199698D02*
X8629705Y-14209222D01*
X8629705Y-14209222D02*
X8620182Y-14199698D01*
X8620182Y-14199698D02*
X8629705Y-14190174D01*
X8629705Y-14190174D02*
X8629705Y-14209222D01*
D12*
X6967500Y-14627500D02*
X6997500Y-14657500D01*
X6997500Y-14627500D02*
X6967500Y-14657500D01*
D11*
X7296372Y-14533984D02*
X7315420Y-14533984D01*
X7315420Y-14533984D02*
X7334467Y-14543508D01*
X7334467Y-14543508D02*
X7343991Y-14553031D01*
X7343991Y-14553031D02*
X7353515Y-14572079D01*
X7353515Y-14572079D02*
X7363039Y-14610174D01*
X7363039Y-14610174D02*
X7363039Y-14657793D01*
X7363039Y-14657793D02*
X7353515Y-14695888D01*
X7353515Y-14695888D02*
X7343991Y-14714936D01*
X7343991Y-14714936D02*
X7334467Y-14724460D01*
X7334467Y-14724460D02*
X7315420Y-14733984D01*
X7315420Y-14733984D02*
X7296372Y-14733984D01*
X7296372Y-14733984D02*
X7277324Y-14724460D01*
X7277324Y-14724460D02*
X7267801Y-14714936D01*
X7267801Y-14714936D02*
X7258277Y-14695888D01*
X7258277Y-14695888D02*
X7248753Y-14657793D01*
X7248753Y-14657793D02*
X7248753Y-14610174D01*
X7248753Y-14610174D02*
X7258277Y-14572079D01*
X7258277Y-14572079D02*
X7267801Y-14553031D01*
X7267801Y-14553031D02*
X7277324Y-14543508D01*
X7277324Y-14543508D02*
X7296372Y-14533984D01*
X7448753Y-14714936D02*
X7458277Y-14724460D01*
X7458277Y-14724460D02*
X7448753Y-14733984D01*
X7448753Y-14733984D02*
X7439229Y-14724460D01*
X7439229Y-14724460D02*
X7448753Y-14714936D01*
X7448753Y-14714936D02*
X7448753Y-14733984D01*
X7524943Y-14533984D02*
X7648753Y-14533984D01*
X7648753Y-14533984D02*
X7582086Y-14610174D01*
X7582086Y-14610174D02*
X7610658Y-14610174D01*
X7610658Y-14610174D02*
X7629705Y-14619698D01*
X7629705Y-14619698D02*
X7639229Y-14629222D01*
X7639229Y-14629222D02*
X7648753Y-14648269D01*
X7648753Y-14648269D02*
X7648753Y-14695888D01*
X7648753Y-14695888D02*
X7639229Y-14714936D01*
X7639229Y-14714936D02*
X7629705Y-14724460D01*
X7629705Y-14724460D02*
X7610658Y-14733984D01*
X7610658Y-14733984D02*
X7553515Y-14733984D01*
X7553515Y-14733984D02*
X7534467Y-14724460D01*
X7534467Y-14724460D02*
X7524943Y-14714936D01*
X7772562Y-14533984D02*
X7791610Y-14533984D01*
X7791610Y-14533984D02*
X7810658Y-14543508D01*
X7810658Y-14543508D02*
X7820182Y-14553031D01*
X7820182Y-14553031D02*
X7829705Y-14572079D01*
X7829705Y-14572079D02*
X7839229Y-14610174D01*
X7839229Y-14610174D02*
X7839229Y-14657793D01*
X7839229Y-14657793D02*
X7829705Y-14695888D01*
X7829705Y-14695888D02*
X7820182Y-14714936D01*
X7820182Y-14714936D02*
X7810658Y-14724460D01*
X7810658Y-14724460D02*
X7791610Y-14733984D01*
X7791610Y-14733984D02*
X7772562Y-14733984D01*
X7772562Y-14733984D02*
X7753515Y-14724460D01*
X7753515Y-14724460D02*
X7743991Y-14714936D01*
X7743991Y-14714936D02*
X7734467Y-14695888D01*
X7734467Y-14695888D02*
X7724943Y-14657793D01*
X7724943Y-14657793D02*
X7724943Y-14610174D01*
X7724943Y-14610174D02*
X7734467Y-14572079D01*
X7734467Y-14572079D02*
X7743991Y-14553031D01*
X7743991Y-14553031D02*
X7753515Y-14543508D01*
X7753515Y-14543508D02*
X7772562Y-14533984D01*
X7963039Y-14533984D02*
X7982086Y-14533984D01*
X7982086Y-14533984D02*
X8001134Y-14543508D01*
X8001134Y-14543508D02*
X8010658Y-14553031D01*
X8010658Y-14553031D02*
X8020182Y-14572079D01*
X8020182Y-14572079D02*
X8029705Y-14610174D01*
X8029705Y-14610174D02*
X8029705Y-14657793D01*
X8029705Y-14657793D02*
X8020182Y-14695888D01*
X8020182Y-14695888D02*
X8010658Y-14714936D01*
X8010658Y-14714936D02*
X8001134Y-14724460D01*
X8001134Y-14724460D02*
X7982086Y-14733984D01*
X7982086Y-14733984D02*
X7963039Y-14733984D01*
X7963039Y-14733984D02*
X7943991Y-14724460D01*
X7943991Y-14724460D02*
X7934467Y-14714936D01*
X7934467Y-14714936D02*
X7924943Y-14695888D01*
X7924943Y-14695888D02*
X7915420Y-14657793D01*
X7915420Y-14657793D02*
X7915420Y-14610174D01*
X7915420Y-14610174D02*
X7924943Y-14572079D01*
X7924943Y-14572079D02*
X7934467Y-14553031D01*
X7934467Y-14553031D02*
X7943991Y-14543508D01*
X7943991Y-14543508D02*
X7963039Y-14533984D01*
X8115420Y-14733984D02*
X8115420Y-14600650D01*
X8115420Y-14619698D02*
X8124943Y-14610174D01*
X8124943Y-14610174D02*
X8143991Y-14600650D01*
X8143991Y-14600650D02*
X8172563Y-14600650D01*
X8172563Y-14600650D02*
X8191610Y-14610174D01*
X8191610Y-14610174D02*
X8201134Y-14629222D01*
X8201134Y-14629222D02*
X8201134Y-14733984D01*
X8201134Y-14629222D02*
X8210658Y-14610174D01*
X8210658Y-14610174D02*
X8229705Y-14600650D01*
X8229705Y-14600650D02*
X8258277Y-14600650D01*
X8258277Y-14600650D02*
X8277324Y-14610174D01*
X8277324Y-14610174D02*
X8286848Y-14629222D01*
X8286848Y-14629222D02*
X8286848Y-14733984D01*
X8382086Y-14733984D02*
X8382086Y-14600650D01*
X8382086Y-14619698D02*
X8391610Y-14610174D01*
X8391610Y-14610174D02*
X8410658Y-14600650D01*
X8410658Y-14600650D02*
X8439229Y-14600650D01*
X8439229Y-14600650D02*
X8458277Y-14610174D01*
X8458277Y-14610174D02*
X8467801Y-14629222D01*
X8467801Y-14629222D02*
X8467801Y-14733984D01*
X8467801Y-14629222D02*
X8477325Y-14610174D01*
X8477325Y-14610174D02*
X8496372Y-14600650D01*
X8496372Y-14600650D02*
X8524944Y-14600650D01*
X8524944Y-14600650D02*
X8543991Y-14610174D01*
X8543991Y-14610174D02*
X8553515Y-14629222D01*
X8553515Y-14629222D02*
X8553515Y-14733984D01*
X8943991Y-14524460D02*
X8772563Y-14781603D01*
X9201134Y-14533984D02*
X9220182Y-14533984D01*
X9220182Y-14533984D02*
X9239229Y-14543508D01*
X9239229Y-14543508D02*
X9248753Y-14553031D01*
X9248753Y-14553031D02*
X9258277Y-14572079D01*
X9258277Y-14572079D02*
X9267801Y-14610174D01*
X9267801Y-14610174D02*
X9267801Y-14657793D01*
X9267801Y-14657793D02*
X9258277Y-14695888D01*
X9258277Y-14695888D02*
X9248753Y-14714936D01*
X9248753Y-14714936D02*
X9239229Y-14724460D01*
X9239229Y-14724460D02*
X9220182Y-14733984D01*
X9220182Y-14733984D02*
X9201134Y-14733984D01*
X9201134Y-14733984D02*
X9182087Y-14724460D01*
X9182087Y-14724460D02*
X9172563Y-14714936D01*
X9172563Y-14714936D02*
X9163039Y-14695888D01*
X9163039Y-14695888D02*
X9153515Y-14657793D01*
X9153515Y-14657793D02*
X9153515Y-14610174D01*
X9153515Y-14610174D02*
X9163039Y-14572079D01*
X9163039Y-14572079D02*
X9172563Y-14553031D01*
X9172563Y-14553031D02*
X9182087Y-14543508D01*
X9182087Y-14543508D02*
X9201134Y-14533984D01*
X9353515Y-14714936D02*
X9363039Y-14724460D01*
X9363039Y-14724460D02*
X9353515Y-14733984D01*
X9353515Y-14733984D02*
X9343991Y-14724460D01*
X9343991Y-14724460D02*
X9353515Y-14714936D01*
X9353515Y-14714936D02*
X9353515Y-14733984D01*
X9486848Y-14533984D02*
X9505896Y-14533984D01*
X9505896Y-14533984D02*
X9524944Y-14543508D01*
X9524944Y-14543508D02*
X9534468Y-14553031D01*
X9534468Y-14553031D02*
X9543991Y-14572079D01*
X9543991Y-14572079D02*
X9553515Y-14610174D01*
X9553515Y-14610174D02*
X9553515Y-14657793D01*
X9553515Y-14657793D02*
X9543991Y-14695888D01*
X9543991Y-14695888D02*
X9534468Y-14714936D01*
X9534468Y-14714936D02*
X9524944Y-14724460D01*
X9524944Y-14724460D02*
X9505896Y-14733984D01*
X9505896Y-14733984D02*
X9486848Y-14733984D01*
X9486848Y-14733984D02*
X9467801Y-14724460D01*
X9467801Y-14724460D02*
X9458277Y-14714936D01*
X9458277Y-14714936D02*
X9448753Y-14695888D01*
X9448753Y-14695888D02*
X9439229Y-14657793D01*
X9439229Y-14657793D02*
X9439229Y-14610174D01*
X9439229Y-14610174D02*
X9448753Y-14572079D01*
X9448753Y-14572079D02*
X9458277Y-14553031D01*
X9458277Y-14553031D02*
X9467801Y-14543508D01*
X9467801Y-14543508D02*
X9486848Y-14533984D01*
X9743991Y-14733984D02*
X9629706Y-14733984D01*
X9686848Y-14733984D02*
X9686848Y-14533984D01*
X9686848Y-14533984D02*
X9667801Y-14562555D01*
X9667801Y-14562555D02*
X9648753Y-14581603D01*
X9648753Y-14581603D02*
X9629706Y-14591127D01*
X9934468Y-14733984D02*
X9820182Y-14733984D01*
X9877325Y-14733984D02*
X9877325Y-14533984D01*
X9877325Y-14533984D02*
X9858277Y-14562555D01*
X9858277Y-14562555D02*
X9839229Y-14581603D01*
X9839229Y-14581603D02*
X9820182Y-14591127D01*
X10048753Y-14619698D02*
X10029706Y-14610174D01*
X10029706Y-14610174D02*
X10020182Y-14600650D01*
X10020182Y-14600650D02*
X10010658Y-14581603D01*
X10010658Y-14581603D02*
X10010658Y-14572079D01*
X10010658Y-14572079D02*
X10020182Y-14553031D01*
X10020182Y-14553031D02*
X10029706Y-14543508D01*
X10029706Y-14543508D02*
X10048753Y-14533984D01*
X10048753Y-14533984D02*
X10086849Y-14533984D01*
X10086849Y-14533984D02*
X10105896Y-14543508D01*
X10105896Y-14543508D02*
X10115420Y-14553031D01*
X10115420Y-14553031D02*
X10124944Y-14572079D01*
X10124944Y-14572079D02*
X10124944Y-14581603D01*
X10124944Y-14581603D02*
X10115420Y-14600650D01*
X10115420Y-14600650D02*
X10105896Y-14610174D01*
X10105896Y-14610174D02*
X10086849Y-14619698D01*
X10086849Y-14619698D02*
X10048753Y-14619698D01*
X10048753Y-14619698D02*
X10029706Y-14629222D01*
X10029706Y-14629222D02*
X10020182Y-14638746D01*
X10020182Y-14638746D02*
X10010658Y-14657793D01*
X10010658Y-14657793D02*
X10010658Y-14695888D01*
X10010658Y-14695888D02*
X10020182Y-14714936D01*
X10020182Y-14714936D02*
X10029706Y-14724460D01*
X10029706Y-14724460D02*
X10048753Y-14733984D01*
X10048753Y-14733984D02*
X10086849Y-14733984D01*
X10086849Y-14733984D02*
X10105896Y-14724460D01*
X10105896Y-14724460D02*
X10115420Y-14714936D01*
X10115420Y-14714936D02*
X10124944Y-14695888D01*
X10124944Y-14695888D02*
X10124944Y-14657793D01*
X10124944Y-14657793D02*
X10115420Y-14638746D01*
X10115420Y-14638746D02*
X10105896Y-14629222D01*
X10105896Y-14629222D02*
X10086849Y-14619698D01*
X10201134Y-14533984D02*
X10201134Y-14572079D01*
X10277325Y-14533984D02*
X10277325Y-14572079D01*
X10572563Y-14810174D02*
X10563039Y-14800650D01*
X10563039Y-14800650D02*
X10543991Y-14772079D01*
X10543991Y-14772079D02*
X10534468Y-14753031D01*
X10534468Y-14753031D02*
X10524944Y-14724460D01*
X10524944Y-14724460D02*
X10515420Y-14676841D01*
X10515420Y-14676841D02*
X10515420Y-14638746D01*
X10515420Y-14638746D02*
X10524944Y-14591127D01*
X10524944Y-14591127D02*
X10534468Y-14562555D01*
X10534468Y-14562555D02*
X10543991Y-14543508D01*
X10543991Y-14543508D02*
X10563039Y-14514936D01*
X10563039Y-14514936D02*
X10572563Y-14505412D01*
X10753515Y-14733984D02*
X10639230Y-14733984D01*
X10696372Y-14733984D02*
X10696372Y-14533984D01*
X10696372Y-14533984D02*
X10677325Y-14562555D01*
X10677325Y-14562555D02*
X10658277Y-14581603D01*
X10658277Y-14581603D02*
X10639230Y-14591127D01*
X10924944Y-14600650D02*
X10924944Y-14733984D01*
X10877325Y-14524460D02*
X10829706Y-14667317D01*
X10829706Y-14667317D02*
X10953515Y-14667317D01*
X11058277Y-14619698D02*
X11039230Y-14610174D01*
X11039230Y-14610174D02*
X11029706Y-14600650D01*
X11029706Y-14600650D02*
X11020182Y-14581603D01*
X11020182Y-14581603D02*
X11020182Y-14572079D01*
X11020182Y-14572079D02*
X11029706Y-14553031D01*
X11029706Y-14553031D02*
X11039230Y-14543508D01*
X11039230Y-14543508D02*
X11058277Y-14533984D01*
X11058277Y-14533984D02*
X11096372Y-14533984D01*
X11096372Y-14533984D02*
X11115420Y-14543508D01*
X11115420Y-14543508D02*
X11124944Y-14553031D01*
X11124944Y-14553031D02*
X11134468Y-14572079D01*
X11134468Y-14572079D02*
X11134468Y-14581603D01*
X11134468Y-14581603D02*
X11124944Y-14600650D01*
X11124944Y-14600650D02*
X11115420Y-14610174D01*
X11115420Y-14610174D02*
X11096372Y-14619698D01*
X11096372Y-14619698D02*
X11058277Y-14619698D01*
X11058277Y-14619698D02*
X11039230Y-14629222D01*
X11039230Y-14629222D02*
X11029706Y-14638746D01*
X11029706Y-14638746D02*
X11020182Y-14657793D01*
X11020182Y-14657793D02*
X11020182Y-14695888D01*
X11020182Y-14695888D02*
X11029706Y-14714936D01*
X11029706Y-14714936D02*
X11039230Y-14724460D01*
X11039230Y-14724460D02*
X11058277Y-14733984D01*
X11058277Y-14733984D02*
X11096372Y-14733984D01*
X11096372Y-14733984D02*
X11115420Y-14724460D01*
X11115420Y-14724460D02*
X11124944Y-14714936D01*
X11124944Y-14714936D02*
X11134468Y-14695888D01*
X11134468Y-14695888D02*
X11134468Y-14657793D01*
X11134468Y-14657793D02*
X11124944Y-14638746D01*
X11124944Y-14638746D02*
X11115420Y-14629222D01*
X11115420Y-14629222D02*
X11096372Y-14619698D01*
X11372563Y-14733984D02*
X11372563Y-14533984D01*
X11458277Y-14733984D02*
X11458277Y-14629222D01*
X11458277Y-14629222D02*
X11448753Y-14610174D01*
X11448753Y-14610174D02*
X11429706Y-14600650D01*
X11429706Y-14600650D02*
X11401134Y-14600650D01*
X11401134Y-14600650D02*
X11382087Y-14610174D01*
X11382087Y-14610174D02*
X11372563Y-14619698D01*
X11582087Y-14733984D02*
X11563039Y-14724460D01*
X11563039Y-14724460D02*
X11553515Y-14714936D01*
X11553515Y-14714936D02*
X11543991Y-14695888D01*
X11543991Y-14695888D02*
X11543991Y-14638746D01*
X11543991Y-14638746D02*
X11553515Y-14619698D01*
X11553515Y-14619698D02*
X11563039Y-14610174D01*
X11563039Y-14610174D02*
X11582087Y-14600650D01*
X11582087Y-14600650D02*
X11610658Y-14600650D01*
X11610658Y-14600650D02*
X11629706Y-14610174D01*
X11629706Y-14610174D02*
X11639230Y-14619698D01*
X11639230Y-14619698D02*
X11648753Y-14638746D01*
X11648753Y-14638746D02*
X11648753Y-14695888D01*
X11648753Y-14695888D02*
X11639230Y-14714936D01*
X11639230Y-14714936D02*
X11629706Y-14724460D01*
X11629706Y-14724460D02*
X11610658Y-14733984D01*
X11610658Y-14733984D02*
X11582087Y-14733984D01*
X11763039Y-14733984D02*
X11743991Y-14724460D01*
X11743991Y-14724460D02*
X11734468Y-14705412D01*
X11734468Y-14705412D02*
X11734468Y-14533984D01*
X11915420Y-14724460D02*
X11896372Y-14733984D01*
X11896372Y-14733984D02*
X11858277Y-14733984D01*
X11858277Y-14733984D02*
X11839230Y-14724460D01*
X11839230Y-14724460D02*
X11829706Y-14705412D01*
X11829706Y-14705412D02*
X11829706Y-14629222D01*
X11829706Y-14629222D02*
X11839230Y-14610174D01*
X11839230Y-14610174D02*
X11858277Y-14600650D01*
X11858277Y-14600650D02*
X11896372Y-14600650D01*
X11896372Y-14600650D02*
X11915420Y-14610174D01*
X11915420Y-14610174D02*
X11924944Y-14629222D01*
X11924944Y-14629222D02*
X11924944Y-14648269D01*
X11924944Y-14648269D02*
X11829706Y-14667317D01*
X12001134Y-14724460D02*
X12020182Y-14733984D01*
X12020182Y-14733984D02*
X12058277Y-14733984D01*
X12058277Y-14733984D02*
X12077325Y-14724460D01*
X12077325Y-14724460D02*
X12086849Y-14705412D01*
X12086849Y-14705412D02*
X12086849Y-14695888D01*
X12086849Y-14695888D02*
X12077325Y-14676841D01*
X12077325Y-14676841D02*
X12058277Y-14667317D01*
X12058277Y-14667317D02*
X12029706Y-14667317D01*
X12029706Y-14667317D02*
X12010658Y-14657793D01*
X12010658Y-14657793D02*
X12001134Y-14638746D01*
X12001134Y-14638746D02*
X12001134Y-14629222D01*
X12001134Y-14629222D02*
X12010658Y-14610174D01*
X12010658Y-14610174D02*
X12029706Y-14600650D01*
X12029706Y-14600650D02*
X12058277Y-14600650D01*
X12058277Y-14600650D02*
X12077325Y-14610174D01*
X12153515Y-14810174D02*
X12163039Y-14800650D01*
X12163039Y-14800650D02*
X12182087Y-14772079D01*
X12182087Y-14772079D02*
X12191611Y-14753031D01*
X12191611Y-14753031D02*
X12201134Y-14724460D01*
X12201134Y-14724460D02*
X12210658Y-14676841D01*
X12210658Y-14676841D02*
X12210658Y-14638746D01*
X12210658Y-14638746D02*
X12201134Y-14591127D01*
X12201134Y-14591127D02*
X12191611Y-14562555D01*
X12191611Y-14562555D02*
X12182087Y-14543508D01*
X12182087Y-14543508D02*
X12163039Y-14514936D01*
X12163039Y-14514936D02*
X12153515Y-14505412D01*
D12*
X6997500Y-14906500D02*
G75*
G02*
X6947500Y-14906500I-25000J0D01*
G01*
X6947500Y-14906500D02*
G75*
G02*
X6997500Y-14906500I25000J0D01*
G01*
D11*
X7296372Y-14797984D02*
X7315420Y-14797984D01*
X7315420Y-14797984D02*
X7334467Y-14807508D01*
X7334467Y-14807508D02*
X7343991Y-14817031D01*
X7343991Y-14817031D02*
X7353515Y-14836079D01*
X7353515Y-14836079D02*
X7363039Y-14874174D01*
X7363039Y-14874174D02*
X7363039Y-14921793D01*
X7363039Y-14921793D02*
X7353515Y-14959888D01*
X7353515Y-14959888D02*
X7343991Y-14978936D01*
X7343991Y-14978936D02*
X7334467Y-14988460D01*
X7334467Y-14988460D02*
X7315420Y-14997984D01*
X7315420Y-14997984D02*
X7296372Y-14997984D01*
X7296372Y-14997984D02*
X7277324Y-14988460D01*
X7277324Y-14988460D02*
X7267801Y-14978936D01*
X7267801Y-14978936D02*
X7258277Y-14959888D01*
X7258277Y-14959888D02*
X7248753Y-14921793D01*
X7248753Y-14921793D02*
X7248753Y-14874174D01*
X7248753Y-14874174D02*
X7258277Y-14836079D01*
X7258277Y-14836079D02*
X7267801Y-14817031D01*
X7267801Y-14817031D02*
X7277324Y-14807508D01*
X7277324Y-14807508D02*
X7296372Y-14797984D01*
X7448753Y-14978936D02*
X7458277Y-14988460D01*
X7458277Y-14988460D02*
X7448753Y-14997984D01*
X7448753Y-14997984D02*
X7439229Y-14988460D01*
X7439229Y-14988460D02*
X7448753Y-14978936D01*
X7448753Y-14978936D02*
X7448753Y-14997984D01*
X7639229Y-14797984D02*
X7543991Y-14797984D01*
X7543991Y-14797984D02*
X7534467Y-14893222D01*
X7534467Y-14893222D02*
X7543991Y-14883698D01*
X7543991Y-14883698D02*
X7563039Y-14874174D01*
X7563039Y-14874174D02*
X7610658Y-14874174D01*
X7610658Y-14874174D02*
X7629705Y-14883698D01*
X7629705Y-14883698D02*
X7639229Y-14893222D01*
X7639229Y-14893222D02*
X7648753Y-14912269D01*
X7648753Y-14912269D02*
X7648753Y-14959888D01*
X7648753Y-14959888D02*
X7639229Y-14978936D01*
X7639229Y-14978936D02*
X7629705Y-14988460D01*
X7629705Y-14988460D02*
X7610658Y-14997984D01*
X7610658Y-14997984D02*
X7563039Y-14997984D01*
X7563039Y-14997984D02*
X7543991Y-14988460D01*
X7543991Y-14988460D02*
X7534467Y-14978936D01*
X7772562Y-14797984D02*
X7791610Y-14797984D01*
X7791610Y-14797984D02*
X7810658Y-14807508D01*
X7810658Y-14807508D02*
X7820182Y-14817031D01*
X7820182Y-14817031D02*
X7829705Y-14836079D01*
X7829705Y-14836079D02*
X7839229Y-14874174D01*
X7839229Y-14874174D02*
X7839229Y-14921793D01*
X7839229Y-14921793D02*
X7829705Y-14959888D01*
X7829705Y-14959888D02*
X7820182Y-14978936D01*
X7820182Y-14978936D02*
X7810658Y-14988460D01*
X7810658Y-14988460D02*
X7791610Y-14997984D01*
X7791610Y-14997984D02*
X7772562Y-14997984D01*
X7772562Y-14997984D02*
X7753515Y-14988460D01*
X7753515Y-14988460D02*
X7743991Y-14978936D01*
X7743991Y-14978936D02*
X7734467Y-14959888D01*
X7734467Y-14959888D02*
X7724943Y-14921793D01*
X7724943Y-14921793D02*
X7724943Y-14874174D01*
X7724943Y-14874174D02*
X7734467Y-14836079D01*
X7734467Y-14836079D02*
X7743991Y-14817031D01*
X7743991Y-14817031D02*
X7753515Y-14807508D01*
X7753515Y-14807508D02*
X7772562Y-14797984D01*
X7963039Y-14797984D02*
X7982086Y-14797984D01*
X7982086Y-14797984D02*
X8001134Y-14807508D01*
X8001134Y-14807508D02*
X8010658Y-14817031D01*
X8010658Y-14817031D02*
X8020182Y-14836079D01*
X8020182Y-14836079D02*
X8029705Y-14874174D01*
X8029705Y-14874174D02*
X8029705Y-14921793D01*
X8029705Y-14921793D02*
X8020182Y-14959888D01*
X8020182Y-14959888D02*
X8010658Y-14978936D01*
X8010658Y-14978936D02*
X8001134Y-14988460D01*
X8001134Y-14988460D02*
X7982086Y-14997984D01*
X7982086Y-14997984D02*
X7963039Y-14997984D01*
X7963039Y-14997984D02*
X7943991Y-14988460D01*
X7943991Y-14988460D02*
X7934467Y-14978936D01*
X7934467Y-14978936D02*
X7924943Y-14959888D01*
X7924943Y-14959888D02*
X7915420Y-14921793D01*
X7915420Y-14921793D02*
X7915420Y-14874174D01*
X7915420Y-14874174D02*
X7924943Y-14836079D01*
X7924943Y-14836079D02*
X7934467Y-14817031D01*
X7934467Y-14817031D02*
X7943991Y-14807508D01*
X7943991Y-14807508D02*
X7963039Y-14797984D01*
X8115420Y-14997984D02*
X8115420Y-14864650D01*
X8115420Y-14883698D02*
X8124943Y-14874174D01*
X8124943Y-14874174D02*
X8143991Y-14864650D01*
X8143991Y-14864650D02*
X8172563Y-14864650D01*
X8172563Y-14864650D02*
X8191610Y-14874174D01*
X8191610Y-14874174D02*
X8201134Y-14893222D01*
X8201134Y-14893222D02*
X8201134Y-14997984D01*
X8201134Y-14893222D02*
X8210658Y-14874174D01*
X8210658Y-14874174D02*
X8229705Y-14864650D01*
X8229705Y-14864650D02*
X8258277Y-14864650D01*
X8258277Y-14864650D02*
X8277324Y-14874174D01*
X8277324Y-14874174D02*
X8286848Y-14893222D01*
X8286848Y-14893222D02*
X8286848Y-14997984D01*
X8382086Y-14997984D02*
X8382086Y-14864650D01*
X8382086Y-14883698D02*
X8391610Y-14874174D01*
X8391610Y-14874174D02*
X8410658Y-14864650D01*
X8410658Y-14864650D02*
X8439229Y-14864650D01*
X8439229Y-14864650D02*
X8458277Y-14874174D01*
X8458277Y-14874174D02*
X8467801Y-14893222D01*
X8467801Y-14893222D02*
X8467801Y-14997984D01*
X8467801Y-14893222D02*
X8477325Y-14874174D01*
X8477325Y-14874174D02*
X8496372Y-14864650D01*
X8496372Y-14864650D02*
X8524944Y-14864650D01*
X8524944Y-14864650D02*
X8543991Y-14874174D01*
X8543991Y-14874174D02*
X8553515Y-14893222D01*
X8553515Y-14893222D02*
X8553515Y-14997984D01*
X8943991Y-14788460D02*
X8772563Y-15045603D01*
X9201134Y-14797984D02*
X9220182Y-14797984D01*
X9220182Y-14797984D02*
X9239229Y-14807508D01*
X9239229Y-14807508D02*
X9248753Y-14817031D01*
X9248753Y-14817031D02*
X9258277Y-14836079D01*
X9258277Y-14836079D02*
X9267801Y-14874174D01*
X9267801Y-14874174D02*
X9267801Y-14921793D01*
X9267801Y-14921793D02*
X9258277Y-14959888D01*
X9258277Y-14959888D02*
X9248753Y-14978936D01*
X9248753Y-14978936D02*
X9239229Y-14988460D01*
X9239229Y-14988460D02*
X9220182Y-14997984D01*
X9220182Y-14997984D02*
X9201134Y-14997984D01*
X9201134Y-14997984D02*
X9182087Y-14988460D01*
X9182087Y-14988460D02*
X9172563Y-14978936D01*
X9172563Y-14978936D02*
X9163039Y-14959888D01*
X9163039Y-14959888D02*
X9153515Y-14921793D01*
X9153515Y-14921793D02*
X9153515Y-14874174D01*
X9153515Y-14874174D02*
X9163039Y-14836079D01*
X9163039Y-14836079D02*
X9172563Y-14817031D01*
X9172563Y-14817031D02*
X9182087Y-14807508D01*
X9182087Y-14807508D02*
X9201134Y-14797984D01*
X9353515Y-14978936D02*
X9363039Y-14988460D01*
X9363039Y-14988460D02*
X9353515Y-14997984D01*
X9353515Y-14997984D02*
X9343991Y-14988460D01*
X9343991Y-14988460D02*
X9353515Y-14978936D01*
X9353515Y-14978936D02*
X9353515Y-14997984D01*
X9486848Y-14797984D02*
X9505896Y-14797984D01*
X9505896Y-14797984D02*
X9524944Y-14807508D01*
X9524944Y-14807508D02*
X9534468Y-14817031D01*
X9534468Y-14817031D02*
X9543991Y-14836079D01*
X9543991Y-14836079D02*
X9553515Y-14874174D01*
X9553515Y-14874174D02*
X9553515Y-14921793D01*
X9553515Y-14921793D02*
X9543991Y-14959888D01*
X9543991Y-14959888D02*
X9534468Y-14978936D01*
X9534468Y-14978936D02*
X9524944Y-14988460D01*
X9524944Y-14988460D02*
X9505896Y-14997984D01*
X9505896Y-14997984D02*
X9486848Y-14997984D01*
X9486848Y-14997984D02*
X9467801Y-14988460D01*
X9467801Y-14988460D02*
X9458277Y-14978936D01*
X9458277Y-14978936D02*
X9448753Y-14959888D01*
X9448753Y-14959888D02*
X9439229Y-14921793D01*
X9439229Y-14921793D02*
X9439229Y-14874174D01*
X9439229Y-14874174D02*
X9448753Y-14836079D01*
X9448753Y-14836079D02*
X9458277Y-14817031D01*
X9458277Y-14817031D02*
X9467801Y-14807508D01*
X9467801Y-14807508D02*
X9486848Y-14797984D01*
X9743991Y-14997984D02*
X9629706Y-14997984D01*
X9686848Y-14997984D02*
X9686848Y-14797984D01*
X9686848Y-14797984D02*
X9667801Y-14826555D01*
X9667801Y-14826555D02*
X9648753Y-14845603D01*
X9648753Y-14845603D02*
X9629706Y-14855127D01*
X9839229Y-14997984D02*
X9877325Y-14997984D01*
X9877325Y-14997984D02*
X9896372Y-14988460D01*
X9896372Y-14988460D02*
X9905896Y-14978936D01*
X9905896Y-14978936D02*
X9924944Y-14950365D01*
X9924944Y-14950365D02*
X9934468Y-14912269D01*
X9934468Y-14912269D02*
X9934468Y-14836079D01*
X9934468Y-14836079D02*
X9924944Y-14817031D01*
X9924944Y-14817031D02*
X9915420Y-14807508D01*
X9915420Y-14807508D02*
X9896372Y-14797984D01*
X9896372Y-14797984D02*
X9858277Y-14797984D01*
X9858277Y-14797984D02*
X9839229Y-14807508D01*
X9839229Y-14807508D02*
X9829706Y-14817031D01*
X9829706Y-14817031D02*
X9820182Y-14836079D01*
X9820182Y-14836079D02*
X9820182Y-14883698D01*
X9820182Y-14883698D02*
X9829706Y-14902746D01*
X9829706Y-14902746D02*
X9839229Y-14912269D01*
X9839229Y-14912269D02*
X9858277Y-14921793D01*
X9858277Y-14921793D02*
X9896372Y-14921793D01*
X9896372Y-14921793D02*
X9915420Y-14912269D01*
X9915420Y-14912269D02*
X9924944Y-14902746D01*
X9924944Y-14902746D02*
X9934468Y-14883698D01*
X10001134Y-14797984D02*
X10134468Y-14797984D01*
X10134468Y-14797984D02*
X10048753Y-14997984D01*
X10201134Y-14797984D02*
X10201134Y-14836079D01*
X10277325Y-14797984D02*
X10277325Y-14836079D01*
X10572563Y-15074174D02*
X10563039Y-15064650D01*
X10563039Y-15064650D02*
X10543991Y-15036079D01*
X10543991Y-15036079D02*
X10534468Y-15017031D01*
X10534468Y-15017031D02*
X10524944Y-14988460D01*
X10524944Y-14988460D02*
X10515420Y-14940841D01*
X10515420Y-14940841D02*
X10515420Y-14902746D01*
X10515420Y-14902746D02*
X10524944Y-14855127D01*
X10524944Y-14855127D02*
X10534468Y-14826555D01*
X10534468Y-14826555D02*
X10543991Y-14807508D01*
X10543991Y-14807508D02*
X10563039Y-14778936D01*
X10563039Y-14778936D02*
X10572563Y-14769412D01*
X10629706Y-14797984D02*
X10753515Y-14797984D01*
X10753515Y-14797984D02*
X10686849Y-14874174D01*
X10686849Y-14874174D02*
X10715420Y-14874174D01*
X10715420Y-14874174D02*
X10734468Y-14883698D01*
X10734468Y-14883698D02*
X10743991Y-14893222D01*
X10743991Y-14893222D02*
X10753515Y-14912269D01*
X10753515Y-14912269D02*
X10753515Y-14959888D01*
X10753515Y-14959888D02*
X10743991Y-14978936D01*
X10743991Y-14978936D02*
X10734468Y-14988460D01*
X10734468Y-14988460D02*
X10715420Y-14997984D01*
X10715420Y-14997984D02*
X10658277Y-14997984D01*
X10658277Y-14997984D02*
X10639230Y-14988460D01*
X10639230Y-14988460D02*
X10629706Y-14978936D01*
X10829706Y-14817031D02*
X10839230Y-14807508D01*
X10839230Y-14807508D02*
X10858277Y-14797984D01*
X10858277Y-14797984D02*
X10905896Y-14797984D01*
X10905896Y-14797984D02*
X10924944Y-14807508D01*
X10924944Y-14807508D02*
X10934468Y-14817031D01*
X10934468Y-14817031D02*
X10943991Y-14836079D01*
X10943991Y-14836079D02*
X10943991Y-14855127D01*
X10943991Y-14855127D02*
X10934468Y-14883698D01*
X10934468Y-14883698D02*
X10820182Y-14997984D01*
X10820182Y-14997984D02*
X10943991Y-14997984D01*
X11182087Y-14997984D02*
X11182087Y-14797984D01*
X11267801Y-14997984D02*
X11267801Y-14893222D01*
X11267801Y-14893222D02*
X11258277Y-14874174D01*
X11258277Y-14874174D02*
X11239230Y-14864650D01*
X11239230Y-14864650D02*
X11210658Y-14864650D01*
X11210658Y-14864650D02*
X11191610Y-14874174D01*
X11191610Y-14874174D02*
X11182087Y-14883698D01*
X11391610Y-14997984D02*
X11372563Y-14988460D01*
X11372563Y-14988460D02*
X11363039Y-14978936D01*
X11363039Y-14978936D02*
X11353515Y-14959888D01*
X11353515Y-14959888D02*
X11353515Y-14902746D01*
X11353515Y-14902746D02*
X11363039Y-14883698D01*
X11363039Y-14883698D02*
X11372563Y-14874174D01*
X11372563Y-14874174D02*
X11391610Y-14864650D01*
X11391610Y-14864650D02*
X11420182Y-14864650D01*
X11420182Y-14864650D02*
X11439230Y-14874174D01*
X11439230Y-14874174D02*
X11448753Y-14883698D01*
X11448753Y-14883698D02*
X11458277Y-14902746D01*
X11458277Y-14902746D02*
X11458277Y-14959888D01*
X11458277Y-14959888D02*
X11448753Y-14978936D01*
X11448753Y-14978936D02*
X11439230Y-14988460D01*
X11439230Y-14988460D02*
X11420182Y-14997984D01*
X11420182Y-14997984D02*
X11391610Y-14997984D01*
X11572563Y-14997984D02*
X11553515Y-14988460D01*
X11553515Y-14988460D02*
X11543991Y-14969412D01*
X11543991Y-14969412D02*
X11543991Y-14797984D01*
X11724944Y-14988460D02*
X11705896Y-14997984D01*
X11705896Y-14997984D02*
X11667801Y-14997984D01*
X11667801Y-14997984D02*
X11648753Y-14988460D01*
X11648753Y-14988460D02*
X11639230Y-14969412D01*
X11639230Y-14969412D02*
X11639230Y-14893222D01*
X11639230Y-14893222D02*
X11648753Y-14874174D01*
X11648753Y-14874174D02*
X11667801Y-14864650D01*
X11667801Y-14864650D02*
X11705896Y-14864650D01*
X11705896Y-14864650D02*
X11724944Y-14874174D01*
X11724944Y-14874174D02*
X11734468Y-14893222D01*
X11734468Y-14893222D02*
X11734468Y-14912269D01*
X11734468Y-14912269D02*
X11639230Y-14931317D01*
X11810658Y-14988460D02*
X11829706Y-14997984D01*
X11829706Y-14997984D02*
X11867801Y-14997984D01*
X11867801Y-14997984D02*
X11886849Y-14988460D01*
X11886849Y-14988460D02*
X11896372Y-14969412D01*
X11896372Y-14969412D02*
X11896372Y-14959888D01*
X11896372Y-14959888D02*
X11886849Y-14940841D01*
X11886849Y-14940841D02*
X11867801Y-14931317D01*
X11867801Y-14931317D02*
X11839230Y-14931317D01*
X11839230Y-14931317D02*
X11820182Y-14921793D01*
X11820182Y-14921793D02*
X11810658Y-14902746D01*
X11810658Y-14902746D02*
X11810658Y-14893222D01*
X11810658Y-14893222D02*
X11820182Y-14874174D01*
X11820182Y-14874174D02*
X11839230Y-14864650D01*
X11839230Y-14864650D02*
X11867801Y-14864650D01*
X11867801Y-14864650D02*
X11886849Y-14874174D01*
X11963039Y-15074174D02*
X11972563Y-15064650D01*
X11972563Y-15064650D02*
X11991611Y-15036079D01*
X11991611Y-15036079D02*
X12001134Y-15017031D01*
X12001134Y-15017031D02*
X12010658Y-14988460D01*
X12010658Y-14988460D02*
X12020182Y-14940841D01*
X12020182Y-14940841D02*
X12020182Y-14902746D01*
X12020182Y-14902746D02*
X12010658Y-14855127D01*
X12010658Y-14855127D02*
X12001134Y-14826555D01*
X12001134Y-14826555D02*
X11991611Y-14807508D01*
X11991611Y-14807508D02*
X11972563Y-14778936D01*
X11972563Y-14778936D02*
X11963039Y-14769412D01*
D12*
X6947500Y-15120500D02*
X6947500Y-15220500D01*
X6897500Y-15170500D02*
X6997500Y-15170500D01*
D11*
X7363039Y-15261984D02*
X7248753Y-15261984D01*
X7305896Y-15261984D02*
X7305896Y-15061984D01*
X7305896Y-15061984D02*
X7286848Y-15090555D01*
X7286848Y-15090555D02*
X7267801Y-15109603D01*
X7267801Y-15109603D02*
X7248753Y-15119127D01*
X7448753Y-15242936D02*
X7458277Y-15252460D01*
X7458277Y-15252460D02*
X7448753Y-15261984D01*
X7448753Y-15261984D02*
X7439229Y-15252460D01*
X7439229Y-15252460D02*
X7448753Y-15242936D01*
X7448753Y-15242936D02*
X7448753Y-15261984D01*
X7582086Y-15061984D02*
X7601134Y-15061984D01*
X7601134Y-15061984D02*
X7620182Y-15071508D01*
X7620182Y-15071508D02*
X7629705Y-15081031D01*
X7629705Y-15081031D02*
X7639229Y-15100079D01*
X7639229Y-15100079D02*
X7648753Y-15138174D01*
X7648753Y-15138174D02*
X7648753Y-15185793D01*
X7648753Y-15185793D02*
X7639229Y-15223888D01*
X7639229Y-15223888D02*
X7629705Y-15242936D01*
X7629705Y-15242936D02*
X7620182Y-15252460D01*
X7620182Y-15252460D02*
X7601134Y-15261984D01*
X7601134Y-15261984D02*
X7582086Y-15261984D01*
X7582086Y-15261984D02*
X7563039Y-15252460D01*
X7563039Y-15252460D02*
X7553515Y-15242936D01*
X7553515Y-15242936D02*
X7543991Y-15223888D01*
X7543991Y-15223888D02*
X7534467Y-15185793D01*
X7534467Y-15185793D02*
X7534467Y-15138174D01*
X7534467Y-15138174D02*
X7543991Y-15100079D01*
X7543991Y-15100079D02*
X7553515Y-15081031D01*
X7553515Y-15081031D02*
X7563039Y-15071508D01*
X7563039Y-15071508D02*
X7582086Y-15061984D01*
X7772562Y-15061984D02*
X7791610Y-15061984D01*
X7791610Y-15061984D02*
X7810658Y-15071508D01*
X7810658Y-15071508D02*
X7820182Y-15081031D01*
X7820182Y-15081031D02*
X7829705Y-15100079D01*
X7829705Y-15100079D02*
X7839229Y-15138174D01*
X7839229Y-15138174D02*
X7839229Y-15185793D01*
X7839229Y-15185793D02*
X7829705Y-15223888D01*
X7829705Y-15223888D02*
X7820182Y-15242936D01*
X7820182Y-15242936D02*
X7810658Y-15252460D01*
X7810658Y-15252460D02*
X7791610Y-15261984D01*
X7791610Y-15261984D02*
X7772562Y-15261984D01*
X7772562Y-15261984D02*
X7753515Y-15252460D01*
X7753515Y-15252460D02*
X7743991Y-15242936D01*
X7743991Y-15242936D02*
X7734467Y-15223888D01*
X7734467Y-15223888D02*
X7724943Y-15185793D01*
X7724943Y-15185793D02*
X7724943Y-15138174D01*
X7724943Y-15138174D02*
X7734467Y-15100079D01*
X7734467Y-15100079D02*
X7743991Y-15081031D01*
X7743991Y-15081031D02*
X7753515Y-15071508D01*
X7753515Y-15071508D02*
X7772562Y-15061984D01*
X7963039Y-15061984D02*
X7982086Y-15061984D01*
X7982086Y-15061984D02*
X8001134Y-15071508D01*
X8001134Y-15071508D02*
X8010658Y-15081031D01*
X8010658Y-15081031D02*
X8020182Y-15100079D01*
X8020182Y-15100079D02*
X8029705Y-15138174D01*
X8029705Y-15138174D02*
X8029705Y-15185793D01*
X8029705Y-15185793D02*
X8020182Y-15223888D01*
X8020182Y-15223888D02*
X8010658Y-15242936D01*
X8010658Y-15242936D02*
X8001134Y-15252460D01*
X8001134Y-15252460D02*
X7982086Y-15261984D01*
X7982086Y-15261984D02*
X7963039Y-15261984D01*
X7963039Y-15261984D02*
X7943991Y-15252460D01*
X7943991Y-15252460D02*
X7934467Y-15242936D01*
X7934467Y-15242936D02*
X7924943Y-15223888D01*
X7924943Y-15223888D02*
X7915420Y-15185793D01*
X7915420Y-15185793D02*
X7915420Y-15138174D01*
X7915420Y-15138174D02*
X7924943Y-15100079D01*
X7924943Y-15100079D02*
X7934467Y-15081031D01*
X7934467Y-15081031D02*
X7943991Y-15071508D01*
X7943991Y-15071508D02*
X7963039Y-15061984D01*
X8115420Y-15261984D02*
X8115420Y-15128650D01*
X8115420Y-15147698D02*
X8124943Y-15138174D01*
X8124943Y-15138174D02*
X8143991Y-15128650D01*
X8143991Y-15128650D02*
X8172563Y-15128650D01*
X8172563Y-15128650D02*
X8191610Y-15138174D01*
X8191610Y-15138174D02*
X8201134Y-15157222D01*
X8201134Y-15157222D02*
X8201134Y-15261984D01*
X8201134Y-15157222D02*
X8210658Y-15138174D01*
X8210658Y-15138174D02*
X8229705Y-15128650D01*
X8229705Y-15128650D02*
X8258277Y-15128650D01*
X8258277Y-15128650D02*
X8277324Y-15138174D01*
X8277324Y-15138174D02*
X8286848Y-15157222D01*
X8286848Y-15157222D02*
X8286848Y-15261984D01*
X8382086Y-15261984D02*
X8382086Y-15128650D01*
X8382086Y-15147698D02*
X8391610Y-15138174D01*
X8391610Y-15138174D02*
X8410658Y-15128650D01*
X8410658Y-15128650D02*
X8439229Y-15128650D01*
X8439229Y-15128650D02*
X8458277Y-15138174D01*
X8458277Y-15138174D02*
X8467801Y-15157222D01*
X8467801Y-15157222D02*
X8467801Y-15261984D01*
X8467801Y-15157222D02*
X8477325Y-15138174D01*
X8477325Y-15138174D02*
X8496372Y-15128650D01*
X8496372Y-15128650D02*
X8524944Y-15128650D01*
X8524944Y-15128650D02*
X8543991Y-15138174D01*
X8543991Y-15138174D02*
X8553515Y-15157222D01*
X8553515Y-15157222D02*
X8553515Y-15261984D01*
X8943991Y-15052460D02*
X8772563Y-15309603D01*
X9201134Y-15061984D02*
X9220182Y-15061984D01*
X9220182Y-15061984D02*
X9239229Y-15071508D01*
X9239229Y-15071508D02*
X9248753Y-15081031D01*
X9248753Y-15081031D02*
X9258277Y-15100079D01*
X9258277Y-15100079D02*
X9267801Y-15138174D01*
X9267801Y-15138174D02*
X9267801Y-15185793D01*
X9267801Y-15185793D02*
X9258277Y-15223888D01*
X9258277Y-15223888D02*
X9248753Y-15242936D01*
X9248753Y-15242936D02*
X9239229Y-15252460D01*
X9239229Y-15252460D02*
X9220182Y-15261984D01*
X9220182Y-15261984D02*
X9201134Y-15261984D01*
X9201134Y-15261984D02*
X9182087Y-15252460D01*
X9182087Y-15252460D02*
X9172563Y-15242936D01*
X9172563Y-15242936D02*
X9163039Y-15223888D01*
X9163039Y-15223888D02*
X9153515Y-15185793D01*
X9153515Y-15185793D02*
X9153515Y-15138174D01*
X9153515Y-15138174D02*
X9163039Y-15100079D01*
X9163039Y-15100079D02*
X9172563Y-15081031D01*
X9172563Y-15081031D02*
X9182087Y-15071508D01*
X9182087Y-15071508D02*
X9201134Y-15061984D01*
X9353515Y-15242936D02*
X9363039Y-15252460D01*
X9363039Y-15252460D02*
X9353515Y-15261984D01*
X9353515Y-15261984D02*
X9343991Y-15252460D01*
X9343991Y-15252460D02*
X9353515Y-15242936D01*
X9353515Y-15242936D02*
X9353515Y-15261984D01*
X9486848Y-15061984D02*
X9505896Y-15061984D01*
X9505896Y-15061984D02*
X9524944Y-15071508D01*
X9524944Y-15071508D02*
X9534468Y-15081031D01*
X9534468Y-15081031D02*
X9543991Y-15100079D01*
X9543991Y-15100079D02*
X9553515Y-15138174D01*
X9553515Y-15138174D02*
X9553515Y-15185793D01*
X9553515Y-15185793D02*
X9543991Y-15223888D01*
X9543991Y-15223888D02*
X9534468Y-15242936D01*
X9534468Y-15242936D02*
X9524944Y-15252460D01*
X9524944Y-15252460D02*
X9505896Y-15261984D01*
X9505896Y-15261984D02*
X9486848Y-15261984D01*
X9486848Y-15261984D02*
X9467801Y-15252460D01*
X9467801Y-15252460D02*
X9458277Y-15242936D01*
X9458277Y-15242936D02*
X9448753Y-15223888D01*
X9448753Y-15223888D02*
X9439229Y-15185793D01*
X9439229Y-15185793D02*
X9439229Y-15138174D01*
X9439229Y-15138174D02*
X9448753Y-15100079D01*
X9448753Y-15100079D02*
X9458277Y-15081031D01*
X9458277Y-15081031D02*
X9467801Y-15071508D01*
X9467801Y-15071508D02*
X9486848Y-15061984D01*
X9620182Y-15061984D02*
X9743991Y-15061984D01*
X9743991Y-15061984D02*
X9677325Y-15138174D01*
X9677325Y-15138174D02*
X9705896Y-15138174D01*
X9705896Y-15138174D02*
X9724944Y-15147698D01*
X9724944Y-15147698D02*
X9734468Y-15157222D01*
X9734468Y-15157222D02*
X9743991Y-15176269D01*
X9743991Y-15176269D02*
X9743991Y-15223888D01*
X9743991Y-15223888D02*
X9734468Y-15242936D01*
X9734468Y-15242936D02*
X9724944Y-15252460D01*
X9724944Y-15252460D02*
X9705896Y-15261984D01*
X9705896Y-15261984D02*
X9648753Y-15261984D01*
X9648753Y-15261984D02*
X9629706Y-15252460D01*
X9629706Y-15252460D02*
X9620182Y-15242936D01*
X9839229Y-15261984D02*
X9877325Y-15261984D01*
X9877325Y-15261984D02*
X9896372Y-15252460D01*
X9896372Y-15252460D02*
X9905896Y-15242936D01*
X9905896Y-15242936D02*
X9924944Y-15214365D01*
X9924944Y-15214365D02*
X9934468Y-15176269D01*
X9934468Y-15176269D02*
X9934468Y-15100079D01*
X9934468Y-15100079D02*
X9924944Y-15081031D01*
X9924944Y-15081031D02*
X9915420Y-15071508D01*
X9915420Y-15071508D02*
X9896372Y-15061984D01*
X9896372Y-15061984D02*
X9858277Y-15061984D01*
X9858277Y-15061984D02*
X9839229Y-15071508D01*
X9839229Y-15071508D02*
X9829706Y-15081031D01*
X9829706Y-15081031D02*
X9820182Y-15100079D01*
X9820182Y-15100079D02*
X9820182Y-15147698D01*
X9820182Y-15147698D02*
X9829706Y-15166746D01*
X9829706Y-15166746D02*
X9839229Y-15176269D01*
X9839229Y-15176269D02*
X9858277Y-15185793D01*
X9858277Y-15185793D02*
X9896372Y-15185793D01*
X9896372Y-15185793D02*
X9915420Y-15176269D01*
X9915420Y-15176269D02*
X9924944Y-15166746D01*
X9924944Y-15166746D02*
X9934468Y-15147698D01*
X10105896Y-15128650D02*
X10105896Y-15261984D01*
X10058277Y-15052460D02*
X10010658Y-15195317D01*
X10010658Y-15195317D02*
X10134468Y-15195317D01*
X10201134Y-15061984D02*
X10201134Y-15100079D01*
X10277325Y-15061984D02*
X10277325Y-15100079D01*
X10572563Y-15338174D02*
X10563039Y-15328650D01*
X10563039Y-15328650D02*
X10543991Y-15300079D01*
X10543991Y-15300079D02*
X10534468Y-15281031D01*
X10534468Y-15281031D02*
X10524944Y-15252460D01*
X10524944Y-15252460D02*
X10515420Y-15204841D01*
X10515420Y-15204841D02*
X10515420Y-15166746D01*
X10515420Y-15166746D02*
X10524944Y-15119127D01*
X10524944Y-15119127D02*
X10534468Y-15090555D01*
X10534468Y-15090555D02*
X10543991Y-15071508D01*
X10543991Y-15071508D02*
X10563039Y-15042936D01*
X10563039Y-15042936D02*
X10572563Y-15033412D01*
X10753515Y-15261984D02*
X10639230Y-15261984D01*
X10696372Y-15261984D02*
X10696372Y-15061984D01*
X10696372Y-15061984D02*
X10677325Y-15090555D01*
X10677325Y-15090555D02*
X10658277Y-15109603D01*
X10658277Y-15109603D02*
X10639230Y-15119127D01*
X10943991Y-15261984D02*
X10829706Y-15261984D01*
X10886849Y-15261984D02*
X10886849Y-15061984D01*
X10886849Y-15061984D02*
X10867801Y-15090555D01*
X10867801Y-15090555D02*
X10848753Y-15109603D01*
X10848753Y-15109603D02*
X10829706Y-15119127D01*
X11182087Y-15261984D02*
X11182087Y-15061984D01*
X11267801Y-15261984D02*
X11267801Y-15157222D01*
X11267801Y-15157222D02*
X11258277Y-15138174D01*
X11258277Y-15138174D02*
X11239230Y-15128650D01*
X11239230Y-15128650D02*
X11210658Y-15128650D01*
X11210658Y-15128650D02*
X11191610Y-15138174D01*
X11191610Y-15138174D02*
X11182087Y-15147698D01*
X11391610Y-15261984D02*
X11372563Y-15252460D01*
X11372563Y-15252460D02*
X11363039Y-15242936D01*
X11363039Y-15242936D02*
X11353515Y-15223888D01*
X11353515Y-15223888D02*
X11353515Y-15166746D01*
X11353515Y-15166746D02*
X11363039Y-15147698D01*
X11363039Y-15147698D02*
X11372563Y-15138174D01*
X11372563Y-15138174D02*
X11391610Y-15128650D01*
X11391610Y-15128650D02*
X11420182Y-15128650D01*
X11420182Y-15128650D02*
X11439230Y-15138174D01*
X11439230Y-15138174D02*
X11448753Y-15147698D01*
X11448753Y-15147698D02*
X11458277Y-15166746D01*
X11458277Y-15166746D02*
X11458277Y-15223888D01*
X11458277Y-15223888D02*
X11448753Y-15242936D01*
X11448753Y-15242936D02*
X11439230Y-15252460D01*
X11439230Y-15252460D02*
X11420182Y-15261984D01*
X11420182Y-15261984D02*
X11391610Y-15261984D01*
X11572563Y-15261984D02*
X11553515Y-15252460D01*
X11553515Y-15252460D02*
X11543991Y-15233412D01*
X11543991Y-15233412D02*
X11543991Y-15061984D01*
X11724944Y-15252460D02*
X11705896Y-15261984D01*
X11705896Y-15261984D02*
X11667801Y-15261984D01*
X11667801Y-15261984D02*
X11648753Y-15252460D01*
X11648753Y-15252460D02*
X11639230Y-15233412D01*
X11639230Y-15233412D02*
X11639230Y-15157222D01*
X11639230Y-15157222D02*
X11648753Y-15138174D01*
X11648753Y-15138174D02*
X11667801Y-15128650D01*
X11667801Y-15128650D02*
X11705896Y-15128650D01*
X11705896Y-15128650D02*
X11724944Y-15138174D01*
X11724944Y-15138174D02*
X11734468Y-15157222D01*
X11734468Y-15157222D02*
X11734468Y-15176269D01*
X11734468Y-15176269D02*
X11639230Y-15195317D01*
X11810658Y-15252460D02*
X11829706Y-15261984D01*
X11829706Y-15261984D02*
X11867801Y-15261984D01*
X11867801Y-15261984D02*
X11886849Y-15252460D01*
X11886849Y-15252460D02*
X11896372Y-15233412D01*
X11896372Y-15233412D02*
X11896372Y-15223888D01*
X11896372Y-15223888D02*
X11886849Y-15204841D01*
X11886849Y-15204841D02*
X11867801Y-15195317D01*
X11867801Y-15195317D02*
X11839230Y-15195317D01*
X11839230Y-15195317D02*
X11820182Y-15185793D01*
X11820182Y-15185793D02*
X11810658Y-15166746D01*
X11810658Y-15166746D02*
X11810658Y-15157222D01*
X11810658Y-15157222D02*
X11820182Y-15138174D01*
X11820182Y-15138174D02*
X11839230Y-15128650D01*
X11839230Y-15128650D02*
X11867801Y-15128650D01*
X11867801Y-15128650D02*
X11886849Y-15138174D01*
X11963039Y-15338174D02*
X11972563Y-15328650D01*
X11972563Y-15328650D02*
X11991611Y-15300079D01*
X11991611Y-15300079D02*
X12001134Y-15281031D01*
X12001134Y-15281031D02*
X12010658Y-15252460D01*
X12010658Y-15252460D02*
X12020182Y-15204841D01*
X12020182Y-15204841D02*
X12020182Y-15166746D01*
X12020182Y-15166746D02*
X12010658Y-15119127D01*
X12010658Y-15119127D02*
X12001134Y-15090555D01*
X12001134Y-15090555D02*
X11991611Y-15071508D01*
X11991611Y-15071508D02*
X11972563Y-15042936D01*
X11972563Y-15042936D02*
X11963039Y-15033412D01*
D13*
X6982563Y-15470563D02*
X6982563Y-15398437D01*
X6910437Y-15398437D01*
X6910437Y-15470563D01*
X6982563Y-15470563D01*
D11*
X7363039Y-15525984D02*
X7248753Y-15525984D01*
X7305896Y-15525984D02*
X7305896Y-15325984D01*
X7305896Y-15325984D02*
X7286848Y-15354555D01*
X7286848Y-15354555D02*
X7267801Y-15373603D01*
X7267801Y-15373603D02*
X7248753Y-15383127D01*
X7448753Y-15506936D02*
X7458277Y-15516460D01*
X7458277Y-15516460D02*
X7448753Y-15525984D01*
X7448753Y-15525984D02*
X7439229Y-15516460D01*
X7439229Y-15516460D02*
X7448753Y-15506936D01*
X7448753Y-15506936D02*
X7448753Y-15525984D01*
X7582086Y-15325984D02*
X7601134Y-15325984D01*
X7601134Y-15325984D02*
X7620182Y-15335508D01*
X7620182Y-15335508D02*
X7629705Y-15345031D01*
X7629705Y-15345031D02*
X7639229Y-15364079D01*
X7639229Y-15364079D02*
X7648753Y-15402174D01*
X7648753Y-15402174D02*
X7648753Y-15449793D01*
X7648753Y-15449793D02*
X7639229Y-15487888D01*
X7639229Y-15487888D02*
X7629705Y-15506936D01*
X7629705Y-15506936D02*
X7620182Y-15516460D01*
X7620182Y-15516460D02*
X7601134Y-15525984D01*
X7601134Y-15525984D02*
X7582086Y-15525984D01*
X7582086Y-15525984D02*
X7563039Y-15516460D01*
X7563039Y-15516460D02*
X7553515Y-15506936D01*
X7553515Y-15506936D02*
X7543991Y-15487888D01*
X7543991Y-15487888D02*
X7534467Y-15449793D01*
X7534467Y-15449793D02*
X7534467Y-15402174D01*
X7534467Y-15402174D02*
X7543991Y-15364079D01*
X7543991Y-15364079D02*
X7553515Y-15345031D01*
X7553515Y-15345031D02*
X7563039Y-15335508D01*
X7563039Y-15335508D02*
X7582086Y-15325984D01*
X7724943Y-15345031D02*
X7734467Y-15335508D01*
X7734467Y-15335508D02*
X7753515Y-15325984D01*
X7753515Y-15325984D02*
X7801134Y-15325984D01*
X7801134Y-15325984D02*
X7820182Y-15335508D01*
X7820182Y-15335508D02*
X7829705Y-15345031D01*
X7829705Y-15345031D02*
X7839229Y-15364079D01*
X7839229Y-15364079D02*
X7839229Y-15383127D01*
X7839229Y-15383127D02*
X7829705Y-15411698D01*
X7829705Y-15411698D02*
X7715420Y-15525984D01*
X7715420Y-15525984D02*
X7839229Y-15525984D01*
X7963039Y-15325984D02*
X7982086Y-15325984D01*
X7982086Y-15325984D02*
X8001134Y-15335508D01*
X8001134Y-15335508D02*
X8010658Y-15345031D01*
X8010658Y-15345031D02*
X8020182Y-15364079D01*
X8020182Y-15364079D02*
X8029705Y-15402174D01*
X8029705Y-15402174D02*
X8029705Y-15449793D01*
X8029705Y-15449793D02*
X8020182Y-15487888D01*
X8020182Y-15487888D02*
X8010658Y-15506936D01*
X8010658Y-15506936D02*
X8001134Y-15516460D01*
X8001134Y-15516460D02*
X7982086Y-15525984D01*
X7982086Y-15525984D02*
X7963039Y-15525984D01*
X7963039Y-15525984D02*
X7943991Y-15516460D01*
X7943991Y-15516460D02*
X7934467Y-15506936D01*
X7934467Y-15506936D02*
X7924943Y-15487888D01*
X7924943Y-15487888D02*
X7915420Y-15449793D01*
X7915420Y-15449793D02*
X7915420Y-15402174D01*
X7915420Y-15402174D02*
X7924943Y-15364079D01*
X7924943Y-15364079D02*
X7934467Y-15345031D01*
X7934467Y-15345031D02*
X7943991Y-15335508D01*
X7943991Y-15335508D02*
X7963039Y-15325984D01*
X8115420Y-15525984D02*
X8115420Y-15392650D01*
X8115420Y-15411698D02*
X8124943Y-15402174D01*
X8124943Y-15402174D02*
X8143991Y-15392650D01*
X8143991Y-15392650D02*
X8172563Y-15392650D01*
X8172563Y-15392650D02*
X8191610Y-15402174D01*
X8191610Y-15402174D02*
X8201134Y-15421222D01*
X8201134Y-15421222D02*
X8201134Y-15525984D01*
X8201134Y-15421222D02*
X8210658Y-15402174D01*
X8210658Y-15402174D02*
X8229705Y-15392650D01*
X8229705Y-15392650D02*
X8258277Y-15392650D01*
X8258277Y-15392650D02*
X8277324Y-15402174D01*
X8277324Y-15402174D02*
X8286848Y-15421222D01*
X8286848Y-15421222D02*
X8286848Y-15525984D01*
X8382086Y-15525984D02*
X8382086Y-15392650D01*
X8382086Y-15411698D02*
X8391610Y-15402174D01*
X8391610Y-15402174D02*
X8410658Y-15392650D01*
X8410658Y-15392650D02*
X8439229Y-15392650D01*
X8439229Y-15392650D02*
X8458277Y-15402174D01*
X8458277Y-15402174D02*
X8467801Y-15421222D01*
X8467801Y-15421222D02*
X8467801Y-15525984D01*
X8467801Y-15421222D02*
X8477325Y-15402174D01*
X8477325Y-15402174D02*
X8496372Y-15392650D01*
X8496372Y-15392650D02*
X8524944Y-15392650D01*
X8524944Y-15392650D02*
X8543991Y-15402174D01*
X8543991Y-15402174D02*
X8553515Y-15421222D01*
X8553515Y-15421222D02*
X8553515Y-15525984D01*
X8943991Y-15316460D02*
X8772563Y-15573603D01*
X9201134Y-15325984D02*
X9220182Y-15325984D01*
X9220182Y-15325984D02*
X9239229Y-15335508D01*
X9239229Y-15335508D02*
X9248753Y-15345031D01*
X9248753Y-15345031D02*
X9258277Y-15364079D01*
X9258277Y-15364079D02*
X9267801Y-15402174D01*
X9267801Y-15402174D02*
X9267801Y-15449793D01*
X9267801Y-15449793D02*
X9258277Y-15487888D01*
X9258277Y-15487888D02*
X9248753Y-15506936D01*
X9248753Y-15506936D02*
X9239229Y-15516460D01*
X9239229Y-15516460D02*
X9220182Y-15525984D01*
X9220182Y-15525984D02*
X9201134Y-15525984D01*
X9201134Y-15525984D02*
X9182087Y-15516460D01*
X9182087Y-15516460D02*
X9172563Y-15506936D01*
X9172563Y-15506936D02*
X9163039Y-15487888D01*
X9163039Y-15487888D02*
X9153515Y-15449793D01*
X9153515Y-15449793D02*
X9153515Y-15402174D01*
X9153515Y-15402174D02*
X9163039Y-15364079D01*
X9163039Y-15364079D02*
X9172563Y-15345031D01*
X9172563Y-15345031D02*
X9182087Y-15335508D01*
X9182087Y-15335508D02*
X9201134Y-15325984D01*
X9353515Y-15506936D02*
X9363039Y-15516460D01*
X9363039Y-15516460D02*
X9353515Y-15525984D01*
X9353515Y-15525984D02*
X9343991Y-15516460D01*
X9343991Y-15516460D02*
X9353515Y-15506936D01*
X9353515Y-15506936D02*
X9353515Y-15525984D01*
X9486848Y-15325984D02*
X9505896Y-15325984D01*
X9505896Y-15325984D02*
X9524944Y-15335508D01*
X9524944Y-15335508D02*
X9534468Y-15345031D01*
X9534468Y-15345031D02*
X9543991Y-15364079D01*
X9543991Y-15364079D02*
X9553515Y-15402174D01*
X9553515Y-15402174D02*
X9553515Y-15449793D01*
X9553515Y-15449793D02*
X9543991Y-15487888D01*
X9543991Y-15487888D02*
X9534468Y-15506936D01*
X9534468Y-15506936D02*
X9524944Y-15516460D01*
X9524944Y-15516460D02*
X9505896Y-15525984D01*
X9505896Y-15525984D02*
X9486848Y-15525984D01*
X9486848Y-15525984D02*
X9467801Y-15516460D01*
X9467801Y-15516460D02*
X9458277Y-15506936D01*
X9458277Y-15506936D02*
X9448753Y-15487888D01*
X9448753Y-15487888D02*
X9439229Y-15449793D01*
X9439229Y-15449793D02*
X9439229Y-15402174D01*
X9439229Y-15402174D02*
X9448753Y-15364079D01*
X9448753Y-15364079D02*
X9458277Y-15345031D01*
X9458277Y-15345031D02*
X9467801Y-15335508D01*
X9467801Y-15335508D02*
X9486848Y-15325984D01*
X9724944Y-15392650D02*
X9724944Y-15525984D01*
X9677325Y-15316460D02*
X9629706Y-15459317D01*
X9629706Y-15459317D02*
X9753515Y-15459317D01*
X9867801Y-15325984D02*
X9886849Y-15325984D01*
X9886849Y-15325984D02*
X9905896Y-15335508D01*
X9905896Y-15335508D02*
X9915420Y-15345031D01*
X9915420Y-15345031D02*
X9924944Y-15364079D01*
X9924944Y-15364079D02*
X9934468Y-15402174D01*
X9934468Y-15402174D02*
X9934468Y-15449793D01*
X9934468Y-15449793D02*
X9924944Y-15487888D01*
X9924944Y-15487888D02*
X9915420Y-15506936D01*
X9915420Y-15506936D02*
X9905896Y-15516460D01*
X9905896Y-15516460D02*
X9886849Y-15525984D01*
X9886849Y-15525984D02*
X9867801Y-15525984D01*
X9867801Y-15525984D02*
X9848753Y-15516460D01*
X9848753Y-15516460D02*
X9839229Y-15506936D01*
X9839229Y-15506936D02*
X9829706Y-15487888D01*
X9829706Y-15487888D02*
X9820182Y-15449793D01*
X9820182Y-15449793D02*
X9820182Y-15402174D01*
X9820182Y-15402174D02*
X9829706Y-15364079D01*
X9829706Y-15364079D02*
X9839229Y-15345031D01*
X9839229Y-15345031D02*
X9848753Y-15335508D01*
X9848753Y-15335508D02*
X9867801Y-15325984D01*
X10010658Y-15345031D02*
X10020182Y-15335508D01*
X10020182Y-15335508D02*
X10039229Y-15325984D01*
X10039229Y-15325984D02*
X10086849Y-15325984D01*
X10086849Y-15325984D02*
X10105896Y-15335508D01*
X10105896Y-15335508D02*
X10115420Y-15345031D01*
X10115420Y-15345031D02*
X10124944Y-15364079D01*
X10124944Y-15364079D02*
X10124944Y-15383127D01*
X10124944Y-15383127D02*
X10115420Y-15411698D01*
X10115420Y-15411698D02*
X10001134Y-15525984D01*
X10001134Y-15525984D02*
X10124944Y-15525984D01*
X10201134Y-15325984D02*
X10201134Y-15364079D01*
X10277325Y-15325984D02*
X10277325Y-15364079D01*
X10572563Y-15602174D02*
X10563039Y-15592650D01*
X10563039Y-15592650D02*
X10543991Y-15564079D01*
X10543991Y-15564079D02*
X10534468Y-15545031D01*
X10534468Y-15545031D02*
X10524944Y-15516460D01*
X10524944Y-15516460D02*
X10515420Y-15468841D01*
X10515420Y-15468841D02*
X10515420Y-15430746D01*
X10515420Y-15430746D02*
X10524944Y-15383127D01*
X10524944Y-15383127D02*
X10534468Y-15354555D01*
X10534468Y-15354555D02*
X10543991Y-15335508D01*
X10543991Y-15335508D02*
X10563039Y-15306936D01*
X10563039Y-15306936D02*
X10572563Y-15297412D01*
X10734468Y-15325984D02*
X10696372Y-15325984D01*
X10696372Y-15325984D02*
X10677325Y-15335508D01*
X10677325Y-15335508D02*
X10667801Y-15345031D01*
X10667801Y-15345031D02*
X10648753Y-15373603D01*
X10648753Y-15373603D02*
X10639230Y-15411698D01*
X10639230Y-15411698D02*
X10639230Y-15487888D01*
X10639230Y-15487888D02*
X10648753Y-15506936D01*
X10648753Y-15506936D02*
X10658277Y-15516460D01*
X10658277Y-15516460D02*
X10677325Y-15525984D01*
X10677325Y-15525984D02*
X10715420Y-15525984D01*
X10715420Y-15525984D02*
X10734468Y-15516460D01*
X10734468Y-15516460D02*
X10743991Y-15506936D01*
X10743991Y-15506936D02*
X10753515Y-15487888D01*
X10753515Y-15487888D02*
X10753515Y-15440269D01*
X10753515Y-15440269D02*
X10743991Y-15421222D01*
X10743991Y-15421222D02*
X10734468Y-15411698D01*
X10734468Y-15411698D02*
X10715420Y-15402174D01*
X10715420Y-15402174D02*
X10677325Y-15402174D01*
X10677325Y-15402174D02*
X10658277Y-15411698D01*
X10658277Y-15411698D02*
X10648753Y-15421222D01*
X10648753Y-15421222D02*
X10639230Y-15440269D01*
X10991611Y-15525984D02*
X10991611Y-15325984D01*
X11077325Y-15525984D02*
X11077325Y-15421222D01*
X11077325Y-15421222D02*
X11067801Y-15402174D01*
X11067801Y-15402174D02*
X11048753Y-15392650D01*
X11048753Y-15392650D02*
X11020182Y-15392650D01*
X11020182Y-15392650D02*
X11001134Y-15402174D01*
X11001134Y-15402174D02*
X10991611Y-15411698D01*
X11201134Y-15525984D02*
X11182087Y-15516460D01*
X11182087Y-15516460D02*
X11172563Y-15506936D01*
X11172563Y-15506936D02*
X11163039Y-15487888D01*
X11163039Y-15487888D02*
X11163039Y-15430746D01*
X11163039Y-15430746D02*
X11172563Y-15411698D01*
X11172563Y-15411698D02*
X11182087Y-15402174D01*
X11182087Y-15402174D02*
X11201134Y-15392650D01*
X11201134Y-15392650D02*
X11229706Y-15392650D01*
X11229706Y-15392650D02*
X11248753Y-15402174D01*
X11248753Y-15402174D02*
X11258277Y-15411698D01*
X11258277Y-15411698D02*
X11267801Y-15430746D01*
X11267801Y-15430746D02*
X11267801Y-15487888D01*
X11267801Y-15487888D02*
X11258277Y-15506936D01*
X11258277Y-15506936D02*
X11248753Y-15516460D01*
X11248753Y-15516460D02*
X11229706Y-15525984D01*
X11229706Y-15525984D02*
X11201134Y-15525984D01*
X11382087Y-15525984D02*
X11363039Y-15516460D01*
X11363039Y-15516460D02*
X11353515Y-15497412D01*
X11353515Y-15497412D02*
X11353515Y-15325984D01*
X11534468Y-15516460D02*
X11515420Y-15525984D01*
X11515420Y-15525984D02*
X11477325Y-15525984D01*
X11477325Y-15525984D02*
X11458277Y-15516460D01*
X11458277Y-15516460D02*
X11448753Y-15497412D01*
X11448753Y-15497412D02*
X11448753Y-15421222D01*
X11448753Y-15421222D02*
X11458277Y-15402174D01*
X11458277Y-15402174D02*
X11477325Y-15392650D01*
X11477325Y-15392650D02*
X11515420Y-15392650D01*
X11515420Y-15392650D02*
X11534468Y-15402174D01*
X11534468Y-15402174D02*
X11543991Y-15421222D01*
X11543991Y-15421222D02*
X11543991Y-15440269D01*
X11543991Y-15440269D02*
X11448753Y-15459317D01*
X11620182Y-15516460D02*
X11639230Y-15525984D01*
X11639230Y-15525984D02*
X11677325Y-15525984D01*
X11677325Y-15525984D02*
X11696372Y-15516460D01*
X11696372Y-15516460D02*
X11705896Y-15497412D01*
X11705896Y-15497412D02*
X11705896Y-15487888D01*
X11705896Y-15487888D02*
X11696372Y-15468841D01*
X11696372Y-15468841D02*
X11677325Y-15459317D01*
X11677325Y-15459317D02*
X11648753Y-15459317D01*
X11648753Y-15459317D02*
X11629706Y-15449793D01*
X11629706Y-15449793D02*
X11620182Y-15430746D01*
X11620182Y-15430746D02*
X11620182Y-15421222D01*
X11620182Y-15421222D02*
X11629706Y-15402174D01*
X11629706Y-15402174D02*
X11648753Y-15392650D01*
X11648753Y-15392650D02*
X11677325Y-15392650D01*
X11677325Y-15392650D02*
X11696372Y-15402174D01*
X11772563Y-15602174D02*
X11782087Y-15592650D01*
X11782087Y-15592650D02*
X11801134Y-15564079D01*
X11801134Y-15564079D02*
X11810658Y-15545031D01*
X11810658Y-15545031D02*
X11820182Y-15516460D01*
X11820182Y-15516460D02*
X11829706Y-15468841D01*
X11829706Y-15468841D02*
X11829706Y-15430746D01*
X11829706Y-15430746D02*
X11820182Y-15383127D01*
X11820182Y-15383127D02*
X11810658Y-15354555D01*
X11810658Y-15354555D02*
X11801134Y-15335508D01*
X11801134Y-15335508D02*
X11782087Y-15306936D01*
X11782087Y-15306936D02*
X11772563Y-15297412D01*
D14*
X6932500Y-15763500D02*
X6997500Y-15698500D01*
X6932500Y-15633500D01*
X6867500Y-15698500D01*
X6932500Y-15763500D01*
D11*
X7363039Y-15789984D02*
X7248753Y-15789984D01*
X7305896Y-15789984D02*
X7305896Y-15589984D01*
X7305896Y-15589984D02*
X7286848Y-15618555D01*
X7286848Y-15618555D02*
X7267801Y-15637603D01*
X7267801Y-15637603D02*
X7248753Y-15647127D01*
X7448753Y-15770936D02*
X7458277Y-15780460D01*
X7458277Y-15780460D02*
X7448753Y-15789984D01*
X7448753Y-15789984D02*
X7439229Y-15780460D01*
X7439229Y-15780460D02*
X7448753Y-15770936D01*
X7448753Y-15770936D02*
X7448753Y-15789984D01*
X7524943Y-15589984D02*
X7648753Y-15589984D01*
X7648753Y-15589984D02*
X7582086Y-15666174D01*
X7582086Y-15666174D02*
X7610658Y-15666174D01*
X7610658Y-15666174D02*
X7629705Y-15675698D01*
X7629705Y-15675698D02*
X7639229Y-15685222D01*
X7639229Y-15685222D02*
X7648753Y-15704269D01*
X7648753Y-15704269D02*
X7648753Y-15751888D01*
X7648753Y-15751888D02*
X7639229Y-15770936D01*
X7639229Y-15770936D02*
X7629705Y-15780460D01*
X7629705Y-15780460D02*
X7610658Y-15789984D01*
X7610658Y-15789984D02*
X7553515Y-15789984D01*
X7553515Y-15789984D02*
X7534467Y-15780460D01*
X7534467Y-15780460D02*
X7524943Y-15770936D01*
X7772562Y-15589984D02*
X7791610Y-15589984D01*
X7791610Y-15589984D02*
X7810658Y-15599508D01*
X7810658Y-15599508D02*
X7820182Y-15609031D01*
X7820182Y-15609031D02*
X7829705Y-15628079D01*
X7829705Y-15628079D02*
X7839229Y-15666174D01*
X7839229Y-15666174D02*
X7839229Y-15713793D01*
X7839229Y-15713793D02*
X7829705Y-15751888D01*
X7829705Y-15751888D02*
X7820182Y-15770936D01*
X7820182Y-15770936D02*
X7810658Y-15780460D01*
X7810658Y-15780460D02*
X7791610Y-15789984D01*
X7791610Y-15789984D02*
X7772562Y-15789984D01*
X7772562Y-15789984D02*
X7753515Y-15780460D01*
X7753515Y-15780460D02*
X7743991Y-15770936D01*
X7743991Y-15770936D02*
X7734467Y-15751888D01*
X7734467Y-15751888D02*
X7724943Y-15713793D01*
X7724943Y-15713793D02*
X7724943Y-15666174D01*
X7724943Y-15666174D02*
X7734467Y-15628079D01*
X7734467Y-15628079D02*
X7743991Y-15609031D01*
X7743991Y-15609031D02*
X7753515Y-15599508D01*
X7753515Y-15599508D02*
X7772562Y-15589984D01*
X7963039Y-15589984D02*
X7982086Y-15589984D01*
X7982086Y-15589984D02*
X8001134Y-15599508D01*
X8001134Y-15599508D02*
X8010658Y-15609031D01*
X8010658Y-15609031D02*
X8020182Y-15628079D01*
X8020182Y-15628079D02*
X8029705Y-15666174D01*
X8029705Y-15666174D02*
X8029705Y-15713793D01*
X8029705Y-15713793D02*
X8020182Y-15751888D01*
X8020182Y-15751888D02*
X8010658Y-15770936D01*
X8010658Y-15770936D02*
X8001134Y-15780460D01*
X8001134Y-15780460D02*
X7982086Y-15789984D01*
X7982086Y-15789984D02*
X7963039Y-15789984D01*
X7963039Y-15789984D02*
X7943991Y-15780460D01*
X7943991Y-15780460D02*
X7934467Y-15770936D01*
X7934467Y-15770936D02*
X7924943Y-15751888D01*
X7924943Y-15751888D02*
X7915420Y-15713793D01*
X7915420Y-15713793D02*
X7915420Y-15666174D01*
X7915420Y-15666174D02*
X7924943Y-15628079D01*
X7924943Y-15628079D02*
X7934467Y-15609031D01*
X7934467Y-15609031D02*
X7943991Y-15599508D01*
X7943991Y-15599508D02*
X7963039Y-15589984D01*
X8115420Y-15789984D02*
X8115420Y-15656650D01*
X8115420Y-15675698D02*
X8124943Y-15666174D01*
X8124943Y-15666174D02*
X8143991Y-15656650D01*
X8143991Y-15656650D02*
X8172563Y-15656650D01*
X8172563Y-15656650D02*
X8191610Y-15666174D01*
X8191610Y-15666174D02*
X8201134Y-15685222D01*
X8201134Y-15685222D02*
X8201134Y-15789984D01*
X8201134Y-15685222D02*
X8210658Y-15666174D01*
X8210658Y-15666174D02*
X8229705Y-15656650D01*
X8229705Y-15656650D02*
X8258277Y-15656650D01*
X8258277Y-15656650D02*
X8277324Y-15666174D01*
X8277324Y-15666174D02*
X8286848Y-15685222D01*
X8286848Y-15685222D02*
X8286848Y-15789984D01*
X8382086Y-15789984D02*
X8382086Y-15656650D01*
X8382086Y-15675698D02*
X8391610Y-15666174D01*
X8391610Y-15666174D02*
X8410658Y-15656650D01*
X8410658Y-15656650D02*
X8439229Y-15656650D01*
X8439229Y-15656650D02*
X8458277Y-15666174D01*
X8458277Y-15666174D02*
X8467801Y-15685222D01*
X8467801Y-15685222D02*
X8467801Y-15789984D01*
X8467801Y-15685222D02*
X8477325Y-15666174D01*
X8477325Y-15666174D02*
X8496372Y-15656650D01*
X8496372Y-15656650D02*
X8524944Y-15656650D01*
X8524944Y-15656650D02*
X8543991Y-15666174D01*
X8543991Y-15666174D02*
X8553515Y-15685222D01*
X8553515Y-15685222D02*
X8553515Y-15789984D01*
X8943991Y-15580460D02*
X8772563Y-15837603D01*
X9201134Y-15589984D02*
X9220182Y-15589984D01*
X9220182Y-15589984D02*
X9239229Y-15599508D01*
X9239229Y-15599508D02*
X9248753Y-15609031D01*
X9248753Y-15609031D02*
X9258277Y-15628079D01*
X9258277Y-15628079D02*
X9267801Y-15666174D01*
X9267801Y-15666174D02*
X9267801Y-15713793D01*
X9267801Y-15713793D02*
X9258277Y-15751888D01*
X9258277Y-15751888D02*
X9248753Y-15770936D01*
X9248753Y-15770936D02*
X9239229Y-15780460D01*
X9239229Y-15780460D02*
X9220182Y-15789984D01*
X9220182Y-15789984D02*
X9201134Y-15789984D01*
X9201134Y-15789984D02*
X9182087Y-15780460D01*
X9182087Y-15780460D02*
X9172563Y-15770936D01*
X9172563Y-15770936D02*
X9163039Y-15751888D01*
X9163039Y-15751888D02*
X9153515Y-15713793D01*
X9153515Y-15713793D02*
X9153515Y-15666174D01*
X9153515Y-15666174D02*
X9163039Y-15628079D01*
X9163039Y-15628079D02*
X9172563Y-15609031D01*
X9172563Y-15609031D02*
X9182087Y-15599508D01*
X9182087Y-15599508D02*
X9201134Y-15589984D01*
X9353515Y-15770936D02*
X9363039Y-15780460D01*
X9363039Y-15780460D02*
X9353515Y-15789984D01*
X9353515Y-15789984D02*
X9343991Y-15780460D01*
X9343991Y-15780460D02*
X9353515Y-15770936D01*
X9353515Y-15770936D02*
X9353515Y-15789984D01*
X9486848Y-15589984D02*
X9505896Y-15589984D01*
X9505896Y-15589984D02*
X9524944Y-15599508D01*
X9524944Y-15599508D02*
X9534468Y-15609031D01*
X9534468Y-15609031D02*
X9543991Y-15628079D01*
X9543991Y-15628079D02*
X9553515Y-15666174D01*
X9553515Y-15666174D02*
X9553515Y-15713793D01*
X9553515Y-15713793D02*
X9543991Y-15751888D01*
X9543991Y-15751888D02*
X9534468Y-15770936D01*
X9534468Y-15770936D02*
X9524944Y-15780460D01*
X9524944Y-15780460D02*
X9505896Y-15789984D01*
X9505896Y-15789984D02*
X9486848Y-15789984D01*
X9486848Y-15789984D02*
X9467801Y-15780460D01*
X9467801Y-15780460D02*
X9458277Y-15770936D01*
X9458277Y-15770936D02*
X9448753Y-15751888D01*
X9448753Y-15751888D02*
X9439229Y-15713793D01*
X9439229Y-15713793D02*
X9439229Y-15666174D01*
X9439229Y-15666174D02*
X9448753Y-15628079D01*
X9448753Y-15628079D02*
X9458277Y-15609031D01*
X9458277Y-15609031D02*
X9467801Y-15599508D01*
X9467801Y-15599508D02*
X9486848Y-15589984D01*
X9734468Y-15589984D02*
X9639229Y-15589984D01*
X9639229Y-15589984D02*
X9629706Y-15685222D01*
X9629706Y-15685222D02*
X9639229Y-15675698D01*
X9639229Y-15675698D02*
X9658277Y-15666174D01*
X9658277Y-15666174D02*
X9705896Y-15666174D01*
X9705896Y-15666174D02*
X9724944Y-15675698D01*
X9724944Y-15675698D02*
X9734468Y-15685222D01*
X9734468Y-15685222D02*
X9743991Y-15704269D01*
X9743991Y-15704269D02*
X9743991Y-15751888D01*
X9743991Y-15751888D02*
X9734468Y-15770936D01*
X9734468Y-15770936D02*
X9724944Y-15780460D01*
X9724944Y-15780460D02*
X9705896Y-15789984D01*
X9705896Y-15789984D02*
X9658277Y-15789984D01*
X9658277Y-15789984D02*
X9639229Y-15780460D01*
X9639229Y-15780460D02*
X9629706Y-15770936D01*
X9934468Y-15789984D02*
X9820182Y-15789984D01*
X9877325Y-15789984D02*
X9877325Y-15589984D01*
X9877325Y-15589984D02*
X9858277Y-15618555D01*
X9858277Y-15618555D02*
X9839229Y-15637603D01*
X9839229Y-15637603D02*
X9820182Y-15647127D01*
X10010658Y-15609031D02*
X10020182Y-15599508D01*
X10020182Y-15599508D02*
X10039229Y-15589984D01*
X10039229Y-15589984D02*
X10086849Y-15589984D01*
X10086849Y-15589984D02*
X10105896Y-15599508D01*
X10105896Y-15599508D02*
X10115420Y-15609031D01*
X10115420Y-15609031D02*
X10124944Y-15628079D01*
X10124944Y-15628079D02*
X10124944Y-15647127D01*
X10124944Y-15647127D02*
X10115420Y-15675698D01*
X10115420Y-15675698D02*
X10001134Y-15789984D01*
X10001134Y-15789984D02*
X10124944Y-15789984D01*
X10201134Y-15589984D02*
X10201134Y-15628079D01*
X10277325Y-15589984D02*
X10277325Y-15628079D01*
X10572563Y-15866174D02*
X10563039Y-15856650D01*
X10563039Y-15856650D02*
X10543991Y-15828079D01*
X10543991Y-15828079D02*
X10534468Y-15809031D01*
X10534468Y-15809031D02*
X10524944Y-15780460D01*
X10524944Y-15780460D02*
X10515420Y-15732841D01*
X10515420Y-15732841D02*
X10515420Y-15694746D01*
X10515420Y-15694746D02*
X10524944Y-15647127D01*
X10524944Y-15647127D02*
X10534468Y-15618555D01*
X10534468Y-15618555D02*
X10543991Y-15599508D01*
X10543991Y-15599508D02*
X10563039Y-15570936D01*
X10563039Y-15570936D02*
X10572563Y-15561412D01*
X10753515Y-15789984D02*
X10639230Y-15789984D01*
X10696372Y-15789984D02*
X10696372Y-15589984D01*
X10696372Y-15589984D02*
X10677325Y-15618555D01*
X10677325Y-15618555D02*
X10658277Y-15637603D01*
X10658277Y-15637603D02*
X10639230Y-15647127D01*
X10943991Y-15789984D02*
X10829706Y-15789984D01*
X10886849Y-15789984D02*
X10886849Y-15589984D01*
X10886849Y-15589984D02*
X10867801Y-15618555D01*
X10867801Y-15618555D02*
X10848753Y-15637603D01*
X10848753Y-15637603D02*
X10829706Y-15647127D01*
X11182087Y-15789984D02*
X11182087Y-15589984D01*
X11267801Y-15789984D02*
X11267801Y-15685222D01*
X11267801Y-15685222D02*
X11258277Y-15666174D01*
X11258277Y-15666174D02*
X11239230Y-15656650D01*
X11239230Y-15656650D02*
X11210658Y-15656650D01*
X11210658Y-15656650D02*
X11191610Y-15666174D01*
X11191610Y-15666174D02*
X11182087Y-15675698D01*
X11391610Y-15789984D02*
X11372563Y-15780460D01*
X11372563Y-15780460D02*
X11363039Y-15770936D01*
X11363039Y-15770936D02*
X11353515Y-15751888D01*
X11353515Y-15751888D02*
X11353515Y-15694746D01*
X11353515Y-15694746D02*
X11363039Y-15675698D01*
X11363039Y-15675698D02*
X11372563Y-15666174D01*
X11372563Y-15666174D02*
X11391610Y-15656650D01*
X11391610Y-15656650D02*
X11420182Y-15656650D01*
X11420182Y-15656650D02*
X11439230Y-15666174D01*
X11439230Y-15666174D02*
X11448753Y-15675698D01*
X11448753Y-15675698D02*
X11458277Y-15694746D01*
X11458277Y-15694746D02*
X11458277Y-15751888D01*
X11458277Y-15751888D02*
X11448753Y-15770936D01*
X11448753Y-15770936D02*
X11439230Y-15780460D01*
X11439230Y-15780460D02*
X11420182Y-15789984D01*
X11420182Y-15789984D02*
X11391610Y-15789984D01*
X11572563Y-15789984D02*
X11553515Y-15780460D01*
X11553515Y-15780460D02*
X11543991Y-15761412D01*
X11543991Y-15761412D02*
X11543991Y-15589984D01*
X11724944Y-15780460D02*
X11705896Y-15789984D01*
X11705896Y-15789984D02*
X11667801Y-15789984D01*
X11667801Y-15789984D02*
X11648753Y-15780460D01*
X11648753Y-15780460D02*
X11639230Y-15761412D01*
X11639230Y-15761412D02*
X11639230Y-15685222D01*
X11639230Y-15685222D02*
X11648753Y-15666174D01*
X11648753Y-15666174D02*
X11667801Y-15656650D01*
X11667801Y-15656650D02*
X11705896Y-15656650D01*
X11705896Y-15656650D02*
X11724944Y-15666174D01*
X11724944Y-15666174D02*
X11734468Y-15685222D01*
X11734468Y-15685222D02*
X11734468Y-15704269D01*
X11734468Y-15704269D02*
X11639230Y-15723317D01*
X11810658Y-15780460D02*
X11829706Y-15789984D01*
X11829706Y-15789984D02*
X11867801Y-15789984D01*
X11867801Y-15789984D02*
X11886849Y-15780460D01*
X11886849Y-15780460D02*
X11896372Y-15761412D01*
X11896372Y-15761412D02*
X11896372Y-15751888D01*
X11896372Y-15751888D02*
X11886849Y-15732841D01*
X11886849Y-15732841D02*
X11867801Y-15723317D01*
X11867801Y-15723317D02*
X11839230Y-15723317D01*
X11839230Y-15723317D02*
X11820182Y-15713793D01*
X11820182Y-15713793D02*
X11810658Y-15694746D01*
X11810658Y-15694746D02*
X11810658Y-15685222D01*
X11810658Y-15685222D02*
X11820182Y-15666174D01*
X11820182Y-15666174D02*
X11839230Y-15656650D01*
X11839230Y-15656650D02*
X11867801Y-15656650D01*
X11867801Y-15656650D02*
X11886849Y-15666174D01*
X11963039Y-15866174D02*
X11972563Y-15856650D01*
X11972563Y-15856650D02*
X11991611Y-15828079D01*
X11991611Y-15828079D02*
X12001134Y-15809031D01*
X12001134Y-15809031D02*
X12010658Y-15780460D01*
X12010658Y-15780460D02*
X12020182Y-15732841D01*
X12020182Y-15732841D02*
X12020182Y-15694746D01*
X12020182Y-15694746D02*
X12010658Y-15647127D01*
X12010658Y-15647127D02*
X12001134Y-15618555D01*
X12001134Y-15618555D02*
X11991611Y-15599508D01*
X11991611Y-15599508D02*
X11972563Y-15570936D01*
X11972563Y-15570936D02*
X11963039Y-15561412D01*
D15*
X6827500Y-15877500D02*
X6997500Y-16047500D01*
X6997500Y-15877500D02*
X6827500Y-16047500D01*
X6997500Y-15962500D02*
G75*
G02*
X6827500Y-15962500I-85000J0D01*
G01*
X6827500Y-15962500D02*
G75*
G02*
X6997500Y-15962500I85000J0D01*
G01*
D11*
X7363039Y-16053984D02*
X7248753Y-16053984D01*
X7305896Y-16053984D02*
X7305896Y-15853984D01*
X7305896Y-15853984D02*
X7286848Y-15882555D01*
X7286848Y-15882555D02*
X7267801Y-15901603D01*
X7267801Y-15901603D02*
X7248753Y-15911127D01*
X7448753Y-16034936D02*
X7458277Y-16044460D01*
X7458277Y-16044460D02*
X7448753Y-16053984D01*
X7448753Y-16053984D02*
X7439229Y-16044460D01*
X7439229Y-16044460D02*
X7448753Y-16034936D01*
X7448753Y-16034936D02*
X7448753Y-16053984D01*
X7524943Y-15853984D02*
X7658277Y-15853984D01*
X7658277Y-15853984D02*
X7572562Y-16053984D01*
X7772562Y-15853984D02*
X7791610Y-15853984D01*
X7791610Y-15853984D02*
X7810658Y-15863508D01*
X7810658Y-15863508D02*
X7820182Y-15873031D01*
X7820182Y-15873031D02*
X7829705Y-15892079D01*
X7829705Y-15892079D02*
X7839229Y-15930174D01*
X7839229Y-15930174D02*
X7839229Y-15977793D01*
X7839229Y-15977793D02*
X7829705Y-16015888D01*
X7829705Y-16015888D02*
X7820182Y-16034936D01*
X7820182Y-16034936D02*
X7810658Y-16044460D01*
X7810658Y-16044460D02*
X7791610Y-16053984D01*
X7791610Y-16053984D02*
X7772562Y-16053984D01*
X7772562Y-16053984D02*
X7753515Y-16044460D01*
X7753515Y-16044460D02*
X7743991Y-16034936D01*
X7743991Y-16034936D02*
X7734467Y-16015888D01*
X7734467Y-16015888D02*
X7724943Y-15977793D01*
X7724943Y-15977793D02*
X7724943Y-15930174D01*
X7724943Y-15930174D02*
X7734467Y-15892079D01*
X7734467Y-15892079D02*
X7743991Y-15873031D01*
X7743991Y-15873031D02*
X7753515Y-15863508D01*
X7753515Y-15863508D02*
X7772562Y-15853984D01*
X7963039Y-15853984D02*
X7982086Y-15853984D01*
X7982086Y-15853984D02*
X8001134Y-15863508D01*
X8001134Y-15863508D02*
X8010658Y-15873031D01*
X8010658Y-15873031D02*
X8020182Y-15892079D01*
X8020182Y-15892079D02*
X8029705Y-15930174D01*
X8029705Y-15930174D02*
X8029705Y-15977793D01*
X8029705Y-15977793D02*
X8020182Y-16015888D01*
X8020182Y-16015888D02*
X8010658Y-16034936D01*
X8010658Y-16034936D02*
X8001134Y-16044460D01*
X8001134Y-16044460D02*
X7982086Y-16053984D01*
X7982086Y-16053984D02*
X7963039Y-16053984D01*
X7963039Y-16053984D02*
X7943991Y-16044460D01*
X7943991Y-16044460D02*
X7934467Y-16034936D01*
X7934467Y-16034936D02*
X7924943Y-16015888D01*
X7924943Y-16015888D02*
X7915420Y-15977793D01*
X7915420Y-15977793D02*
X7915420Y-15930174D01*
X7915420Y-15930174D02*
X7924943Y-15892079D01*
X7924943Y-15892079D02*
X7934467Y-15873031D01*
X7934467Y-15873031D02*
X7943991Y-15863508D01*
X7943991Y-15863508D02*
X7963039Y-15853984D01*
X8115420Y-16053984D02*
X8115420Y-15920650D01*
X8115420Y-15939698D02*
X8124943Y-15930174D01*
X8124943Y-15930174D02*
X8143991Y-15920650D01*
X8143991Y-15920650D02*
X8172563Y-15920650D01*
X8172563Y-15920650D02*
X8191610Y-15930174D01*
X8191610Y-15930174D02*
X8201134Y-15949222D01*
X8201134Y-15949222D02*
X8201134Y-16053984D01*
X8201134Y-15949222D02*
X8210658Y-15930174D01*
X8210658Y-15930174D02*
X8229705Y-15920650D01*
X8229705Y-15920650D02*
X8258277Y-15920650D01*
X8258277Y-15920650D02*
X8277324Y-15930174D01*
X8277324Y-15930174D02*
X8286848Y-15949222D01*
X8286848Y-15949222D02*
X8286848Y-16053984D01*
X8382086Y-16053984D02*
X8382086Y-15920650D01*
X8382086Y-15939698D02*
X8391610Y-15930174D01*
X8391610Y-15930174D02*
X8410658Y-15920650D01*
X8410658Y-15920650D02*
X8439229Y-15920650D01*
X8439229Y-15920650D02*
X8458277Y-15930174D01*
X8458277Y-15930174D02*
X8467801Y-15949222D01*
X8467801Y-15949222D02*
X8467801Y-16053984D01*
X8467801Y-15949222D02*
X8477325Y-15930174D01*
X8477325Y-15930174D02*
X8496372Y-15920650D01*
X8496372Y-15920650D02*
X8524944Y-15920650D01*
X8524944Y-15920650D02*
X8543991Y-15930174D01*
X8543991Y-15930174D02*
X8553515Y-15949222D01*
X8553515Y-15949222D02*
X8553515Y-16053984D01*
X8943991Y-15844460D02*
X8772563Y-16101603D01*
X9201134Y-15853984D02*
X9220182Y-15853984D01*
X9220182Y-15853984D02*
X9239229Y-15863508D01*
X9239229Y-15863508D02*
X9248753Y-15873031D01*
X9248753Y-15873031D02*
X9258277Y-15892079D01*
X9258277Y-15892079D02*
X9267801Y-15930174D01*
X9267801Y-15930174D02*
X9267801Y-15977793D01*
X9267801Y-15977793D02*
X9258277Y-16015888D01*
X9258277Y-16015888D02*
X9248753Y-16034936D01*
X9248753Y-16034936D02*
X9239229Y-16044460D01*
X9239229Y-16044460D02*
X9220182Y-16053984D01*
X9220182Y-16053984D02*
X9201134Y-16053984D01*
X9201134Y-16053984D02*
X9182087Y-16044460D01*
X9182087Y-16044460D02*
X9172563Y-16034936D01*
X9172563Y-16034936D02*
X9163039Y-16015888D01*
X9163039Y-16015888D02*
X9153515Y-15977793D01*
X9153515Y-15977793D02*
X9153515Y-15930174D01*
X9153515Y-15930174D02*
X9163039Y-15892079D01*
X9163039Y-15892079D02*
X9172563Y-15873031D01*
X9172563Y-15873031D02*
X9182087Y-15863508D01*
X9182087Y-15863508D02*
X9201134Y-15853984D01*
X9353515Y-16034936D02*
X9363039Y-16044460D01*
X9363039Y-16044460D02*
X9353515Y-16053984D01*
X9353515Y-16053984D02*
X9343991Y-16044460D01*
X9343991Y-16044460D02*
X9353515Y-16034936D01*
X9353515Y-16034936D02*
X9353515Y-16053984D01*
X9486848Y-15853984D02*
X9505896Y-15853984D01*
X9505896Y-15853984D02*
X9524944Y-15863508D01*
X9524944Y-15863508D02*
X9534468Y-15873031D01*
X9534468Y-15873031D02*
X9543991Y-15892079D01*
X9543991Y-15892079D02*
X9553515Y-15930174D01*
X9553515Y-15930174D02*
X9553515Y-15977793D01*
X9553515Y-15977793D02*
X9543991Y-16015888D01*
X9543991Y-16015888D02*
X9534468Y-16034936D01*
X9534468Y-16034936D02*
X9524944Y-16044460D01*
X9524944Y-16044460D02*
X9505896Y-16053984D01*
X9505896Y-16053984D02*
X9486848Y-16053984D01*
X9486848Y-16053984D02*
X9467801Y-16044460D01*
X9467801Y-16044460D02*
X9458277Y-16034936D01*
X9458277Y-16034936D02*
X9448753Y-16015888D01*
X9448753Y-16015888D02*
X9439229Y-15977793D01*
X9439229Y-15977793D02*
X9439229Y-15930174D01*
X9439229Y-15930174D02*
X9448753Y-15892079D01*
X9448753Y-15892079D02*
X9458277Y-15873031D01*
X9458277Y-15873031D02*
X9467801Y-15863508D01*
X9467801Y-15863508D02*
X9486848Y-15853984D01*
X9724944Y-15853984D02*
X9686848Y-15853984D01*
X9686848Y-15853984D02*
X9667801Y-15863508D01*
X9667801Y-15863508D02*
X9658277Y-15873031D01*
X9658277Y-15873031D02*
X9639229Y-15901603D01*
X9639229Y-15901603D02*
X9629706Y-15939698D01*
X9629706Y-15939698D02*
X9629706Y-16015888D01*
X9629706Y-16015888D02*
X9639229Y-16034936D01*
X9639229Y-16034936D02*
X9648753Y-16044460D01*
X9648753Y-16044460D02*
X9667801Y-16053984D01*
X9667801Y-16053984D02*
X9705896Y-16053984D01*
X9705896Y-16053984D02*
X9724944Y-16044460D01*
X9724944Y-16044460D02*
X9734468Y-16034936D01*
X9734468Y-16034936D02*
X9743991Y-16015888D01*
X9743991Y-16015888D02*
X9743991Y-15968269D01*
X9743991Y-15968269D02*
X9734468Y-15949222D01*
X9734468Y-15949222D02*
X9724944Y-15939698D01*
X9724944Y-15939698D02*
X9705896Y-15930174D01*
X9705896Y-15930174D02*
X9667801Y-15930174D01*
X9667801Y-15930174D02*
X9648753Y-15939698D01*
X9648753Y-15939698D02*
X9639229Y-15949222D01*
X9639229Y-15949222D02*
X9629706Y-15968269D01*
X9915420Y-15853984D02*
X9877325Y-15853984D01*
X9877325Y-15853984D02*
X9858277Y-15863508D01*
X9858277Y-15863508D02*
X9848753Y-15873031D01*
X9848753Y-15873031D02*
X9829706Y-15901603D01*
X9829706Y-15901603D02*
X9820182Y-15939698D01*
X9820182Y-15939698D02*
X9820182Y-16015888D01*
X9820182Y-16015888D02*
X9829706Y-16034936D01*
X9829706Y-16034936D02*
X9839229Y-16044460D01*
X9839229Y-16044460D02*
X9858277Y-16053984D01*
X9858277Y-16053984D02*
X9896372Y-16053984D01*
X9896372Y-16053984D02*
X9915420Y-16044460D01*
X9915420Y-16044460D02*
X9924944Y-16034936D01*
X9924944Y-16034936D02*
X9934468Y-16015888D01*
X9934468Y-16015888D02*
X9934468Y-15968269D01*
X9934468Y-15968269D02*
X9924944Y-15949222D01*
X9924944Y-15949222D02*
X9915420Y-15939698D01*
X9915420Y-15939698D02*
X9896372Y-15930174D01*
X9896372Y-15930174D02*
X9858277Y-15930174D01*
X9858277Y-15930174D02*
X9839229Y-15939698D01*
X9839229Y-15939698D02*
X9829706Y-15949222D01*
X9829706Y-15949222D02*
X9820182Y-15968269D01*
X10029706Y-16053984D02*
X10067801Y-16053984D01*
X10067801Y-16053984D02*
X10086849Y-16044460D01*
X10086849Y-16044460D02*
X10096372Y-16034936D01*
X10096372Y-16034936D02*
X10115420Y-16006365D01*
X10115420Y-16006365D02*
X10124944Y-15968269D01*
X10124944Y-15968269D02*
X10124944Y-15892079D01*
X10124944Y-15892079D02*
X10115420Y-15873031D01*
X10115420Y-15873031D02*
X10105896Y-15863508D01*
X10105896Y-15863508D02*
X10086849Y-15853984D01*
X10086849Y-15853984D02*
X10048753Y-15853984D01*
X10048753Y-15853984D02*
X10029706Y-15863508D01*
X10029706Y-15863508D02*
X10020182Y-15873031D01*
X10020182Y-15873031D02*
X10010658Y-15892079D01*
X10010658Y-15892079D02*
X10010658Y-15939698D01*
X10010658Y-15939698D02*
X10020182Y-15958746D01*
X10020182Y-15958746D02*
X10029706Y-15968269D01*
X10029706Y-15968269D02*
X10048753Y-15977793D01*
X10048753Y-15977793D02*
X10086849Y-15977793D01*
X10086849Y-15977793D02*
X10105896Y-15968269D01*
X10105896Y-15968269D02*
X10115420Y-15958746D01*
X10115420Y-15958746D02*
X10124944Y-15939698D01*
X10201134Y-15853984D02*
X10201134Y-15892079D01*
X10277325Y-15853984D02*
X10277325Y-15892079D01*
X10572563Y-16130174D02*
X10563039Y-16120650D01*
X10563039Y-16120650D02*
X10543991Y-16092079D01*
X10543991Y-16092079D02*
X10534468Y-16073031D01*
X10534468Y-16073031D02*
X10524944Y-16044460D01*
X10524944Y-16044460D02*
X10515420Y-15996841D01*
X10515420Y-15996841D02*
X10515420Y-15958746D01*
X10515420Y-15958746D02*
X10524944Y-15911127D01*
X10524944Y-15911127D02*
X10534468Y-15882555D01*
X10534468Y-15882555D02*
X10543991Y-15863508D01*
X10543991Y-15863508D02*
X10563039Y-15834936D01*
X10563039Y-15834936D02*
X10572563Y-15825412D01*
X10639230Y-15873031D02*
X10648753Y-15863508D01*
X10648753Y-15863508D02*
X10667801Y-15853984D01*
X10667801Y-15853984D02*
X10715420Y-15853984D01*
X10715420Y-15853984D02*
X10734468Y-15863508D01*
X10734468Y-15863508D02*
X10743991Y-15873031D01*
X10743991Y-15873031D02*
X10753515Y-15892079D01*
X10753515Y-15892079D02*
X10753515Y-15911127D01*
X10753515Y-15911127D02*
X10743991Y-15939698D01*
X10743991Y-15939698D02*
X10629706Y-16053984D01*
X10629706Y-16053984D02*
X10753515Y-16053984D01*
X10991611Y-16053984D02*
X10991611Y-15853984D01*
X11077325Y-16053984D02*
X11077325Y-15949222D01*
X11077325Y-15949222D02*
X11067801Y-15930174D01*
X11067801Y-15930174D02*
X11048753Y-15920650D01*
X11048753Y-15920650D02*
X11020182Y-15920650D01*
X11020182Y-15920650D02*
X11001134Y-15930174D01*
X11001134Y-15930174D02*
X10991611Y-15939698D01*
X11201134Y-16053984D02*
X11182087Y-16044460D01*
X11182087Y-16044460D02*
X11172563Y-16034936D01*
X11172563Y-16034936D02*
X11163039Y-16015888D01*
X11163039Y-16015888D02*
X11163039Y-15958746D01*
X11163039Y-15958746D02*
X11172563Y-15939698D01*
X11172563Y-15939698D02*
X11182087Y-15930174D01*
X11182087Y-15930174D02*
X11201134Y-15920650D01*
X11201134Y-15920650D02*
X11229706Y-15920650D01*
X11229706Y-15920650D02*
X11248753Y-15930174D01*
X11248753Y-15930174D02*
X11258277Y-15939698D01*
X11258277Y-15939698D02*
X11267801Y-15958746D01*
X11267801Y-15958746D02*
X11267801Y-16015888D01*
X11267801Y-16015888D02*
X11258277Y-16034936D01*
X11258277Y-16034936D02*
X11248753Y-16044460D01*
X11248753Y-16044460D02*
X11229706Y-16053984D01*
X11229706Y-16053984D02*
X11201134Y-16053984D01*
X11382087Y-16053984D02*
X11363039Y-16044460D01*
X11363039Y-16044460D02*
X11353515Y-16025412D01*
X11353515Y-16025412D02*
X11353515Y-15853984D01*
X11534468Y-16044460D02*
X11515420Y-16053984D01*
X11515420Y-16053984D02*
X11477325Y-16053984D01*
X11477325Y-16053984D02*
X11458277Y-16044460D01*
X11458277Y-16044460D02*
X11448753Y-16025412D01*
X11448753Y-16025412D02*
X11448753Y-15949222D01*
X11448753Y-15949222D02*
X11458277Y-15930174D01*
X11458277Y-15930174D02*
X11477325Y-15920650D01*
X11477325Y-15920650D02*
X11515420Y-15920650D01*
X11515420Y-15920650D02*
X11534468Y-15930174D01*
X11534468Y-15930174D02*
X11543991Y-15949222D01*
X11543991Y-15949222D02*
X11543991Y-15968269D01*
X11543991Y-15968269D02*
X11448753Y-15987317D01*
X11620182Y-16044460D02*
X11639230Y-16053984D01*
X11639230Y-16053984D02*
X11677325Y-16053984D01*
X11677325Y-16053984D02*
X11696372Y-16044460D01*
X11696372Y-16044460D02*
X11705896Y-16025412D01*
X11705896Y-16025412D02*
X11705896Y-16015888D01*
X11705896Y-16015888D02*
X11696372Y-15996841D01*
X11696372Y-15996841D02*
X11677325Y-15987317D01*
X11677325Y-15987317D02*
X11648753Y-15987317D01*
X11648753Y-15987317D02*
X11629706Y-15977793D01*
X11629706Y-15977793D02*
X11620182Y-15958746D01*
X11620182Y-15958746D02*
X11620182Y-15949222D01*
X11620182Y-15949222D02*
X11629706Y-15930174D01*
X11629706Y-15930174D02*
X11648753Y-15920650D01*
X11648753Y-15920650D02*
X11677325Y-15920650D01*
X11677325Y-15920650D02*
X11696372Y-15930174D01*
X11772563Y-16130174D02*
X11782087Y-16120650D01*
X11782087Y-16120650D02*
X11801134Y-16092079D01*
X11801134Y-16092079D02*
X11810658Y-16073031D01*
X11810658Y-16073031D02*
X11820182Y-16044460D01*
X11820182Y-16044460D02*
X11829706Y-15996841D01*
X11829706Y-15996841D02*
X11829706Y-15958746D01*
X11829706Y-15958746D02*
X11820182Y-15911127D01*
X11820182Y-15911127D02*
X11810658Y-15882555D01*
X11810658Y-15882555D02*
X11801134Y-15863508D01*
X11801134Y-15863508D02*
X11782087Y-15834936D01*
X11782087Y-15834936D02*
X11772563Y-15825412D01*
X6797500Y-16152500D02*
X6997500Y-16352500D01*
X6997500Y-16152500D02*
X6797500Y-16352500D01*
X6897500Y-16152500D02*
X6897500Y-16352500D01*
X6797500Y-16252500D02*
X6997500Y-16252500D01*
X7239229Y-16143984D02*
X7363039Y-16143984D01*
X7363039Y-16143984D02*
X7296372Y-16220174D01*
X7296372Y-16220174D02*
X7324943Y-16220174D01*
X7324943Y-16220174D02*
X7343991Y-16229698D01*
X7343991Y-16229698D02*
X7353515Y-16239222D01*
X7353515Y-16239222D02*
X7363039Y-16258269D01*
X7363039Y-16258269D02*
X7363039Y-16305888D01*
X7363039Y-16305888D02*
X7353515Y-16324936D01*
X7353515Y-16324936D02*
X7343991Y-16334460D01*
X7343991Y-16334460D02*
X7324943Y-16343984D01*
X7324943Y-16343984D02*
X7267801Y-16343984D01*
X7267801Y-16343984D02*
X7248753Y-16334460D01*
X7248753Y-16334460D02*
X7239229Y-16324936D01*
X7448753Y-16324936D02*
X7458277Y-16334460D01*
X7458277Y-16334460D02*
X7448753Y-16343984D01*
X7448753Y-16343984D02*
X7439229Y-16334460D01*
X7439229Y-16334460D02*
X7448753Y-16324936D01*
X7448753Y-16324936D02*
X7448753Y-16343984D01*
X7534467Y-16163031D02*
X7543991Y-16153508D01*
X7543991Y-16153508D02*
X7563039Y-16143984D01*
X7563039Y-16143984D02*
X7610658Y-16143984D01*
X7610658Y-16143984D02*
X7629705Y-16153508D01*
X7629705Y-16153508D02*
X7639229Y-16163031D01*
X7639229Y-16163031D02*
X7648753Y-16182079D01*
X7648753Y-16182079D02*
X7648753Y-16201127D01*
X7648753Y-16201127D02*
X7639229Y-16229698D01*
X7639229Y-16229698D02*
X7524943Y-16343984D01*
X7524943Y-16343984D02*
X7648753Y-16343984D01*
X7772562Y-16143984D02*
X7791610Y-16143984D01*
X7791610Y-16143984D02*
X7810658Y-16153508D01*
X7810658Y-16153508D02*
X7820182Y-16163031D01*
X7820182Y-16163031D02*
X7829705Y-16182079D01*
X7829705Y-16182079D02*
X7839229Y-16220174D01*
X7839229Y-16220174D02*
X7839229Y-16267793D01*
X7839229Y-16267793D02*
X7829705Y-16305888D01*
X7829705Y-16305888D02*
X7820182Y-16324936D01*
X7820182Y-16324936D02*
X7810658Y-16334460D01*
X7810658Y-16334460D02*
X7791610Y-16343984D01*
X7791610Y-16343984D02*
X7772562Y-16343984D01*
X7772562Y-16343984D02*
X7753515Y-16334460D01*
X7753515Y-16334460D02*
X7743991Y-16324936D01*
X7743991Y-16324936D02*
X7734467Y-16305888D01*
X7734467Y-16305888D02*
X7724943Y-16267793D01*
X7724943Y-16267793D02*
X7724943Y-16220174D01*
X7724943Y-16220174D02*
X7734467Y-16182079D01*
X7734467Y-16182079D02*
X7743991Y-16163031D01*
X7743991Y-16163031D02*
X7753515Y-16153508D01*
X7753515Y-16153508D02*
X7772562Y-16143984D01*
X7963039Y-16143984D02*
X7982086Y-16143984D01*
X7982086Y-16143984D02*
X8001134Y-16153508D01*
X8001134Y-16153508D02*
X8010658Y-16163031D01*
X8010658Y-16163031D02*
X8020182Y-16182079D01*
X8020182Y-16182079D02*
X8029705Y-16220174D01*
X8029705Y-16220174D02*
X8029705Y-16267793D01*
X8029705Y-16267793D02*
X8020182Y-16305888D01*
X8020182Y-16305888D02*
X8010658Y-16324936D01*
X8010658Y-16324936D02*
X8001134Y-16334460D01*
X8001134Y-16334460D02*
X7982086Y-16343984D01*
X7982086Y-16343984D02*
X7963039Y-16343984D01*
X7963039Y-16343984D02*
X7943991Y-16334460D01*
X7943991Y-16334460D02*
X7934467Y-16324936D01*
X7934467Y-16324936D02*
X7924943Y-16305888D01*
X7924943Y-16305888D02*
X7915420Y-16267793D01*
X7915420Y-16267793D02*
X7915420Y-16220174D01*
X7915420Y-16220174D02*
X7924943Y-16182079D01*
X7924943Y-16182079D02*
X7934467Y-16163031D01*
X7934467Y-16163031D02*
X7943991Y-16153508D01*
X7943991Y-16153508D02*
X7963039Y-16143984D01*
X8115420Y-16343984D02*
X8115420Y-16210650D01*
X8115420Y-16229698D02*
X8124943Y-16220174D01*
X8124943Y-16220174D02*
X8143991Y-16210650D01*
X8143991Y-16210650D02*
X8172563Y-16210650D01*
X8172563Y-16210650D02*
X8191610Y-16220174D01*
X8191610Y-16220174D02*
X8201134Y-16239222D01*
X8201134Y-16239222D02*
X8201134Y-16343984D01*
X8201134Y-16239222D02*
X8210658Y-16220174D01*
X8210658Y-16220174D02*
X8229705Y-16210650D01*
X8229705Y-16210650D02*
X8258277Y-16210650D01*
X8258277Y-16210650D02*
X8277324Y-16220174D01*
X8277324Y-16220174D02*
X8286848Y-16239222D01*
X8286848Y-16239222D02*
X8286848Y-16343984D01*
X8382086Y-16343984D02*
X8382086Y-16210650D01*
X8382086Y-16229698D02*
X8391610Y-16220174D01*
X8391610Y-16220174D02*
X8410658Y-16210650D01*
X8410658Y-16210650D02*
X8439229Y-16210650D01*
X8439229Y-16210650D02*
X8458277Y-16220174D01*
X8458277Y-16220174D02*
X8467801Y-16239222D01*
X8467801Y-16239222D02*
X8467801Y-16343984D01*
X8467801Y-16239222D02*
X8477325Y-16220174D01*
X8477325Y-16220174D02*
X8496372Y-16210650D01*
X8496372Y-16210650D02*
X8524944Y-16210650D01*
X8524944Y-16210650D02*
X8543991Y-16220174D01*
X8543991Y-16220174D02*
X8553515Y-16239222D01*
X8553515Y-16239222D02*
X8553515Y-16343984D01*
X8943991Y-16134460D02*
X8772563Y-16391603D01*
X9201134Y-16143984D02*
X9220182Y-16143984D01*
X9220182Y-16143984D02*
X9239229Y-16153508D01*
X9239229Y-16153508D02*
X9248753Y-16163031D01*
X9248753Y-16163031D02*
X9258277Y-16182079D01*
X9258277Y-16182079D02*
X9267801Y-16220174D01*
X9267801Y-16220174D02*
X9267801Y-16267793D01*
X9267801Y-16267793D02*
X9258277Y-16305888D01*
X9258277Y-16305888D02*
X9248753Y-16324936D01*
X9248753Y-16324936D02*
X9239229Y-16334460D01*
X9239229Y-16334460D02*
X9220182Y-16343984D01*
X9220182Y-16343984D02*
X9201134Y-16343984D01*
X9201134Y-16343984D02*
X9182087Y-16334460D01*
X9182087Y-16334460D02*
X9172563Y-16324936D01*
X9172563Y-16324936D02*
X9163039Y-16305888D01*
X9163039Y-16305888D02*
X9153515Y-16267793D01*
X9153515Y-16267793D02*
X9153515Y-16220174D01*
X9153515Y-16220174D02*
X9163039Y-16182079D01*
X9163039Y-16182079D02*
X9172563Y-16163031D01*
X9172563Y-16163031D02*
X9182087Y-16153508D01*
X9182087Y-16153508D02*
X9201134Y-16143984D01*
X9353515Y-16324936D02*
X9363039Y-16334460D01*
X9363039Y-16334460D02*
X9353515Y-16343984D01*
X9353515Y-16343984D02*
X9343991Y-16334460D01*
X9343991Y-16334460D02*
X9353515Y-16324936D01*
X9353515Y-16324936D02*
X9353515Y-16343984D01*
X9553515Y-16343984D02*
X9439229Y-16343984D01*
X9496372Y-16343984D02*
X9496372Y-16143984D01*
X9496372Y-16143984D02*
X9477325Y-16172555D01*
X9477325Y-16172555D02*
X9458277Y-16191603D01*
X9458277Y-16191603D02*
X9439229Y-16201127D01*
X9629706Y-16163031D02*
X9639229Y-16153508D01*
X9639229Y-16153508D02*
X9658277Y-16143984D01*
X9658277Y-16143984D02*
X9705896Y-16143984D01*
X9705896Y-16143984D02*
X9724944Y-16153508D01*
X9724944Y-16153508D02*
X9734468Y-16163031D01*
X9734468Y-16163031D02*
X9743991Y-16182079D01*
X9743991Y-16182079D02*
X9743991Y-16201127D01*
X9743991Y-16201127D02*
X9734468Y-16229698D01*
X9734468Y-16229698D02*
X9620182Y-16343984D01*
X9620182Y-16343984D02*
X9743991Y-16343984D01*
X9915420Y-16143984D02*
X9877325Y-16143984D01*
X9877325Y-16143984D02*
X9858277Y-16153508D01*
X9858277Y-16153508D02*
X9848753Y-16163031D01*
X9848753Y-16163031D02*
X9829706Y-16191603D01*
X9829706Y-16191603D02*
X9820182Y-16229698D01*
X9820182Y-16229698D02*
X9820182Y-16305888D01*
X9820182Y-16305888D02*
X9829706Y-16324936D01*
X9829706Y-16324936D02*
X9839229Y-16334460D01*
X9839229Y-16334460D02*
X9858277Y-16343984D01*
X9858277Y-16343984D02*
X9896372Y-16343984D01*
X9896372Y-16343984D02*
X9915420Y-16334460D01*
X9915420Y-16334460D02*
X9924944Y-16324936D01*
X9924944Y-16324936D02*
X9934468Y-16305888D01*
X9934468Y-16305888D02*
X9934468Y-16258269D01*
X9934468Y-16258269D02*
X9924944Y-16239222D01*
X9924944Y-16239222D02*
X9915420Y-16229698D01*
X9915420Y-16229698D02*
X9896372Y-16220174D01*
X9896372Y-16220174D02*
X9858277Y-16220174D01*
X9858277Y-16220174D02*
X9839229Y-16229698D01*
X9839229Y-16229698D02*
X9829706Y-16239222D01*
X9829706Y-16239222D02*
X9820182Y-16258269D01*
X10058277Y-16143984D02*
X10077325Y-16143984D01*
X10077325Y-16143984D02*
X10096372Y-16153508D01*
X10096372Y-16153508D02*
X10105896Y-16163031D01*
X10105896Y-16163031D02*
X10115420Y-16182079D01*
X10115420Y-16182079D02*
X10124944Y-16220174D01*
X10124944Y-16220174D02*
X10124944Y-16267793D01*
X10124944Y-16267793D02*
X10115420Y-16305888D01*
X10115420Y-16305888D02*
X10105896Y-16324936D01*
X10105896Y-16324936D02*
X10096372Y-16334460D01*
X10096372Y-16334460D02*
X10077325Y-16343984D01*
X10077325Y-16343984D02*
X10058277Y-16343984D01*
X10058277Y-16343984D02*
X10039229Y-16334460D01*
X10039229Y-16334460D02*
X10029706Y-16324936D01*
X10029706Y-16324936D02*
X10020182Y-16305888D01*
X10020182Y-16305888D02*
X10010658Y-16267793D01*
X10010658Y-16267793D02*
X10010658Y-16220174D01*
X10010658Y-16220174D02*
X10020182Y-16182079D01*
X10020182Y-16182079D02*
X10029706Y-16163031D01*
X10029706Y-16163031D02*
X10039229Y-16153508D01*
X10039229Y-16153508D02*
X10058277Y-16143984D01*
X10201134Y-16143984D02*
X10201134Y-16182079D01*
X10277325Y-16143984D02*
X10277325Y-16182079D01*
X10572563Y-16420174D02*
X10563039Y-16410650D01*
X10563039Y-16410650D02*
X10543991Y-16382079D01*
X10543991Y-16382079D02*
X10534468Y-16363031D01*
X10534468Y-16363031D02*
X10524944Y-16334460D01*
X10524944Y-16334460D02*
X10515420Y-16286841D01*
X10515420Y-16286841D02*
X10515420Y-16248746D01*
X10515420Y-16248746D02*
X10524944Y-16201127D01*
X10524944Y-16201127D02*
X10534468Y-16172555D01*
X10534468Y-16172555D02*
X10543991Y-16153508D01*
X10543991Y-16153508D02*
X10563039Y-16124936D01*
X10563039Y-16124936D02*
X10572563Y-16115412D01*
X10734468Y-16210650D02*
X10734468Y-16343984D01*
X10686849Y-16134460D02*
X10639230Y-16277317D01*
X10639230Y-16277317D02*
X10763039Y-16277317D01*
X10991611Y-16343984D02*
X10991611Y-16143984D01*
X11077325Y-16343984D02*
X11077325Y-16239222D01*
X11077325Y-16239222D02*
X11067801Y-16220174D01*
X11067801Y-16220174D02*
X11048753Y-16210650D01*
X11048753Y-16210650D02*
X11020182Y-16210650D01*
X11020182Y-16210650D02*
X11001134Y-16220174D01*
X11001134Y-16220174D02*
X10991611Y-16229698D01*
X11201134Y-16343984D02*
X11182087Y-16334460D01*
X11182087Y-16334460D02*
X11172563Y-16324936D01*
X11172563Y-16324936D02*
X11163039Y-16305888D01*
X11163039Y-16305888D02*
X11163039Y-16248746D01*
X11163039Y-16248746D02*
X11172563Y-16229698D01*
X11172563Y-16229698D02*
X11182087Y-16220174D01*
X11182087Y-16220174D02*
X11201134Y-16210650D01*
X11201134Y-16210650D02*
X11229706Y-16210650D01*
X11229706Y-16210650D02*
X11248753Y-16220174D01*
X11248753Y-16220174D02*
X11258277Y-16229698D01*
X11258277Y-16229698D02*
X11267801Y-16248746D01*
X11267801Y-16248746D02*
X11267801Y-16305888D01*
X11267801Y-16305888D02*
X11258277Y-16324936D01*
X11258277Y-16324936D02*
X11248753Y-16334460D01*
X11248753Y-16334460D02*
X11229706Y-16343984D01*
X11229706Y-16343984D02*
X11201134Y-16343984D01*
X11382087Y-16343984D02*
X11363039Y-16334460D01*
X11363039Y-16334460D02*
X11353515Y-16315412D01*
X11353515Y-16315412D02*
X11353515Y-16143984D01*
X11534468Y-16334460D02*
X11515420Y-16343984D01*
X11515420Y-16343984D02*
X11477325Y-16343984D01*
X11477325Y-16343984D02*
X11458277Y-16334460D01*
X11458277Y-16334460D02*
X11448753Y-16315412D01*
X11448753Y-16315412D02*
X11448753Y-16239222D01*
X11448753Y-16239222D02*
X11458277Y-16220174D01*
X11458277Y-16220174D02*
X11477325Y-16210650D01*
X11477325Y-16210650D02*
X11515420Y-16210650D01*
X11515420Y-16210650D02*
X11534468Y-16220174D01*
X11534468Y-16220174D02*
X11543991Y-16239222D01*
X11543991Y-16239222D02*
X11543991Y-16258269D01*
X11543991Y-16258269D02*
X11448753Y-16277317D01*
X11620182Y-16334460D02*
X11639230Y-16343984D01*
X11639230Y-16343984D02*
X11677325Y-16343984D01*
X11677325Y-16343984D02*
X11696372Y-16334460D01*
X11696372Y-16334460D02*
X11705896Y-16315412D01*
X11705896Y-16315412D02*
X11705896Y-16305888D01*
X11705896Y-16305888D02*
X11696372Y-16286841D01*
X11696372Y-16286841D02*
X11677325Y-16277317D01*
X11677325Y-16277317D02*
X11648753Y-16277317D01*
X11648753Y-16277317D02*
X11629706Y-16267793D01*
X11629706Y-16267793D02*
X11620182Y-16248746D01*
X11620182Y-16248746D02*
X11620182Y-16239222D01*
X11620182Y-16239222D02*
X11629706Y-16220174D01*
X11629706Y-16220174D02*
X11648753Y-16210650D01*
X11648753Y-16210650D02*
X11677325Y-16210650D01*
X11677325Y-16210650D02*
X11696372Y-16220174D01*
X11772563Y-16420174D02*
X11782087Y-16410650D01*
X11782087Y-16410650D02*
X11801134Y-16382079D01*
X11801134Y-16382079D02*
X11810658Y-16363031D01*
X11810658Y-16363031D02*
X11820182Y-16334460D01*
X11820182Y-16334460D02*
X11829706Y-16286841D01*
X11829706Y-16286841D02*
X11829706Y-16248746D01*
X11829706Y-16248746D02*
X11820182Y-16201127D01*
X11820182Y-16201127D02*
X11810658Y-16172555D01*
X11810658Y-16172555D02*
X11801134Y-16153508D01*
X11801134Y-16153508D02*
X11782087Y-16124936D01*
X11782087Y-16124936D02*
X11772563Y-16115412D01*
M02*
