G04 #@! TF.GenerationSoftware,KiCad,Pcbnew,9.0.1*
G04 #@! TF.CreationDate,2025-05-09T16:55:27+02:00*
G04 #@! TF.ProjectId,SIGURD,53494755-5244-42e6-9b69-6361645f7063,rev?*
G04 #@! TF.SameCoordinates,Original*
G04 #@! TF.FileFunction,Legend,Bot*
G04 #@! TF.FilePolarity,Positive*
%FSLAX46Y46*%
G04 Gerber Fmt 4.6, Leading zero omitted, Abs format (unit mm)*
G04 Created by KiCad (PCBNEW 9.0.1) date 2025-05-09 16:55:27*
%MOMM*%
%LPD*%
G01*
G04 APERTURE LIST*
G04 Aperture macros list*
%AMRoundRect*
0 Rectangle with rounded corners*
0 $1 Rounding radius*
0 $2 $3 $4 $5 $6 $7 $8 $9 X,Y pos of 4 corners*
0 Add a 4 corners polygon primitive as box body*
4,1,4,$2,$3,$4,$5,$6,$7,$8,$9,$2,$3,0*
0 Add four circle primitives for the rounded corners*
1,1,$1+$1,$2,$3*
1,1,$1+$1,$4,$5*
1,1,$1+$1,$6,$7*
1,1,$1+$1,$8,$9*
0 Add four rect primitives between the rounded corners*
20,1,$1+$1,$2,$3,$4,$5,0*
20,1,$1+$1,$4,$5,$6,$7,0*
20,1,$1+$1,$6,$7,$8,$9,0*
20,1,$1+$1,$8,$9,$2,$3,0*%
G04 Aperture macros list end*
%ADD10C,1.200000*%
%ADD11RoundRect,0.250000X-0.750000X0.600000X-0.750000X-0.600000X0.750000X-0.600000X0.750000X0.600000X0*%
%ADD12O,2.000000X1.700000*%
%ADD13R,2.600000X2.600000*%
%ADD14C,2.600000*%
%ADD15C,0.800000*%
%ADD16C,6.400000*%
%ADD17C,1.020000*%
%ADD18RoundRect,0.250001X-0.499999X0.499999X-0.499999X-0.499999X0.499999X-0.499999X0.499999X0.499999X0*%
%ADD19C,1.500000*%
%ADD20C,1.450000*%
%ADD21RoundRect,0.250001X-1.099999X-1.099999X1.099999X-1.099999X1.099999X1.099999X-1.099999X1.099999X0*%
%ADD22C,2.700000*%
%ADD23R,1.700000X1.700000*%
%ADD24C,1.700000*%
G04 APERTURE END LIST*
%LPC*%
D10*
X132580767Y-89038751D03*
D11*
X134580767Y-90638751D03*
D12*
X134580767Y-93138751D03*
D13*
X91144517Y-130740001D03*
D14*
X96224517Y-130740001D03*
D13*
X105189517Y-130790001D03*
D14*
X110269517Y-130790001D03*
D15*
X72600000Y-135000000D03*
X73302944Y-133302944D03*
X73302944Y-136697056D03*
X75000000Y-132600000D03*
D16*
X75000000Y-135000000D03*
D15*
X75000000Y-137400000D03*
X76697056Y-133302944D03*
X76697056Y-136697056D03*
X77400000Y-135000000D03*
X132600000Y-75000000D03*
X133302944Y-73302944D03*
X133302944Y-76697056D03*
X135000000Y-72600000D03*
D16*
X135000000Y-75000000D03*
D15*
X135000000Y-77400000D03*
X136697056Y-73302944D03*
X136697056Y-76697056D03*
X137400000Y-75000000D03*
D13*
X77434517Y-115210001D03*
D14*
X77434517Y-120290001D03*
D11*
X76234517Y-106390001D03*
D12*
X76234517Y-108890001D03*
D17*
X73834517Y-89790001D03*
X73834517Y-101790001D03*
D18*
X77774517Y-92790001D03*
D19*
X77774517Y-95790001D03*
X77774517Y-98790001D03*
X74774517Y-92790001D03*
X74774517Y-95790001D03*
X74774517Y-98790001D03*
D13*
X119609517Y-131030001D03*
D14*
X124689517Y-131030001D03*
D10*
X132580767Y-99691251D03*
D11*
X134580767Y-101291251D03*
D12*
X134580767Y-103791251D03*
D15*
X72600000Y-75000000D03*
X73302944Y-73302944D03*
X73302944Y-76697056D03*
X75000000Y-72600000D03*
D16*
X75000000Y-75000000D03*
D15*
X75000000Y-77400000D03*
X76697056Y-73302944D03*
X76697056Y-76697056D03*
X77400000Y-75000000D03*
D20*
X84342500Y-72650000D03*
D21*
X85842500Y-76050000D03*
D22*
X89802500Y-76050000D03*
D23*
X89085000Y-103200000D03*
D24*
X91625000Y-103200000D03*
X94165000Y-103200000D03*
X96705000Y-103200000D03*
X99245000Y-103200000D03*
D13*
X108800000Y-76200000D03*
D14*
X103800000Y-76200000D03*
X98800000Y-76200000D03*
D15*
X132600000Y-135000000D03*
X133302944Y-133302944D03*
X133302944Y-136697056D03*
X135000000Y-132600000D03*
D16*
X135000000Y-135000000D03*
D15*
X135000000Y-137400000D03*
X136697056Y-133302944D03*
X136697056Y-136697056D03*
X137400000Y-135000000D03*
%LPD*%
M02*
